<svg width="56" height="56" viewBox="0 0 56 56" fill="none" xmlns="http://www.w3.org/2000/svg">
<g clip-path="url(#clip0_214_12)">
<path d="M36.8729 15.9174C34.3669 23.1145 26.6423 27.5569 22.5547 31.4361C16.9061 36.8053 12.1433 45.0346 16.3285 52.1024C15.583 32.5642 40.7795 30.066 36.8729 15.9174Z" fill="url(#paint0_linear_214_12)"/>
<path d="M36.8729 15.9174C34.3669 23.1145 26.6423 27.5569 22.5547 31.4361C16.9061 36.8053 12.1433 45.0346 16.3285 52.1024C15.583 32.5642 40.7795 30.066 36.8729 15.9174Z" fill="url(#paint1_linear_214_12)"/>
<path d="M36.8729 15.9174C34.3669 23.1145 26.6423 27.5569 22.5547 31.4361C16.9061 36.8053 12.1433 45.0346 16.3285 52.1024C15.583 32.5642 40.7795 30.066 36.8729 15.9174Z" fill="url(#paint2_linear_214_12)"/>
<path d="M22.582 49.7461H22.6672V50.7644L22.6246 51.2312L22.582 50.5099V49.7461Z" fill="#C913C1"/>
<path d="M1.75066 15.0809C4.25672 22.2781 11.9813 26.7205 16.0688 30.5996C21.7175 35.9689 26.8113 44.1632 22.6261 51.2311C23.3716 31.6929 -2.15591 29.2296 1.75066 15.0809Z" fill="#00B4D5"/>
<path d="M1.75066 15.0809C4.25672 22.2781 11.9813 26.7205 16.0688 30.5996C21.7175 35.9689 26.8113 44.1632 22.6261 51.2311C23.3716 31.6929 -2.15591 29.2296 1.75066 15.0809Z" fill="url(#paint3_linear_214_12)"/>
<path d="M1.75066 15.0809C4.25672 22.2781 11.9813 26.7205 16.0688 30.5996C21.7175 35.9689 26.8113 44.1632 22.6261 51.2311C23.3716 31.6929 -2.15591 29.2296 1.75066 15.0809Z" fill="url(#paint4_linear_214_12)"/>
<path d="M0.69939 22.7172C3.01827 29.3675 10.1663 33.4724 13.9486 37.0569C19.1755 42.0182 23.5828 49.6223 19.71 56.1532C20.3998 38.0993 -2.91562 35.791 0.69939 22.7172Z" fill="#00B4D5"/>
<path d="M0.69939 22.7172C3.01827 29.3675 10.1663 33.4724 13.9486 37.0569C19.1755 42.0182 23.5828 49.6223 19.71 56.1532C20.3998 38.0993 -2.91562 35.791 0.69939 22.7172Z" fill="url(#paint5_linear_214_12)"/>
<path d="M0.69939 22.7172C3.01827 29.3675 10.1663 33.4724 13.9486 37.0569C19.1755 42.0182 23.5828 49.6223 19.71 56.1532C20.3998 38.0993 -2.91562 35.791 0.69939 22.7172Z" fill="url(#paint6_linear_214_12)"/>
<path d="M37.0124 26.1965C35.2779 31.1758 29.9314 34.2492 27.1024 36.9331C23.1928 40.6478 19.7272 46.3412 22.624 51.2311C22.108 37.7136 39.7162 35.9853 37.0124 26.1965Z" fill="url(#paint7_linear_214_12)"/>
<path d="M37.0124 26.1965C35.2779 31.1758 29.9314 34.2492 27.1024 36.9331C23.1928 40.6478 19.7272 46.3412 22.624 51.2311C22.108 37.7136 39.7162 35.9853 37.0124 26.1965Z" fill="url(#paint8_linear_214_12)"/>
<path d="M37.0124 26.1965C35.2779 31.1758 29.9314 34.2492 27.1024 36.9331C23.1928 40.6478 19.7272 46.3412 22.624 51.2311C22.108 37.7136 39.7162 35.9853 37.0124 26.1965Z" fill="url(#paint9_linear_214_12)"/>
<path d="M26.2822 10.7938C29.1359 10.7938 31.4492 8.43786 31.4492 5.53167C31.4492 2.62547 29.1359 0.269531 26.2822 0.269531C23.4286 0.269531 21.1152 2.62547 21.1152 5.53167C21.1152 8.43786 23.4286 10.7938 26.2822 10.7938Z" fill="#235CAF"/>
<path d="M26.2822 10.7938C29.1359 10.7938 31.4492 8.43786 31.4492 5.53167C31.4492 2.62547 29.1359 0.269531 26.2822 0.269531C23.4286 0.269531 21.1152 2.62547 21.1152 5.53167C21.1152 8.43786 23.4286 10.7938 26.2822 10.7938Z" fill="url(#paint10_linear_214_12)"/>
<path d="M10.5967 21.1334C13.4504 21.1334 15.7637 18.7775 15.7637 15.8713C15.7637 12.965 13.4504 10.6091 10.5967 10.6091C7.74312 10.6091 5.42969 12.965 5.42969 15.8713C5.42969 18.7775 7.74312 21.1334 10.5967 21.1334Z" fill="#235CAF"/>
<path d="M10.5967 21.1334C13.4504 21.1334 15.7637 18.7775 15.7637 15.8713C15.7637 12.965 13.4504 10.6091 10.5967 10.6091C7.74312 10.6091 5.42969 12.965 5.42969 15.8713C5.42969 18.7775 7.74312 21.1334 10.5967 21.1334Z" fill="url(#paint11_linear_214_12)"/>
<path d="M10.5967 21.1334C13.4504 21.1334 15.7637 18.7775 15.7637 15.8713C15.7637 12.965 13.4504 10.6091 10.5967 10.6091C7.74312 10.6091 5.42969 12.965 5.42969 15.8713C5.42969 18.7775 7.74312 21.1334 10.5967 21.1334Z" fill="url(#paint12_linear_214_12)"/>
<path d="M36.8477 0C41.5774 24.6914 7.35889 27.6382 12.0885 49.7668C-3.18367 28.1054 37.3441 20.033 36.8477 0Z" fill="url(#paint13_linear_214_12)"/>
<path d="M36.8477 0C41.5774 24.6914 7.35889 27.6382 12.0885 49.7668C-3.18367 28.1054 37.3441 20.033 36.8477 0Z" fill="url(#paint14_linear_214_12)"/>
<path d="M36.8477 0C41.5774 24.6914 7.35889 27.6382 12.0885 49.7668C-3.18367 28.1054 37.3441 20.033 36.8477 0Z" fill="url(#paint15_linear_214_12)"/>
</g>
<defs>
<linearGradient id="paint0_linear_214_12" x1="36.0045" y1="2.40719" x2="20.2461" y2="47.5862" gradientUnits="userSpaceOnUse">
<stop stop-color="#754FFE"/>
<stop offset="0.9944" stop-color="#C812C1"/>
</linearGradient>
<linearGradient id="paint1_linear_214_12" x1="19.8487" y1="35.724" x2="32.7466" y2="-10.9448" gradientUnits="userSpaceOnUse">
<stop stop-color="#DF6F34"/>
<stop offset="0.9944" stop-color="#F1CC5F"/>
</linearGradient>
<linearGradient id="paint2_linear_214_12" x1="36.0045" y1="2.40719" x2="20.2461" y2="47.5862" gradientUnits="userSpaceOnUse">
<stop stop-color="#754FFE"/>
<stop offset="0.9944" stop-color="#C812C1"/>
</linearGradient>
<linearGradient id="paint3_linear_214_12" x1="35.2042" y1="2.71872" x2="19.066" y2="54.9679" gradientUnits="userSpaceOnUse">
<stop stop-color="#754FFE"/>
<stop offset="0.9944" stop-color="#C812C1"/>
</linearGradient>
<linearGradient id="paint4_linear_214_12" x1="14.599" y1="40.3473" x2="27.6992" y2="-13.1811" gradientUnits="userSpaceOnUse">
<stop stop-color="#DF6F34"/>
<stop offset="0.9944" stop-color="#F1CC5F"/>
</linearGradient>
<linearGradient id="paint5_linear_214_12" x1="35.6294" y1="2.71624" x2="19.6779" y2="55.0308" gradientUnits="userSpaceOnUse">
<stop stop-color="#754FFE"/>
<stop offset="0.9944" stop-color="#C812C1"/>
</linearGradient>
<linearGradient id="paint6_linear_214_12" x1="14.7772" y1="40.3084" x2="27.7158" y2="-13.2452" gradientUnits="userSpaceOnUse">
<stop stop-color="#DF6F34"/>
<stop offset="0.9944" stop-color="#F1CC5F"/>
</linearGradient>
<linearGradient id="paint7_linear_214_12" x1="35.6487" y1="2.71614" x2="19.5805" y2="54.9519" gradientUnits="userSpaceOnUse">
<stop stop-color="#754FFE"/>
<stop offset="0.9944" stop-color="#C812C1"/>
</linearGradient>
<linearGradient id="paint8_linear_214_12" x1="14.9789" y1="40.3083" x2="28.019" y2="-13.1929" gradientUnits="userSpaceOnUse">
<stop stop-color="#DF6F34"/>
<stop offset="0.9944" stop-color="#F1CC5F"/>
</linearGradient>
<linearGradient id="paint9_linear_214_12" x1="35.6487" y1="2.71614" x2="19.5805" y2="54.9519" gradientUnits="userSpaceOnUse">
<stop stop-color="#754FFE"/>
<stop offset="0.9944" stop-color="#C812C1"/>
</linearGradient>
<linearGradient id="paint10_linear_214_12" x1="35.6296" y1="2.71617" x2="19.6781" y2="55.0307" gradientUnits="userSpaceOnUse">
<stop stop-color="#754FFE"/>
<stop offset="0.9944" stop-color="#C812C1"/>
</linearGradient>
<linearGradient id="paint11_linear_214_12" x1="35.6297" y1="2.71614" x2="19.6782" y2="55.0307" gradientUnits="userSpaceOnUse">
<stop stop-color="#754FFE"/>
<stop offset="0.9944" stop-color="#C812C1"/>
</linearGradient>
<linearGradient id="paint12_linear_214_12" x1="14.7775" y1="40.3083" x2="27.7161" y2="-13.2453" gradientUnits="userSpaceOnUse">
<stop stop-color="#DF6F34"/>
<stop offset="0.9944" stop-color="#F1CC5F"/>
</linearGradient>
<linearGradient id="paint13_linear_214_12" x1="36.0045" y1="2.40728" x2="20.2462" y2="47.5863" gradientUnits="userSpaceOnUse">
<stop stop-color="#754FFE"/>
<stop offset="0.9944" stop-color="#C812C1"/>
</linearGradient>
<linearGradient id="paint14_linear_214_12" x1="19.8488" y1="35.7241" x2="32.7466" y2="-10.9447" gradientUnits="userSpaceOnUse">
<stop stop-color="#DF6F34"/>
<stop offset="0.9944" stop-color="#F1CC5F"/>
</linearGradient>
<linearGradient id="paint15_linear_214_12" x1="36.0045" y1="2.40728" x2="20.2462" y2="47.5863" gradientUnits="userSpaceOnUse">
<stop stop-color="#754FFE"/>
<stop offset="0.9944" stop-color="#C812C1"/>
</linearGradient>
<clipPath id="clip0_214_12">
<rect width="56" height="56" fill="white"/>
</clipPath>
</defs>
</svg>
