<svg width="774" height="816" viewBox="0 0 774 816" fill="none" xmlns="http://www.w3.org/2000/svg">
<g clip-path="url(#clip0_947_72)">
<path d="M544.52 483.575C543.18 483.575 542.089 482.484 542.089 481.143C542.089 479.802 543.18 478.712 544.52 478.712C545.861 478.712 546.952 479.802 546.952 481.143C546.952 482.484 545.861 483.575 544.52 483.575ZM544.52 476.312C542.273 476.312 540.397 477.862 539.859 479.943H462.966V462.786H460.566V482.343H539.859C540.397 484.424 542.273 485.973 544.52 485.973C547.183 485.973 549.35 483.806 549.35 481.143C549.35 478.479 547.183 476.312 544.52 476.312Z" fill="url(#paint0_linear_947_72)" fill-opacity="0.2"/>
<path d="M544.52 493.468C543.18 493.468 542.089 492.377 542.089 491.037C542.089 489.695 543.18 488.605 544.52 488.605C545.861 488.605 546.951 489.695 546.951 491.037C546.951 492.377 545.861 493.468 544.52 493.468ZM544.52 486.206C542.273 486.206 540.397 487.756 539.859 489.837H450.574V463.47H448.176V492.235H539.859C540.397 494.318 542.273 495.868 544.52 495.868C547.183 495.868 549.35 493.699 549.35 491.037C549.35 488.373 547.183 486.206 544.52 486.206Z" fill="url(#paint1_linear_947_72)" fill-opacity="0.2"/>
<path d="M342.433 462.27C341.092 462.27 340.001 461.18 340.001 459.839C340.001 458.498 341.092 457.406 342.433 457.406C343.773 457.406 344.864 458.498 344.864 459.839C344.864 461.18 343.773 462.27 342.433 462.27ZM343.62 455.174V441.165L364.415 421.101V355.472H362.015V420.083L341.222 440.147V455.18C339.146 455.721 337.602 457.595 337.602 459.839C337.602 462.501 339.769 464.668 342.433 464.668C345.097 464.668 347.262 462.501 347.262 459.839C347.262 457.587 345.709 455.706 343.62 455.174Z" fill="url(#paint2_linear_947_72)" fill-opacity="0.2"/>
<path d="M357.071 459.839C357.071 461.18 355.98 462.27 354.64 462.27C353.298 462.27 352.207 461.18 352.207 459.839C352.207 458.499 353.298 457.407 354.64 457.407C355.98 457.407 357.071 458.499 357.071 459.839ZM374.222 420.083L353.429 440.147V455.18C351.353 455.722 349.809 457.596 349.809 459.839C349.809 462.502 351.976 464.669 354.64 464.669C357.302 464.669 359.469 462.502 359.469 459.839C359.469 457.587 357.914 455.706 355.827 455.173V441.166L376.62 421.101V337.352H374.222V420.083Z" fill="url(#paint3_linear_947_72)" fill-opacity="0.2"/>
<path d="M388.991 300.803C387.651 300.803 386.559 299.712 386.559 298.371C386.559 297.031 387.651 295.94 388.991 295.94C390.332 295.94 391.422 297.031 391.422 298.371C391.422 299.712 390.332 300.803 388.991 300.803ZM388.991 293.54C386.327 293.54 384.16 295.707 384.16 298.371C384.16 301.034 386.327 303.201 388.991 303.201C389.887 303.201 390.717 302.941 391.437 302.513L402.149 313.226H436.333V310.826H403.144L393.133 300.816C393.56 300.096 393.821 299.267 393.821 298.371C393.821 295.707 391.654 293.54 388.991 293.54Z" fill="url(#paint4_linear_947_72)" fill-opacity="0.2"/>
<path d="M388.991 385.372C390.332 385.372 391.422 386.463 391.422 387.804C391.422 389.145 390.332 390.235 388.991 390.235C387.651 390.235 386.559 389.145 386.559 387.804C386.559 386.463 387.651 385.372 388.991 385.372ZM388.991 392.635C391.654 392.635 393.821 390.468 393.821 387.804C393.821 385.557 392.272 383.679 390.19 383.142V319.024H436.333V316.624H387.791V383.142C385.71 383.679 384.16 385.557 384.16 387.804C384.16 390.468 386.327 392.635 388.991 392.635Z" fill="url(#paint5_linear_947_72)" fill-opacity="0.2"/>
<path d="M523.493 359.619C523.493 360.959 522.404 362.05 521.062 362.05C519.722 362.05 518.63 360.959 518.63 359.619C518.63 358.278 519.722 357.187 521.062 357.187C522.404 357.187 523.493 358.278 523.493 359.619ZM516.231 359.619C516.231 362.283 518.398 364.45 521.062 364.45C523.725 364.45 525.892 362.283 525.892 359.619C525.892 357.372 524.343 355.494 522.262 354.957V334.529L479.369 308.681H438.029V311.081H478.702L519.864 335.884V354.957C517.78 355.494 516.231 357.372 516.231 359.619Z" fill="url(#paint6_linear_947_72)" fill-opacity="0.2"/>
<path d="M451.492 392.501C451.492 393.842 450.401 394.933 449.06 394.933C447.719 394.933 446.628 393.842 446.628 392.501C446.628 391.161 447.719 390.07 449.06 390.07C450.401 390.07 451.492 391.161 451.492 392.501ZM444.23 392.501C444.23 395.164 446.397 397.331 449.06 397.331C451.724 397.331 453.891 395.164 453.891 392.501C453.891 390.28 452.376 388.423 450.33 387.862V365.843H438.029V368.243H447.931V387.818C445.813 388.33 444.23 390.229 444.23 392.501Z" fill="url(#paint7_linear_947_72)" fill-opacity="0.2"/>
<path d="M478.279 322.244C476.938 322.244 475.847 321.153 475.847 319.813C475.847 318.472 476.938 317.381 478.279 317.381C479.619 317.381 480.71 318.472 480.71 319.813C480.71 321.153 479.619 322.244 478.279 322.244ZM478.279 314.982C476.032 314.982 474.155 316.531 473.617 318.613H438.975V321.011H473.617C474.155 323.094 476.032 324.643 478.279 324.643C480.941 324.643 483.11 322.476 483.11 319.813C483.11 317.149 480.941 314.982 478.279 314.982Z" fill="url(#paint8_linear_947_72)" fill-opacity="0.2"/>
<path d="M478.279 333.1C476.938 333.1 475.847 332.01 475.847 330.669C475.847 329.328 476.938 328.237 478.279 328.237C479.619 328.237 480.71 329.328 480.71 330.669C480.71 332.01 479.619 333.1 478.279 333.1ZM478.279 325.838C476.032 325.838 474.155 327.387 473.617 329.469H438.975V331.868H473.617C474.155 333.95 476.032 335.499 478.279 335.499C480.941 335.499 483.11 333.332 483.11 330.669C483.11 328.005 480.941 325.838 478.279 325.838Z" fill="url(#paint9_linear_947_72)" fill-opacity="0.2"/>
<path d="M576.047 466.385C574.707 466.385 573.616 465.295 573.616 463.953C573.616 462.613 574.707 461.522 576.047 461.522C577.388 461.522 578.48 462.613 578.48 463.953C578.48 465.295 577.388 466.385 576.047 466.385ZM576.047 459.124C575.198 459.124 574.41 459.364 573.715 459.75L560.766 446.8H500.689V410.168H498.289V449.198H559.773L571.968 461.395C571.499 462.139 571.218 463.012 571.218 463.953C571.218 466.616 573.385 468.783 576.047 468.783C578.711 468.783 580.878 466.616 580.878 463.953C580.878 461.291 578.711 459.124 576.047 459.124Z" fill="url(#paint10_linear_947_72)" fill-opacity="0.2"/>
<path d="M588.796 457.351C587.456 457.351 586.364 456.261 586.364 454.92C586.364 453.58 587.456 452.488 588.796 452.488C590.137 452.488 591.228 453.58 591.228 454.92C591.228 456.261 590.137 457.351 588.796 457.351ZM588.796 450.089C587.924 450.089 587.117 450.339 586.41 450.745L570.994 435.329H510.918V409.471H508.52V437.729H570.002L584.686 452.414C584.238 453.147 583.965 453.999 583.965 454.92C583.965 457.583 586.132 459.75 588.796 459.75C591.459 459.75 593.626 457.583 593.626 454.92C593.626 452.256 591.459 450.089 588.796 450.089Z" fill="url(#paint11_linear_947_72)" fill-opacity="0.2"/>
<path d="M501.62 393.701C502.961 393.701 504.053 394.791 504.053 396.132C504.053 397.473 502.961 398.565 501.62 398.565C500.927 398.565 500.304 398.269 499.861 397.801H500.123V395.402H499.314C499.625 394.42 500.535 393.701 501.62 393.701ZM501.62 400.963C504.283 400.963 506.451 398.796 506.451 396.132C506.451 393.47 504.283 391.303 501.62 391.303C499.208 391.303 497.219 393.087 496.864 395.402H470.197V348.788H436.332V351.187H467.797V397.801H497.104C497.788 399.641 499.546 400.963 501.62 400.963Z" fill="url(#paint12_linear_947_72)" fill-opacity="0.2"/>
<path d="M550.138 300.644C551.479 300.644 552.571 301.734 552.571 303.076C552.571 304.416 551.479 305.507 550.138 305.507C548.799 305.507 547.707 304.416 547.707 303.076C547.707 301.734 548.799 300.644 550.138 300.644ZM587.959 337.93C587.959 339.272 586.869 340.363 585.528 340.363C584.187 340.363 583.096 339.272 583.096 337.93C583.096 336.59 584.187 335.499 585.528 335.499C586.869 335.499 587.959 336.59 587.959 337.93ZM550.138 307.907C551.064 307.907 551.922 307.631 552.657 307.178L581.237 335.758C580.904 336.414 580.698 337.145 580.698 337.93C580.698 340.594 582.865 342.761 585.528 342.761C588.19 342.761 590.359 340.594 590.359 337.93C590.359 335.266 588.19 333.1 585.528 333.1C584.52 333.1 583.587 333.411 582.812 333.94L554.32 305.449C554.721 304.744 554.969 303.942 554.969 303.076C554.969 300.412 552.802 298.244 550.138 298.244C547.476 298.244 545.309 300.412 545.309 303.076C545.309 305.739 547.476 307.907 550.138 307.907Z" fill="url(#paint13_linear_947_72)" fill-opacity="0.2"/>
<path d="M602.211 390.742C600.871 390.742 599.78 389.651 599.78 388.31C599.78 386.97 600.871 385.879 602.211 385.879C603.552 385.879 604.642 386.97 604.642 388.31C604.642 389.651 603.552 390.742 602.211 390.742ZM602.211 383.479C599.964 383.479 598.088 385.029 597.55 387.11H523.494V409.569H525.893V389.51H597.55C598.088 391.591 599.964 393.14 602.211 393.14C604.874 393.14 607.041 390.973 607.041 388.31C607.041 385.646 604.874 383.479 602.211 383.479Z" fill="url(#paint14_linear_947_72)" fill-opacity="0.2"/>
<path d="M287.812 241.762C289.153 241.762 290.243 242.853 290.243 244.193C290.243 245.534 289.153 246.625 287.812 246.625C286.472 246.625 285.381 245.534 285.381 244.193C285.381 242.853 286.472 241.762 287.812 241.762ZM286.624 248.858V262.868L265.83 282.93V348.561H268.23V283.949L289.023 263.886V248.852C291.099 248.31 292.643 246.437 292.643 244.193C292.643 241.531 290.476 239.363 287.812 239.363C285.148 239.363 282.982 241.531 282.982 244.193C282.982 246.445 284.536 248.326 286.624 248.858Z" fill="url(#paint15_linear_947_72)" fill-opacity="0.2"/>
<path d="M273.174 244.194C273.174 242.853 274.265 241.762 275.605 241.762C276.946 241.762 278.036 242.853 278.036 244.194C278.036 245.534 276.946 246.625 275.605 246.625C274.265 246.625 273.174 245.534 273.174 244.194ZM256.023 283.95L276.816 263.886V248.851C278.892 248.309 280.436 246.437 280.436 244.194C280.436 241.53 278.269 239.363 275.605 239.363C272.941 239.363 270.774 241.53 270.774 244.194C270.774 246.444 272.329 248.325 274.416 248.859V262.867L253.623 282.93V348.56H256.023V283.95Z" fill="url(#paint16_linear_947_72)" fill-opacity="0.2"/>
<path d="M234.641 281.587C235.982 281.587 237.072 282.678 237.072 284.019C237.072 285.359 235.982 286.45 234.641 286.45C233.301 286.45 232.21 285.359 232.21 284.019C232.21 282.678 233.301 281.587 234.641 281.587ZM233.441 288.681V332.317L219.109 346.649V418.674H221.509V347.643L235.841 333.311V288.681C237.922 288.143 239.471 286.266 239.471 284.019C239.471 281.355 237.304 279.189 234.641 279.189C231.977 279.189 229.81 281.355 229.81 284.019C229.81 286.266 231.359 288.143 233.441 288.681Z" fill="url(#paint17_linear_947_72)" fill-opacity="0.2"/>
<path d="M342.755 238.131C344.096 238.131 345.187 239.222 345.187 240.562C345.187 241.903 344.096 242.994 342.755 242.994C341.415 242.994 340.324 241.903 340.324 240.562C340.324 239.222 341.415 238.131 342.755 238.131ZM341.555 245.224V310.826H292.199V349.988H294.599V313.225H343.955V245.224C346.037 244.687 347.586 242.809 347.586 240.562C347.586 237.898 345.419 235.733 342.755 235.733C340.091 235.733 337.924 237.898 337.924 240.562C337.924 242.809 339.473 244.687 341.555 245.224Z" fill="url(#paint18_linear_947_72)" fill-opacity="0.2"/>
<path d="M443.341 238.131C444.681 238.131 445.772 239.222 445.772 240.562C445.772 241.903 444.681 242.994 443.341 242.994C442 242.994 440.908 241.903 440.908 240.562C440.908 239.222 442 238.131 443.341 238.131ZM442.141 245.225V273.374H392.324V287.65H394.725V275.772H444.54V245.224C446.622 244.687 448.171 242.81 448.171 240.562C448.171 237.899 446.004 235.733 443.341 235.733C440.677 235.733 438.51 237.899 438.51 240.562C438.51 242.81 440.059 244.687 442.141 245.225Z" fill="url(#paint19_linear_947_72)" fill-opacity="0.2"/>
<path d="M453.236 252.655C454.577 252.655 455.667 253.745 455.667 255.087C455.667 256.427 454.577 257.518 453.236 257.518C451.896 257.518 450.805 256.427 450.805 255.087C450.805 253.745 451.896 252.655 453.236 252.655ZM452.037 259.748V287.649H454.436V259.748C456.517 259.211 458.066 257.334 458.066 255.087C458.066 252.424 455.899 250.256 453.236 250.256C450.573 250.256 448.406 252.424 448.406 255.087C448.406 257.334 449.955 259.211 452.037 259.748Z" fill="url(#paint20_linear_947_72)" fill-opacity="0.2"/>
<path d="M463.799 252.655C465.139 252.655 466.23 253.745 466.23 255.087C466.23 256.427 465.139 257.518 463.799 257.518C462.458 257.518 461.367 256.427 461.367 255.087C461.367 253.745 462.458 252.655 463.799 252.655ZM462.599 259.748V287.649H464.998V259.748C467.079 259.211 468.628 257.334 468.628 255.087C468.628 252.424 466.461 250.256 463.799 250.256C461.136 250.256 458.969 252.424 458.969 255.087C458.969 257.334 460.518 259.211 462.599 259.748Z" fill="url(#paint21_linear_947_72)" fill-opacity="0.2"/>
<path d="M391.557 245.393C392.897 245.393 393.988 246.484 393.988 247.824C393.988 249.165 392.897 250.256 391.557 250.256C390.217 250.256 389.126 249.165 389.126 247.824C389.126 246.484 390.217 245.393 391.557 245.393ZM387.094 249.667L362.111 268.829V326.89H311.029V352.209H313.429V329.29H364.511V270.014L388.55 251.574C389.378 252.24 390.415 252.655 391.557 252.655C394.221 252.655 396.387 250.488 396.387 247.824C396.387 245.162 394.221 242.994 391.557 242.994C388.894 242.994 386.727 245.162 386.727 247.824C386.727 248.476 386.859 249.098 387.094 249.667Z" fill="url(#paint22_linear_947_72)" fill-opacity="0.2"/>
<path d="M275.375 443.877C276.715 443.877 277.806 444.967 277.806 446.308C277.806 447.649 276.715 448.74 275.375 448.74C274.034 448.74 272.943 447.649 272.943 446.308C272.943 444.967 274.034 443.877 275.375 443.877ZM304.84 443.877C306.18 443.877 307.27 444.967 307.27 446.308C307.27 447.649 306.18 448.74 304.84 448.74C303.498 448.74 302.407 447.649 302.407 446.308C302.407 444.967 303.498 443.877 304.84 443.877ZM275.375 451.138C277.622 451.138 279.499 449.589 280.037 447.508H300.177C300.715 449.589 302.593 451.138 304.84 451.138C307.502 451.138 309.669 448.971 309.669 446.308C309.669 443.646 307.502 441.479 304.84 441.479C302.593 441.479 300.715 443.027 300.177 445.108H280.037C279.499 443.027 277.622 441.479 275.375 441.479C272.711 441.479 270.545 443.646 270.545 446.308C270.545 448.971 272.711 451.138 275.375 451.138Z" fill="url(#paint23_linear_947_72)" fill-opacity="0.2"/>
<path d="M165.128 403.23C166.468 403.23 167.559 404.319 167.559 405.661C167.559 407.002 166.468 408.094 165.128 408.094C163.787 408.094 162.697 407.002 162.697 405.661C162.697 404.319 163.787 403.23 165.128 403.23ZM165.128 410.492C165.558 410.492 165.969 410.417 166.367 410.31L193.919 437.863H235.974V435.463H194.913L168.532 409.084C169.412 408.208 169.958 406.997 169.958 405.661C169.958 402.998 167.791 400.831 165.128 400.831C162.464 400.831 160.297 402.998 160.297 405.661C160.297 408.325 162.464 410.492 165.128 410.492Z" fill="url(#paint24_linear_947_72)" fill-opacity="0.2"/>
<path d="M165.128 418.038C166.468 418.038 167.559 419.128 167.559 420.469C167.559 421.81 166.468 422.901 165.128 422.901C163.787 422.901 162.697 421.81 162.697 420.469C162.697 419.128 163.787 418.038 165.128 418.038ZM165.128 425.299C165.833 425.299 166.5 425.139 167.105 424.865L193.919 451.68H235.974V449.28H194.913L168.982 423.35C169.587 422.543 169.958 421.553 169.958 420.469C169.958 417.807 167.791 415.638 165.128 415.638C162.464 415.638 160.297 417.807 160.297 420.469C160.297 423.132 162.464 425.299 165.128 425.299Z" fill="url(#paint25_linear_947_72)" fill-opacity="0.2"/>
<path d="M162.695 437.056C162.695 435.716 163.786 434.625 165.127 434.625C166.467 434.625 167.558 435.716 167.558 437.056C167.558 437.475 167.443 437.864 167.255 438.208L166.278 439.185C165.934 439.371 165.546 439.488 165.127 439.488C163.786 439.488 162.695 438.397 162.695 437.056ZM167.589 441.189L193.918 467.518H235.973V465.118H194.912L169.278 439.485C169.698 438.769 169.958 437.945 169.958 437.056C169.958 434.394 167.791 432.225 165.127 432.225C162.464 432.225 160.297 434.394 160.297 437.056C160.297 439.719 162.464 441.886 165.127 441.886C166.03 441.886 166.866 441.622 167.589 441.189Z" fill="url(#paint26_linear_947_72)" fill-opacity="0.2"/>
<path d="M168.758 479.684C167.417 479.684 166.326 478.594 166.326 477.253C166.326 475.912 167.417 474.821 168.758 474.821C170.098 474.821 171.189 475.912 171.189 477.253C171.189 478.594 170.098 479.684 168.758 479.684ZM168.758 472.422C166.094 472.422 163.928 474.589 163.928 477.253C163.928 479.915 166.094 482.083 168.758 482.083C171.005 482.083 172.882 480.534 173.419 478.453H239.706V476.053H173.419C172.882 473.972 171.005 472.422 168.758 472.422Z" fill="url(#paint27_linear_947_72)" fill-opacity="0.2"/>
<path d="M182.259 490.536C180.918 490.536 179.827 489.446 179.827 488.104C179.827 486.764 180.918 485.673 182.259 485.673C183.599 485.673 184.69 486.764 184.69 488.104C184.69 489.446 183.599 490.536 182.259 490.536ZM182.259 483.273C179.595 483.273 177.428 485.44 177.428 488.104C177.428 490.767 179.595 492.934 182.259 492.934C184.506 492.934 186.383 491.385 186.92 489.304H239.705V486.904H186.92C186.383 484.823 184.506 483.273 182.259 483.273Z" fill="url(#paint28_linear_947_72)" fill-opacity="0.2"/>
<path d="M277.026 571.742C275.686 571.742 274.595 570.651 274.595 569.309C274.595 567.969 275.686 566.878 277.026 566.878C278.367 566.878 279.458 567.969 279.458 569.309C279.458 570.651 278.367 571.742 277.026 571.742ZM278.226 564.648V487.405H275.826V564.648C273.744 565.186 272.195 567.063 272.195 569.309C272.195 571.973 274.362 574.14 277.026 574.14C279.69 574.14 281.856 571.973 281.856 569.309C281.856 567.063 280.307 565.186 278.226 564.648Z" fill="url(#paint29_linear_947_72)" fill-opacity="0.2"/>
<path d="M318.403 497.798C317.063 497.798 315.972 496.707 315.972 495.365C315.972 494.025 317.063 492.934 318.403 492.934C319.744 492.934 320.834 494.025 320.834 495.365C320.834 496.707 319.744 497.798 318.403 497.798ZM318.403 490.536C315.739 490.536 313.572 492.703 313.572 495.365C313.572 497.617 315.127 499.497 317.214 500.032V558.385L290.418 585.182L292.114 586.877L319.614 559.378V500.024C321.689 499.484 323.233 497.609 323.233 495.365C323.233 492.703 321.067 490.536 318.403 490.536Z" fill="url(#paint30_linear_947_72)" fill-opacity="0.2"/>
<path d="M330.62 462.27C329.28 462.27 328.189 461.18 328.189 459.839C328.189 458.498 329.28 457.406 330.62 457.406C331.961 457.406 333.051 458.498 333.051 459.839C333.051 461.18 331.961 462.27 330.62 462.27ZM331.808 455.174V441.165L352.602 421.101V355.472H350.202V420.083L329.409 440.147V455.18C327.333 455.721 325.789 457.595 325.789 459.839C325.789 462.501 327.956 464.668 330.62 464.668C333.283 464.668 335.451 462.501 335.451 459.839C335.451 457.588 333.896 455.707 331.808 455.174Z" fill="url(#paint31_linear_947_72)" fill-opacity="0.2"/>
<path d="M402.159 387.804C402.159 389.144 401.069 390.235 399.728 390.235C398.387 390.235 397.296 389.144 397.296 387.804C397.296 386.463 398.387 385.373 399.728 385.373C401.069 385.373 402.159 386.463 402.159 387.804ZM436.332 324.799H398.44V383.169C396.403 383.738 394.896 385.588 394.896 387.804C394.896 390.467 397.064 392.634 399.728 392.634C402.39 392.634 404.557 390.467 404.557 387.804C404.557 385.524 402.966 383.619 400.839 383.115V327.198H436.332V324.799Z" fill="url(#paint32_linear_947_72)" fill-opacity="0.2"/>
<path d="M413.352 387.804C413.352 389.144 412.261 390.235 410.921 390.235C409.58 390.235 408.488 389.144 408.488 387.804C408.488 386.463 409.58 385.373 410.921 385.373C412.261 385.373 413.352 386.463 413.352 387.804ZM436.333 333.163H409.589V383.183C407.575 383.766 406.09 385.605 406.09 387.804C406.09 390.467 408.257 392.634 410.921 392.634C413.584 392.634 415.751 390.467 415.751 387.804C415.751 385.507 414.138 383.589 411.987 383.1V335.562H436.333V333.163Z" fill="url(#paint33_linear_947_72)" fill-opacity="0.2"/>
<path d="M392.622 408.094C391.282 408.094 390.19 407.003 390.19 405.661C390.19 404.321 391.282 403.23 392.622 403.23C393.963 403.23 395.053 404.321 395.053 405.661C395.053 407.003 393.963 408.094 392.622 408.094ZM397.283 404.461C396.745 402.38 394.869 400.831 392.622 400.831C389.958 400.831 387.791 402.998 387.791 405.661C387.791 408.325 389.958 410.492 392.622 410.492C394.869 410.492 396.746 408.943 397.283 406.861H424.759V344.551H434.175V342.151H422.36V404.461H397.283Z" fill="url(#paint34_linear_947_72)" fill-opacity="0.2"/>
<path d="M392.862 436.523C391.522 436.523 390.43 435.433 390.43 434.092C390.43 432.75 391.522 431.66 392.862 431.66C394.203 431.66 395.294 432.75 395.294 434.092C395.294 435.433 394.203 436.523 392.862 436.523ZM469.238 417.326H416.156L396.555 431.016C395.668 429.953 394.352 429.261 392.862 429.261C390.198 429.261 388.031 431.428 388.031 434.092C388.031 436.755 390.198 438.922 392.862 438.922C395.525 438.922 397.692 436.755 397.692 434.092C397.692 433.79 397.657 433.496 397.604 433.21L416.911 419.726H469.238V417.326Z" fill="url(#paint35_linear_947_72)" fill-opacity="0.2"/>
<path d="M392.862 447.889C391.522 447.889 390.43 446.799 390.43 445.458C390.43 444.116 391.522 443.027 392.862 443.027C394.203 443.027 395.294 444.116 395.294 445.458C395.294 446.799 394.203 447.889 392.862 447.889ZM469.238 430.731V428.331H416.156L396.366 442.153C395.485 441.218 394.245 440.627 392.862 440.627C390.198 440.627 388.031 442.794 388.031 445.458C388.031 448.121 390.198 450.289 392.862 450.289C395.525 450.289 397.692 448.121 397.692 445.458C397.692 445.045 397.625 444.651 397.527 444.268L416.911 430.731H469.238Z" fill="url(#paint36_linear_947_72)" fill-opacity="0.2"/>
<path d="M392.862 460.016C391.522 460.016 390.43 458.926 390.43 457.585C390.43 456.244 391.522 455.153 392.862 455.153C394.203 455.153 395.294 456.244 395.294 457.585C395.294 458.926 394.203 460.016 392.862 460.016ZM416.831 441.887H469.159V439.488H416.076L395.727 453.7L395.759 453.743C394.949 453.13 393.952 452.754 392.862 452.754C390.198 452.754 388.031 454.921 388.031 457.585C388.031 460.248 390.198 462.415 392.862 462.415C395.525 462.415 397.692 460.248 397.692 457.585C397.692 456.864 397.524 456.185 397.239 455.571L416.831 441.887Z" fill="url(#paint37_linear_947_72)" fill-opacity="0.2"/>
<path d="M382.332 236.063C383.672 236.063 384.763 237.154 384.763 238.495C384.763 239.835 383.672 240.926 382.332 240.926C380.991 240.926 379.901 239.835 379.901 238.495C379.901 237.154 380.991 236.063 382.332 236.063ZM300.535 351.335H302.935V321.671H354.017V262.389L379.59 242.464C380.371 243.004 381.314 243.326 382.332 243.326C384.996 243.326 387.163 241.159 387.163 238.495C387.163 235.831 384.996 233.665 382.332 233.665C379.668 233.665 377.501 235.831 377.501 238.495C377.501 239.269 377.702 239.991 378.027 240.641L351.617 261.217V319.272H300.535V351.335Z" fill="url(#paint38_linear_947_72)" fill-opacity="0.2"/>
<path d="M429.745 240.562C429.745 239.222 430.835 238.131 432.176 238.131C433.517 238.131 434.607 239.222 434.607 240.562C434.607 241.902 433.517 242.993 432.176 242.993C430.835 242.993 429.745 241.902 429.745 240.562ZM433.376 245.223C435.457 244.686 437.006 242.809 437.006 240.562C437.006 237.898 434.839 235.732 432.176 235.732C429.513 235.732 427.346 237.898 427.346 240.562C427.346 242.809 428.895 244.686 430.978 245.223V266.575H381.133V287.649H383.531V268.974H433.376V245.223Z" fill="url(#paint39_linear_947_72)" fill-opacity="0.2"/>
<path d="M534.76 359.619C534.76 360.959 533.669 362.05 532.327 362.05C530.987 362.05 529.896 360.959 529.896 359.619C529.896 358.278 530.987 357.187 532.327 357.187C533.669 357.187 534.76 358.278 534.76 359.619ZM436.332 299.954H482.321L531.127 331.323V354.957C529.046 355.494 527.497 357.372 527.497 359.619C527.497 362.283 529.665 364.45 532.327 364.45C534.991 364.45 537.158 362.283 537.158 359.619C537.158 357.372 535.608 355.494 533.526 354.957V330.013L483.324 297.746L483.027 297.556H436.332V299.954Z" fill="url(#paint40_linear_947_72)" fill-opacity="0.2"/>
<path d="M462.166 392.501C462.166 393.842 461.076 394.933 459.735 394.933C458.394 394.933 457.303 393.842 457.303 392.501C457.303 391.161 458.394 390.07 459.735 390.07C461.076 390.07 462.166 391.161 462.166 392.501ZM436.332 359.488V361.887H458.967V387.749C456.669 388.119 454.905 390.1 454.905 392.501C454.905 395.164 457.072 397.331 459.735 397.331C462.397 397.331 464.564 395.164 464.564 392.501C464.564 390.413 463.225 388.647 461.367 387.974V359.488H436.332Z" fill="url(#paint41_linear_947_72)" fill-opacity="0.2"/>
<path d="M481.926 468.68C481.926 470.021 480.837 471.111 479.495 471.111C478.155 471.111 477.063 470.021 477.063 468.68C477.063 467.34 478.155 466.249 479.495 466.249C480.837 466.249 481.926 467.34 481.926 468.68ZM478.295 409.063V464.019C476.213 464.556 474.664 466.433 474.664 468.68C474.664 471.344 476.831 473.511 479.495 473.511C482.158 473.511 484.325 471.344 484.325 468.68C484.325 466.433 482.776 464.557 480.694 464.019V409.063H478.295Z" fill="url(#paint42_linear_947_72)" fill-opacity="0.2"/>
<path d="M492.62 468.68C492.62 470.021 491.531 471.111 490.189 471.111C488.849 471.111 487.758 470.021 487.758 468.68C487.758 467.34 488.849 466.249 490.189 466.249C491.531 466.249 492.62 467.34 492.62 468.68ZM488.989 409.47V464.019C486.908 464.557 485.359 466.433 485.359 468.68C485.359 471.344 487.526 473.511 490.189 473.511C492.852 473.511 495.019 471.344 495.019 468.68C495.019 466.433 493.47 464.557 491.388 464.019V409.47H488.989Z" fill="url(#paint43_linear_947_72)" fill-opacity="0.2"/>
<path d="M567.432 354.538C567.432 355.879 566.342 356.969 565.001 356.969C563.66 356.969 562.569 355.879 562.569 354.538C562.569 353.198 563.66 352.107 565.001 352.107C566.342 352.107 567.432 353.198 567.432 354.538ZM478.941 266.708V289.182H481.341V269.108H526.126V315.941L561.732 351.004C560.778 351.887 560.171 353.139 560.171 354.538C560.171 357.202 562.338 359.369 565.001 359.369C567.663 359.369 569.83 357.202 569.83 354.538C569.83 351.875 567.663 349.708 565.001 349.708C564.642 349.708 564.294 349.753 563.957 349.828L528.524 314.937V266.708H478.941Z" fill="url(#paint44_linear_947_72)" fill-opacity="0.2"/>
<path d="M574.429 343.08C575.769 343.08 576.86 344.171 576.86 345.511C576.86 346.852 575.769 347.944 574.429 347.944C573.088 347.944 571.996 346.852 571.996 345.511C571.996 344.171 573.088 343.08 574.429 343.08ZM474.162 261.791H535.209V309.39L569.787 344.245C569.675 344.651 569.598 345.071 569.598 345.511C569.598 348.175 571.765 350.342 574.429 350.342C577.091 350.342 579.258 348.175 579.258 345.511C579.258 342.848 577.091 340.681 574.429 340.681C573.101 340.681 571.899 341.22 571.025 342.087L537.608 308.401V259.391H471.764V290.063H474.162V261.791Z" fill="url(#paint45_linear_947_72)" fill-opacity="0.2"/>
<path d="M602.21 375.606C603.55 375.606 604.641 376.696 604.641 378.037C604.641 379.378 603.55 380.469 602.21 380.469C600.869 380.469 599.778 379.378 599.778 378.037C599.778 376.696 600.869 375.606 602.21 375.606ZM514.949 376.838V409.063H517.348V379.237H597.548C598.086 381.318 599.963 382.867 602.21 382.867C604.872 382.867 607.039 380.7 607.039 378.037C607.039 375.375 604.872 373.208 602.21 373.208C599.963 373.208 598.086 374.757 597.548 376.838H514.949Z" fill="url(#paint46_linear_947_72)" fill-opacity="0.2"/>
<path d="M579.015 365.364C580.355 365.364 581.447 366.453 581.447 367.795C581.447 369.135 580.355 370.226 579.015 370.226C577.674 370.226 576.584 369.135 576.584 367.795C576.584 366.453 577.674 365.364 579.015 365.364ZM575.01 370.494C575.879 371.779 577.351 372.626 579.015 372.626C581.679 372.626 583.846 370.459 583.846 367.795C583.846 365.132 581.679 362.964 579.015 362.964C576.352 362.964 574.185 365.132 574.185 367.795C574.185 367.898 574.208 367.994 574.214 368.094H510.916V340.698H483.125V343.097H508.518V370.494H575.01Z" fill="url(#paint47_linear_947_72)" fill-opacity="0.2"/>
<path d="M311.231 399.764C311.231 401.104 310.14 402.195 308.8 402.195C307.46 402.195 306.369 401.104 306.369 399.764C306.369 398.861 306.868 398.08 307.6 397.661V397.999H309.999V397.661C310.731 398.08 311.231 398.861 311.231 399.764ZM307.6 395.101C305.519 395.639 303.969 397.517 303.969 399.764C303.969 402.427 306.136 404.594 308.8 404.594C311.463 404.594 313.63 402.427 313.63 399.764C313.63 397.517 312.081 395.639 309.999 395.101V365.844H239.705V368.243H307.6V395.101Z" fill="url(#paint48_linear_947_72)" fill-opacity="0.2"/>
<path d="M298.895 399.764C298.895 401.104 297.804 402.195 296.464 402.195C295.123 402.195 294.032 401.104 294.032 399.764C294.032 398.711 294.707 397.821 295.644 397.484V398.117H298.044V397.931C298.56 398.377 298.895 399.029 298.895 399.764ZM235.973 374.429V376.828H295.644V395.015C293.372 395.407 291.633 397.38 291.633 399.764C291.633 402.427 293.8 404.594 296.464 404.594C299.126 404.594 301.293 402.427 301.293 399.764C301.293 397.656 299.93 395.878 298.044 395.22V374.429H235.973Z" fill="url(#paint49_linear_947_72)" fill-opacity="0.2"/>
<path d="M250.07 396.601C250.07 395.261 251.161 394.17 252.501 394.17C253.842 394.17 254.933 395.261 254.933 396.601C254.933 397.942 253.842 399.034 252.501 399.034C251.161 399.034 250.07 397.942 250.07 396.601ZM239.705 444.258V446.657H253.701V401.264C255.782 400.726 257.332 398.848 257.332 396.601C257.332 393.938 255.165 391.771 252.501 391.771C249.837 391.771 247.672 393.938 247.672 396.601C247.672 398.848 249.219 400.726 251.301 401.264V444.258H239.705Z" fill="url(#paint50_linear_947_72)" fill-opacity="0.2"/>
<path d="M259.384 409.293C259.384 407.952 260.475 406.86 261.816 406.86C263.157 406.86 264.248 407.952 264.248 409.293C264.248 410.431 263.458 411.382 262.4 411.645H261.231C260.173 411.382 259.384 410.431 259.384 409.293ZM263.015 413.954C265.098 413.416 266.647 411.54 266.647 409.293C266.647 406.629 264.48 404.462 261.816 404.462C259.153 404.462 256.986 406.629 256.986 409.293C256.986 411.54 258.535 413.416 260.617 413.954V452.554H239.705V454.954H263.015V413.954Z" fill="url(#paint51_linear_947_72)" fill-opacity="0.2"/>
<path d="M282.943 399.764C282.943 401.104 281.852 402.195 280.512 402.195C279.171 402.195 278.081 401.104 278.081 399.764C278.081 398.423 279.171 397.331 280.512 397.331C281.852 397.331 282.943 398.423 282.943 399.764ZM279.312 395.101C277.231 395.639 275.681 397.517 275.681 399.764C275.681 402.427 277.848 404.594 280.512 404.594C283.176 404.594 285.342 402.427 285.342 399.764C285.342 397.517 283.793 395.639 281.712 395.101V383.676H239.705V386.076H279.312V395.101Z" fill="url(#paint52_linear_947_72)" fill-opacity="0.2"/>
<path d="M221.444 281.587C222.784 281.587 223.875 282.678 223.875 284.019C223.875 285.359 222.784 286.45 221.444 286.45C220.103 286.45 219.013 285.359 219.013 284.019C219.013 282.678 220.103 281.587 221.444 281.587ZM220.244 288.681V332.317L205.912 346.649V418.674H208.312V347.643L222.644 333.311V288.681C224.725 288.143 226.274 286.266 226.274 284.019C226.274 281.355 224.108 279.189 221.444 279.189C218.78 279.189 216.613 281.355 216.613 284.019C216.613 286.266 218.162 288.143 220.244 288.681Z" fill="url(#paint53_linear_947_72)" fill-opacity="0.2"/>
<path d="M246.967 552.113C245.626 552.113 244.535 551.024 244.535 549.682C244.535 548.341 245.626 547.249 246.967 547.249C248.307 547.249 249.398 548.341 249.398 549.682C249.398 551.024 248.307 552.113 246.967 552.113ZM260.616 533.794L249.061 545.348C248.425 545.039 247.72 544.851 246.967 544.851C244.303 544.851 242.137 547.018 242.137 549.682C242.137 552.345 244.303 554.512 246.967 554.512C249.631 554.512 251.798 552.345 251.798 549.682C251.798 548.644 251.461 547.687 250.903 546.898L263.015 534.786V485.499H260.616V533.794Z" fill="url(#paint54_linear_947_72)" fill-opacity="0.2"/>
<path d="M325.788 354.63V421.138H294.242" stroke="url(#paint55_linear_947_72)" stroke-opacity="0.8" stroke-width="3" stroke-miterlimit="10"/>
<path d="M240 487H292V639.869L269.123 663.464V816" stroke="url(#paint56_linear_947_72)" stroke-opacity="0.8" stroke-width="3" stroke-miterlimit="10"/>
<path d="M307.6 545.642C307.6 546.983 306.509 548.074 305.169 548.074C303.828 548.074 302.738 546.983 302.738 545.642C302.738 544.302 303.828 543.211 305.169 543.211C306.509 543.211 307.6 544.302 307.6 545.642ZM303.969 540.981C301.888 541.519 300.338 543.395 300.338 545.642C300.338 548.305 302.505 550.472 305.169 550.472C307.833 550.472 309.999 548.305 309.999 545.642C309.999 543.395 308.451 541.519 306.369 540.981V463.96H239.705V466.359H303.969V540.981Z" fill="url(#paint57_linear_947_72)" fill-opacity="0.2"/>
<path d="M182.517 338.975C182.977 338.515 183.588 338.263 184.236 338.263C184.887 338.263 185.497 338.515 185.956 338.975C186.415 339.434 186.667 340.045 186.667 340.695C186.667 341.344 186.415 341.954 185.956 342.413C185.038 343.333 183.436 343.333 182.517 342.413C182.058 341.954 181.805 341.344 181.805 340.695C181.805 340.045 182.058 339.434 182.517 338.975ZM203.352 318.14C203.811 317.681 204.422 317.429 205.07 317.429C205.721 317.429 206.331 317.681 206.79 318.14C207.738 319.088 207.738 320.631 206.79 321.579C205.873 322.499 204.27 322.499 203.352 321.579C202.892 321.121 202.639 320.51 202.639 319.86C202.639 319.211 202.892 318.6 203.352 318.14ZM184.236 345.524C185.527 345.524 186.74 345.023 187.653 344.11C189.242 342.521 189.473 340.098 188.381 338.246L202.622 324.005C203.359 324.442 204.193 324.69 205.07 324.69C206.361 324.69 207.574 324.188 208.487 323.276C210.37 321.392 210.37 318.327 208.487 316.445C207.574 315.532 206.361 315.029 205.07 315.029C203.781 315.029 202.568 315.532 201.656 316.444C200.744 317.356 200.241 318.57 200.241 319.86C200.241 320.739 200.49 321.573 200.925 322.309L186.686 336.55C185.95 336.113 185.115 335.864 184.236 335.864C182.947 335.864 181.733 336.367 180.821 337.278C179.908 338.191 179.406 339.404 179.406 340.695C179.406 341.985 179.908 343.197 180.821 344.11C181.733 345.023 182.947 345.524 184.236 345.524Z" fill="url(#paint58_linear_947_72)" fill-opacity="0.2"/>
<path d="M427.845 493.02C426.926 493.939 425.325 493.939 424.406 493.02C423.947 492.561 423.695 491.95 423.695 491.302C423.695 490.651 423.947 490.041 424.406 489.582C424.866 489.122 425.477 488.869 426.126 488.869C426.775 488.869 427.386 489.122 427.845 489.582C428.304 490.041 428.558 490.651 428.558 491.302C428.558 491.95 428.304 492.561 427.845 493.02ZM403.573 472.187C403.113 471.728 402.861 471.117 402.861 470.467C402.861 469.818 403.113 469.207 403.573 468.747C404.031 468.288 404.641 468.035 405.292 468.035C405.942 468.035 406.552 468.288 407.012 468.747C407.47 469.207 407.723 469.818 407.723 470.467C407.723 471.117 407.47 471.728 407.012 472.187C406.093 473.105 404.49 473.105 403.573 472.187ZM426.126 486.47C425.248 486.47 424.414 486.719 423.678 487.156L409.437 472.915C409.873 472.179 410.123 471.345 410.123 470.467C410.123 469.176 409.62 467.963 408.707 467.052C407.795 466.139 406.582 465.636 405.292 465.636C404.001 465.636 402.788 466.139 401.875 467.052C400.964 467.963 400.461 469.176 400.461 470.467C400.461 471.757 400.963 472.971 401.875 473.883C402.788 474.794 404.001 475.297 405.292 475.297C406.169 475.297 407.005 475.047 407.74 474.612L421.981 488.852C421.545 489.588 421.296 490.423 421.296 491.302C421.296 492.591 421.798 493.804 422.71 494.717C423.623 495.628 424.835 496.131 426.126 496.131C427.416 496.131 428.629 495.628 429.542 494.717C430.453 493.804 430.956 492.591 430.956 491.302C430.956 490.011 430.454 488.798 429.542 487.885C428.629 486.973 427.416 486.47 426.126 486.47Z" fill="url(#paint59_linear_947_72)" fill-opacity="0.2"/>
<path d="M604.051 438.102C603.133 439.021 601.53 439.021 600.612 438.102C600.153 437.643 599.9 437.032 599.9 436.384C599.9 435.733 600.153 435.123 600.612 434.664C601.071 434.206 601.682 433.952 602.331 433.952C602.981 433.952 603.592 434.204 604.051 434.664C604.511 435.123 604.764 435.733 604.764 436.384C604.764 437.032 604.511 437.643 604.051 438.102ZM579.365 416.855C578.417 415.907 578.417 414.365 579.365 413.416C579.825 412.957 580.435 412.704 581.085 412.704C581.735 412.704 582.346 412.957 582.805 413.416C583.753 414.365 583.753 415.907 582.805 416.855C581.886 417.773 580.285 417.775 579.365 416.855ZM605.747 432.967C604.834 432.056 603.622 431.553 602.331 431.553C601.453 431.553 600.619 431.802 599.883 432.239L585.229 417.584C586.321 415.731 586.089 413.31 584.5 411.719C583.588 410.807 582.375 410.305 581.085 410.305C579.794 410.305 578.581 410.807 577.668 411.719C575.785 413.604 575.785 416.668 577.668 418.551C578.581 419.464 579.794 419.967 581.085 419.967C581.963 419.967 582.798 419.717 583.533 419.281L598.186 433.935C597.75 434.671 597.502 435.505 597.502 436.384C597.502 437.673 598.005 438.886 598.916 439.798C599.829 440.712 601.042 441.213 602.331 441.213C603.622 441.213 604.834 440.71 605.747 439.798C606.659 438.886 607.162 437.673 607.162 436.384C607.162 435.093 606.659 433.88 605.747 432.967Z" fill="url(#paint60_linear_947_72)" fill-opacity="0.2"/>
<path d="M300.05 252.656C301.39 252.656 302.481 253.745 302.481 255.087C302.481 256.427 301.39 257.518 300.05 257.518C298.709 257.518 297.619 256.427 297.619 255.087C297.619 253.745 298.709 252.656 300.05 252.656ZM329.515 252.656C330.855 252.656 331.945 253.745 331.945 255.087C331.945 256.427 330.855 257.518 329.515 257.518C328.173 257.518 327.082 256.427 327.082 255.087C327.082 253.745 328.173 252.656 329.515 252.656ZM300.05 259.918C302.297 259.918 304.174 258.368 304.711 256.287H324.852C325.389 258.368 327.266 259.918 329.515 259.918C332.177 259.918 334.345 257.751 334.345 255.087C334.345 252.424 332.177 250.256 329.515 250.256C327.266 250.256 325.389 251.806 324.852 253.887H304.711C304.174 251.806 302.297 250.256 300.05 250.256C297.386 250.256 295.219 252.424 295.219 255.087C295.219 257.751 297.386 259.918 300.05 259.918Z" fill="url(#paint61_linear_947_72)" fill-opacity="0.2"/>
<path d="M436.332 288.512V409.063H537.158" stroke="url(#paint62_linear_947_72)" stroke-opacity="0.8" stroke-width="3" stroke-miterlimit="10"/>
<path d="M209.9 514.391H239.706V354.63H374.222V288.511H495.021" stroke="url(#paint63_linear_947_72)" stroke-opacity="0.8" stroke-width="3" stroke-miterlimit="10"/>
<path d="M239.706 421.057H190.195V389.511" stroke="url(#paint64_linear_947_72)" stroke-opacity="0.8" stroke-width="3" stroke-miterlimit="10"/>
<path d="M469.775 409.384V463.547H433.619" stroke="url(#paint65_linear_947_72)" stroke-opacity="0.8" stroke-width="3" stroke-miterlimit="10"/>
<path d="M435.191 341.876H489.425V371.705" stroke="url(#paint66_linear_947_72)" stroke-opacity="0.8" stroke-width="3" stroke-miterlimit="10"/>
<path d="M281.857 354.63V283.969H313.403" stroke="url(#paint67_linear_947_72)" stroke-opacity="0.8" stroke-width="3" stroke-miterlimit="10"/>
<path d="M345.707 841.756V782.408L376.351 751.764V616.258" stroke="url(#paint68_linear_947_72)" stroke-opacity="0.2" stroke-width="4" stroke-miterlimit="10"/>
<path d="M382.334 609.849C382.334 613.154 379.656 615.833 376.351 615.833C373.046 615.833 370.367 613.154 370.367 609.849C370.367 606.544 373.046 603.865 376.351 603.865C379.656 603.865 382.334 606.544 382.334 609.849Z" stroke="url(#paint69_linear_947_72)" stroke-opacity="0.2" stroke-width="4" stroke-miterlimit="10"/>
<path d="M510.619 612.976V668.948L479.975 699.593V741.484L509.511 771.021V854.354" stroke="url(#paint70_linear_947_72)" stroke-opacity="0.2" stroke-width="4" stroke-miterlimit="10"/>
<path d="M516.603 606.567C516.603 609.872 513.924 612.55 510.619 612.55C507.315 612.55 504.637 609.872 504.637 606.567C504.637 603.262 507.315 600.583 510.619 600.583C513.924 600.583 516.603 603.262 516.603 606.567Z" stroke="url(#paint71_linear_947_72)" stroke-opacity="0.2" stroke-width="4" stroke-miterlimit="10"/>
<path d="M370.189 857.635V798.288L400.834 767.644V632.138" stroke="url(#paint72_linear_947_72)" stroke-opacity="0.2" stroke-width="4" stroke-miterlimit="10"/>
<path d="M406.819 625.729C406.819 629.034 404.139 631.712 400.835 631.712C397.53 631.712 394.852 629.034 394.852 625.729C394.852 622.424 397.53 619.745 400.835 619.745C404.139 619.745 406.819 622.424 406.819 625.729Z" stroke="url(#paint73_linear_947_72)" stroke-opacity="0.2" stroke-width="4" stroke-miterlimit="10"/>
<path d="M395.84 904.574V845.226L426.484 814.582V679.076" stroke="url(#paint74_linear_947_72)" stroke-opacity="0.2" stroke-width="4" stroke-miterlimit="10"/>
<path d="M432.466 672.667C432.466 675.972 429.788 678.65 426.482 678.65C423.179 678.65 420.5 675.972 420.5 672.667C420.5 669.362 423.179 666.683 426.482 666.683C429.788 666.683 432.466 669.362 432.466 672.667Z" stroke="url(#paint75_linear_947_72)" stroke-opacity="0.2" stroke-width="4" stroke-miterlimit="10"/>
<path d="M435.791 998.692V939.346L466.435 908.701V773.195" stroke="url(#paint76_linear_947_72)" stroke-opacity="0.2" stroke-width="4" stroke-miterlimit="10"/>
<path d="M472.419 766.785C472.419 770.09 469.741 772.769 466.436 772.769C463.132 772.769 460.453 770.09 460.453 766.785C460.453 763.48 463.132 760.801 466.436 760.801C469.741 760.801 472.419 763.48 472.419 766.785Z" stroke="url(#paint77_linear_947_72)" stroke-opacity="0.2" stroke-width="4" stroke-miterlimit="10"/>
<path d="M539.162 881.084V677.698" stroke="url(#paint78_linear_947_72)" stroke-opacity="0.2" stroke-width="4" stroke-miterlimit="10"/>
<path d="M545.145 671.289C545.145 674.594 542.465 677.273 539.161 677.273C535.856 677.273 533.178 674.594 533.178 671.289C533.178 667.984 535.856 665.306 539.161 665.306C542.465 665.306 545.145 667.984 545.145 671.289Z" stroke="url(#paint79_linear_947_72)" stroke-opacity="0.2" stroke-width="4" stroke-miterlimit="10"/>
<path d="M569.832 841.756V782.408L600.476 751.764V616.258" stroke="url(#paint80_linear_947_72)" stroke-opacity="0.2" stroke-width="4" stroke-miterlimit="10"/>
<path d="M606.46 609.849C606.46 613.154 603.782 615.833 600.477 615.833C597.173 615.833 594.494 613.154 594.494 609.849C594.494 606.544 597.173 603.865 600.477 603.865C603.782 603.865 606.46 606.544 606.46 609.849Z" stroke="url(#paint81_linear_947_72)" stroke-opacity="0.2" stroke-width="4" stroke-miterlimit="10"/>
<path d="M594.316 857.635V798.288L624.961 767.644V632.138" stroke="url(#paint82_linear_947_72)" stroke-opacity="0.2" stroke-width="4" stroke-miterlimit="10"/>
<path d="M630.943 625.729C630.943 629.034 628.264 631.712 624.959 631.712C621.655 631.712 618.977 629.034 618.977 625.729C618.977 622.424 621.655 619.745 624.959 619.745C628.264 619.745 630.943 622.424 630.943 625.729Z" stroke="url(#paint83_linear_947_72)" stroke-opacity="0.2" stroke-width="4" stroke-miterlimit="10"/>
<path d="M619.965 904.574V845.226L650.609 814.582V679.076" stroke="url(#paint84_linear_947_72)" stroke-opacity="0.2" stroke-width="4" stroke-miterlimit="10"/>
<path d="M656.592 672.667C656.592 675.972 653.914 678.65 650.609 678.65C647.305 678.65 644.625 675.972 644.625 672.667C644.625 669.362 647.305 666.683 650.609 666.683C653.914 666.683 656.592 669.362 656.592 672.667Z" stroke="url(#paint85_linear_947_72)" stroke-opacity="0.2" stroke-width="4" stroke-miterlimit="10"/>
<path d="M659.918 998.692V939.346L690.561 908.701V773.195" stroke="url(#paint86_linear_947_72)" stroke-opacity="0.2" stroke-width="4" stroke-miterlimit="10"/>
<path d="M696.545 766.785C696.545 770.09 693.866 772.769 690.562 772.769C687.257 772.769 684.578 770.09 684.578 766.785C684.578 763.48 687.257 760.801 690.562 760.801C693.866 760.801 696.545 763.48 696.545 766.785Z" stroke="url(#paint87_linear_947_72)" stroke-opacity="0.2" stroke-width="4" stroke-miterlimit="10"/>
<path d="M79.3247 609.849C79.3247 613.154 76.6462 615.833 73.3411 615.833C70.0372 615.833 67.3574 613.154 67.3574 609.849C67.3574 606.544 70.0372 603.865 73.3411 603.865C76.6462 603.865 79.3247 606.544 79.3247 609.849Z" stroke="url(#paint88_linear_947_72)" stroke-opacity="0.2" stroke-width="4" stroke-miterlimit="10"/>
<path d="M207.611 612.976V668.948L176.967 699.593V741.484L206.503 771.021V854.354" stroke="url(#paint89_linear_947_72)" stroke-opacity="0.2" stroke-width="4" stroke-miterlimit="10"/>
<path d="M213.594 606.567C213.594 609.872 210.916 612.55 207.611 612.55C204.307 612.55 201.627 609.872 201.627 606.567C201.627 603.262 204.307 600.583 207.611 600.583C210.916 600.583 213.594 603.262 213.594 606.567Z" stroke="url(#paint90_linear_947_72)" stroke-opacity="0.2" stroke-width="4" stroke-miterlimit="10"/>
<path d="M67.1816 857.635V798.288L97.8258 767.644V632.138" stroke="url(#paint91_linear_947_72)" stroke-opacity="0.2" stroke-width="4" stroke-miterlimit="10"/>
<path d="M103.809 625.729C103.809 629.034 101.131 631.712 97.8254 631.712C94.5203 631.712 91.8418 629.034 91.8418 625.729C91.8418 622.424 94.5203 619.745 97.8254 619.745C101.131 619.745 103.809 622.424 103.809 625.729Z" stroke="url(#paint92_linear_947_72)" stroke-opacity="0.2" stroke-width="4" stroke-miterlimit="10"/>
<path d="M92.8301 904.574V845.226L123.474 814.582V679.076" stroke="url(#paint93_linear_947_72)" stroke-opacity="0.2" stroke-width="4" stroke-miterlimit="10"/>
<path d="M129.458 672.667C129.458 675.972 126.779 678.65 123.474 678.65C120.17 678.65 117.49 675.972 117.49 672.667C117.49 669.362 120.17 666.683 123.474 666.683C126.779 666.683 129.458 669.362 129.458 672.667Z" stroke="url(#paint94_linear_947_72)" stroke-opacity="0.2" stroke-width="4" stroke-miterlimit="10"/>
<path d="M132.783 998.692V939.346L163.427 908.701V773.195" stroke="url(#paint95_linear_947_72)" stroke-opacity="0.2" stroke-width="4" stroke-miterlimit="10"/>
<path d="M169.411 766.785C169.411 770.09 166.732 772.769 163.427 772.769C160.122 772.769 157.443 770.09 157.443 766.785C157.443 763.48 160.122 760.801 163.427 760.801C166.732 760.801 169.411 763.48 169.411 766.785Z" stroke="url(#paint96_linear_947_72)" stroke-opacity="0.2" stroke-width="4" stroke-miterlimit="10"/>
<path d="M236.152 881.084V677.698" stroke="url(#paint97_linear_947_72)" stroke-opacity="0.2" stroke-width="4" stroke-miterlimit="10"/>
<path d="M242.137 671.289C242.137 674.594 239.459 677.273 236.154 677.273C232.848 677.273 230.17 674.594 230.17 671.289C230.17 667.984 232.848 665.306 236.154 665.306C239.459 665.306 242.137 667.984 242.137 671.289Z" stroke="url(#paint98_linear_947_72)" stroke-opacity="0.2" stroke-width="4" stroke-miterlimit="10"/>
<path d="M269.105 702.769L324.392 647.482" stroke="url(#paint99_linear_947_72)" stroke-opacity="0.8" stroke-width="3" stroke-miterlimit="10"/>
<path d="M210.1 514.391C210.1 517.696 207.422 520.375 204.116 520.375C200.813 520.375 198.133 517.696 198.133 514.391C198.133 511.086 200.813 508.407 204.116 508.407C207.422 508.407 210.1 511.086 210.1 514.391Z" stroke="url(#paint100_linear_947_72)" stroke-opacity="0.8" stroke-width="3" stroke-miterlimit="10"/>
<path d="M196.178 383.676C196.178 386.981 193.5 389.66 190.195 389.66C186.889 389.66 184.211 386.981 184.211 383.676C184.211 380.371 186.889 377.692 190.195 377.692C193.5 377.692 196.178 380.371 196.178 383.676Z" stroke="url(#paint101_linear_947_72)" stroke-opacity="0.8" stroke-width="3" stroke-miterlimit="10"/>
<path d="M288.407 415.155C291.713 415.155 294.391 417.833 294.391 421.138C294.391 424.444 291.713 427.122 288.407 427.122C285.102 427.122 282.424 424.444 282.424 421.138C282.424 417.833 285.102 415.155 288.407 415.155Z" stroke="url(#paint102_linear_947_72)" stroke-opacity="0.8" stroke-width="3" stroke-miterlimit="10"/>
<path d="M428.193 457.857C431.498 457.857 434.176 460.535 434.176 463.841C434.176 467.144 431.498 469.824 428.193 469.824C424.888 469.824 422.209 467.144 422.209 463.841C422.209 460.535 424.888 457.857 428.193 457.857Z" stroke="url(#paint103_linear_947_72)" stroke-opacity="0.8" stroke-width="3" stroke-miterlimit="10"/>
<path d="M543.142 403.08C546.447 403.08 549.125 405.758 549.125 409.063C549.125 412.368 546.447 415.047 543.142 415.047C539.837 415.047 537.158 412.368 537.158 409.063C537.158 405.758 539.837 403.08 543.142 403.08Z" stroke="url(#paint104_linear_947_72)" stroke-opacity="0.8" stroke-width="3" stroke-miterlimit="10"/>
<path d="M483.779 376.556C483.779 373.251 486.458 370.572 489.763 370.572C493.067 370.572 495.745 373.251 495.745 376.556C495.745 379.861 493.067 382.54 489.763 382.54C486.458 382.54 483.779 379.861 483.779 376.556Z" stroke="url(#paint105_linear_947_72)" stroke-opacity="0.8" stroke-width="3" stroke-miterlimit="10"/>
<path d="M319.24 289.952C315.934 289.952 313.256 287.274 313.256 283.969C313.256 280.665 315.934 277.985 319.24 277.985C322.545 277.985 325.223 280.665 325.223 283.969C325.223 287.274 322.545 289.952 319.24 289.952Z" stroke="url(#paint106_linear_947_72)" stroke-opacity="0.8" stroke-width="3" stroke-miterlimit="10"/>
<path d="M501.003 294.496C497.698 294.496 495.02 291.817 495.02 288.512C495.02 285.207 497.698 282.528 501.003 282.528C504.308 282.528 506.987 285.207 506.987 288.512C506.987 291.817 504.308 294.496 501.003 294.496Z" stroke="url(#paint107_linear_947_72)" stroke-opacity="0.8" stroke-width="3" stroke-miterlimit="10"/>
<path d="M334.45 642.942C334.45 646.247 331.771 648.926 328.466 648.926C325.162 648.926 322.482 646.247 322.482 642.942C322.482 639.637 325.162 636.958 328.466 636.958C331.771 636.958 334.45 639.637 334.45 642.942Z" stroke="url(#paint108_linear_947_72)" stroke-opacity="0.8" stroke-width="3" stroke-miterlimit="10"/>
</g>
<defs>
<linearGradient id="paint0_linear_947_72" x1="363.203" y1="505.102" x2="543.875" y2="340.743" gradientUnits="userSpaceOnUse">
<stop stop-color="#754FFE"/>
<stop offset="0.9944" stop-color="#C812C1"/>
</linearGradient>
<linearGradient id="paint1_linear_947_72" x1="337.224" y1="522.596" x2="579.909" y2="342.542" gradientUnits="userSpaceOnUse">
<stop stop-color="#754FFE"/>
<stop offset="0.9944" stop-color="#C812C1"/>
</linearGradient>
<linearGradient id="paint2_linear_947_72" x1="308.197" y1="554.756" x2="407.578" y2="548.958" gradientUnits="userSpaceOnUse">
<stop stop-color="#754FFE"/>
<stop offset="0.9944" stop-color="#C812C1"/>
</linearGradient>
<linearGradient id="paint3_linear_947_72" x1="320.406" y1="569.705" x2="419.871" y2="564.729" gradientUnits="userSpaceOnUse">
<stop stop-color="#754FFE"/>
<stop offset="0.9944" stop-color="#C812C1"/>
</linearGradient>
<linearGradient id="paint4_linear_947_72" x1="326.945" y1="329.466" x2="465.89" y2="241.977" gradientUnits="userSpaceOnUse">
<stop stop-color="#754FFE"/>
<stop offset="0.9944" stop-color="#C812C1"/>
</linearGradient>
<linearGradient id="paint5_linear_947_72" x1="326.945" y1="455.344" x2="515.953" y2="424.521" gradientUnits="userSpaceOnUse">
<stop stop-color="#754FFE"/>
<stop offset="0.9944" stop-color="#C812C1"/>
</linearGradient>
<linearGradient id="paint6_linear_947_72" x1="341.676" y1="410.459" x2="628.287" y2="303.18" gradientUnits="userSpaceOnUse">
<stop stop-color="#754FFE"/>
<stop offset="0.9944" stop-color="#C812C1"/>
</linearGradient>
<linearGradient id="paint7_linear_947_72" x1="420.635" y1="423.308" x2="478.792" y2="416.348" gradientUnits="userSpaceOnUse">
<stop stop-color="#754FFE"/>
<stop offset="0.9944" stop-color="#C812C1"/>
</linearGradient>
<linearGradient id="paint8_linear_947_72" x1="390.574" y1="332.613" x2="465.936" y2="250.817" gradientUnits="userSpaceOnUse">
<stop stop-color="#754FFE"/>
<stop offset="0.9944" stop-color="#C812C1"/>
</linearGradient>
<linearGradient id="paint9_linear_947_72" x1="390.574" y1="343.469" x2="465.936" y2="261.674" gradientUnits="userSpaceOnUse">
<stop stop-color="#754FFE"/>
<stop offset="0.9944" stop-color="#C812C1"/>
</linearGradient>
<linearGradient id="paint10_linear_947_72" x1="407.718" y1="517.14" x2="683.921" y2="424.68" gradientUnits="userSpaceOnUse">
<stop stop-color="#754FFE"/>
<stop offset="0.9944" stop-color="#C812C1"/>
</linearGradient>
<linearGradient id="paint11_linear_947_72" x1="415.188" y1="501.23" x2="687.642" y2="391.662" gradientUnits="userSpaceOnUse">
<stop stop-color="#754FFE"/>
<stop offset="0.9944" stop-color="#C812C1"/>
</linearGradient>
<linearGradient id="paint12_linear_947_72" x1="359.437" y1="444.008" x2="596.088" y2="368.449" gradientUnits="userSpaceOnUse">
<stop stop-color="#754FFE"/>
<stop offset="0.9944" stop-color="#C812C1"/>
</linearGradient>
<linearGradient id="paint13_linear_947_72" x1="495.905" y1="379.488" x2="654.293" y2="341.407" gradientUnits="userSpaceOnUse">
<stop stop-color="#754FFE"/>
<stop offset="0.9944" stop-color="#C812C1"/>
</linearGradient>
<linearGradient id="paint14_linear_947_72" x1="431.874" y1="431.093" x2="628.675" y2="281.365" gradientUnits="userSpaceOnUse">
<stop stop-color="#754FFE"/>
<stop offset="0.9944" stop-color="#C812C1"/>
</linearGradient>
<linearGradient id="paint15_linear_947_72" x1="236.426" y1="438.649" x2="335.807" y2="432.851" gradientUnits="userSpaceOnUse">
<stop stop-color="#754FFE"/>
<stop offset="0.9944" stop-color="#C812C1"/>
</linearGradient>
<linearGradient id="paint16_linear_947_72" x1="224.219" y1="438.648" x2="323.6" y2="432.851" gradientUnits="userSpaceOnUse">
<stop stop-color="#754FFE"/>
<stop offset="0.9944" stop-color="#C812C1"/>
</linearGradient>
<linearGradient id="paint17_linear_947_72" x1="196.78" y1="533.75" x2="272.415" y2="531.127" gradientUnits="userSpaceOnUse">
<stop stop-color="#754FFE"/>
<stop offset="0.9944" stop-color="#C812C1"/>
</linearGradient>
<linearGradient id="paint18_linear_947_72" x1="231.459" y1="444.248" x2="434.751" y2="420.835" gradientUnits="userSpaceOnUse">
<stop stop-color="#754FFE"/>
<stop offset="0.9944" stop-color="#C812C1"/>
</linearGradient>
<linearGradient id="paint19_linear_947_72" x1="331.081" y1="330.482" x2="526.044" y2="280.657" gradientUnits="userSpaceOnUse">
<stop stop-color="#754FFE"/>
<stop offset="0.9944" stop-color="#C812C1"/>
</linearGradient>
<linearGradient id="paint20_linear_947_72" x1="437.813" y1="318.499" x2="473.603" y2="316.303" gradientUnits="userSpaceOnUse">
<stop stop-color="#754FFE"/>
<stop offset="0.9944" stop-color="#C812C1"/>
</linearGradient>
<linearGradient id="paint21_linear_947_72" x1="448.376" y1="318.499" x2="484.166" y2="316.303" gradientUnits="userSpaceOnUse">
<stop stop-color="#754FFE"/>
<stop offset="0.9944" stop-color="#C812C1"/>
</linearGradient>
<linearGradient id="paint22_linear_947_72" x1="217.423" y1="442.311" x2="524.292" y2="385.331" gradientUnits="userSpaceOnUse">
<stop stop-color="#754FFE"/>
<stop offset="0.9944" stop-color="#C812C1"/>
</linearGradient>
<linearGradient id="paint23_linear_947_72" x1="227.639" y1="459.107" x2="303.189" y2="386.408" gradientUnits="userSpaceOnUse">
<stop stop-color="#754FFE"/>
<stop offset="0.9944" stop-color="#C812C1"/>
</linearGradient>
<linearGradient id="paint24_linear_947_72" x1="77.3063" y1="468.414" x2="305.065" y2="357.833" gradientUnits="userSpaceOnUse">
<stop stop-color="#754FFE"/>
<stop offset="0.9944" stop-color="#C812C1"/>
</linearGradient>
<linearGradient id="paint25_linear_947_72" x1="77.3063" y1="481.414" x2="302.67" y2="368.989" gradientUnits="userSpaceOnUse">
<stop stop-color="#754FFE"/>
<stop offset="0.9944" stop-color="#C812C1"/>
</linearGradient>
<linearGradient id="paint26_linear_947_72" x1="77.3076" y1="496.634" x2="300.76" y2="382.799" gradientUnits="userSpaceOnUse">
<stop stop-color="#754FFE"/>
<stop offset="0.9944" stop-color="#C812C1"/>
</linearGradient>
<linearGradient id="paint27_linear_947_72" x1="80.8268" y1="490.053" x2="143.835" y2="372.634" gradientUnits="userSpaceOnUse">
<stop stop-color="#754FFE"/>
<stop offset="0.9944" stop-color="#C812C1"/>
</linearGradient>
<linearGradient id="paint28_linear_947_72" x1="109.132" y1="500.904" x2="178.362" y2="394.877" gradientUnits="userSpaceOnUse">
<stop stop-color="#754FFE"/>
<stop offset="0.9944" stop-color="#C812C1"/>
</linearGradient>
<linearGradient id="paint29_linear_947_72" x1="261.601" y1="645.697" x2="297.505" y2="644.747" gradientUnits="userSpaceOnUse">
<stop stop-color="#754FFE"/>
<stop offset="0.9944" stop-color="#C812C1"/>
</linearGradient>
<linearGradient id="paint30_linear_947_72" x1="254.432" y1="666.36" x2="375.678" y2="656.548" gradientUnits="userSpaceOnUse">
<stop stop-color="#754FFE"/>
<stop offset="0.9944" stop-color="#C812C1"/>
</linearGradient>
<linearGradient id="paint31_linear_947_72" x1="296.385" y1="554.756" x2="395.766" y2="548.958" gradientUnits="userSpaceOnUse">
<stop stop-color="#754FFE"/>
<stop offset="0.9944" stop-color="#C812C1"/>
</linearGradient>
<linearGradient id="paint32_linear_947_72" x1="349.456" y1="448.597" x2="500.38" y2="426.695" gradientUnits="userSpaceOnUse">
<stop stop-color="#754FFE"/>
<stop offset="0.9944" stop-color="#C812C1"/>
</linearGradient>
<linearGradient id="paint33_linear_947_72" x1="372.924" y1="441.697" x2="483.781" y2="428.303" gradientUnits="userSpaceOnUse">
<stop stop-color="#754FFE"/>
<stop offset="0.9944" stop-color="#C812C1"/>
</linearGradient>
<linearGradient id="paint34_linear_947_72" x1="336.924" y1="466.874" x2="505.059" y2="439.762" gradientUnits="userSpaceOnUse">
<stop stop-color="#754FFE"/>
<stop offset="0.9944" stop-color="#C812C1"/>
</linearGradient>
<linearGradient id="paint35_linear_947_72" x1="298.977" y1="456.738" x2="466.935" y2="306.687" gradientUnits="userSpaceOnUse">
<stop stop-color="#754FFE"/>
<stop offset="0.9944" stop-color="#C812C1"/>
</linearGradient>
<linearGradient id="paint36_linear_947_72" x1="298.977" y1="468.404" x2="469.411" y2="318.654" gradientUnits="userSpaceOnUse">
<stop stop-color="#754FFE"/>
<stop offset="0.9944" stop-color="#C812C1"/>
</linearGradient>
<linearGradient id="paint37_linear_947_72" x1="299.064" y1="481.33" x2="475.846" y2="332.715" gradientUnits="userSpaceOnUse">
<stop stop-color="#754FFE"/>
<stop offset="0.9944" stop-color="#C812C1"/>
</linearGradient>
<linearGradient id="paint38_linear_947_72" x1="205.536" y1="448.414" x2="518.146" y2="393.737" gradientUnits="userSpaceOnUse">
<stop stop-color="#754FFE"/>
<stop offset="0.9944" stop-color="#C812C1"/>
</linearGradient>
<linearGradient id="paint39_linear_947_72" x1="319.86" y1="330.481" x2="514.905" y2="280.612" gradientUnits="userSpaceOnUse">
<stop stop-color="#754FFE"/>
<stop offset="0.9944" stop-color="#C812C1"/>
</linearGradient>
<linearGradient id="paint40_linear_947_72" x1="325.762" y1="419.637" x2="658.122" y2="300.621" gradientUnits="userSpaceOnUse">
<stop stop-color="#754FFE"/>
<stop offset="0.9944" stop-color="#C812C1"/>
</linearGradient>
<linearGradient id="paint41_linear_947_72" x1="405.371" y1="428.552" x2="507.171" y2="410.509" gradientUnits="userSpaceOnUse">
<stop stop-color="#754FFE"/>
<stop offset="0.9944" stop-color="#C812C1"/>
</linearGradient>
<linearGradient id="paint42_linear_947_72" x1="464.07" y1="526.681" x2="499.953" y2="525.403" gradientUnits="userSpaceOnUse">
<stop stop-color="#754FFE"/>
<stop offset="0.9944" stop-color="#C812C1"/>
</linearGradient>
<linearGradient id="paint43_linear_947_72" x1="474.766" y1="526.345" x2="510.645" y2="525.059" gradientUnits="userSpaceOnUse">
<stop stop-color="#754FFE"/>
<stop offset="0.9944" stop-color="#C812C1"/>
</linearGradient>
<linearGradient id="paint44_linear_947_72" x1="379.269" y1="435.815" x2="699.879" y2="361.101" gradientUnits="userSpaceOnUse">
<stop stop-color="#754FFE"/>
<stop offset="0.9944" stop-color="#C812C1"/>
</linearGradient>
<linearGradient id="paint45_linear_947_72" x1="353.881" y1="425.377" x2="724.442" y2="321.325" gradientUnits="userSpaceOnUse">
<stop stop-color="#754FFE"/>
<stop offset="0.9944" stop-color="#C812C1"/>
</linearGradient>
<linearGradient id="paint46_linear_947_72" x1="413.96" y1="438.645" x2="663.527" y2="286.362" gradientUnits="userSpaceOnUse">
<stop stop-color="#754FFE"/>
<stop offset="0.9944" stop-color="#C812C1"/>
</linearGradient>
<linearGradient id="paint47_linear_947_72" x1="372.671" y1="398.966" x2="612.525" y2="219.2" gradientUnits="userSpaceOnUse">
<stop stop-color="#754FFE"/>
<stop offset="0.9944" stop-color="#C812C1"/>
</linearGradient>
<linearGradient id="paint48_linear_947_72" x1="158.636" y1="436.563" x2="386.714" y2="333.189" gradientUnits="userSpaceOnUse">
<stop stop-color="#754FFE"/>
<stop offset="0.9944" stop-color="#C812C1"/>
</linearGradient>
<linearGradient id="paint49_linear_947_72" x1="164.339" y1="429.479" x2="356.427" y2="330.654" gradientUnits="userSpaceOnUse">
<stop stop-color="#754FFE"/>
<stop offset="0.9944" stop-color="#C812C1"/>
</linearGradient>
<linearGradient id="paint50_linear_947_72" x1="220.374" y1="491.937" x2="285.552" y2="486.964" gradientUnits="userSpaceOnUse">
<stop stop-color="#754FFE"/>
<stop offset="0.9944" stop-color="#C812C1"/>
</linearGradient>
<linearGradient id="paint51_linear_947_72" x1="210.16" y1="496.609" x2="308.772" y2="484.109" gradientUnits="userSpaceOnUse">
<stop stop-color="#754FFE"/>
<stop offset="0.9944" stop-color="#C812C1"/>
</linearGradient>
<linearGradient id="paint52_linear_947_72" x1="189.658" y1="421.851" x2="323.441" y2="352.508" gradientUnits="userSpaceOnUse">
<stop stop-color="#754FFE"/>
<stop offset="0.9944" stop-color="#C812C1"/>
</linearGradient>
<linearGradient id="paint53_linear_947_72" x1="183.583" y1="533.75" x2="259.218" y2="531.127" gradientUnits="userSpaceOnUse">
<stop stop-color="#754FFE"/>
<stop offset="0.9944" stop-color="#C812C1"/>
</linearGradient>
<linearGradient id="paint54_linear_947_72" x1="219.241" y1="611.447" x2="296.488" y2="605.895" gradientUnits="userSpaceOnUse">
<stop stop-color="#754FFE"/>
<stop offset="0.9944" stop-color="#C812C1"/>
</linearGradient>
<linearGradient id="paint55_linear_947_72" x1="291.909" y1="363.181" x2="329.598" y2="367.727" gradientUnits="userSpaceOnUse">
<stop stop-color="#DF6F34"/>
<stop offset="0.9944" stop-color="#F1CC5F"/>
</linearGradient>
<linearGradient id="paint56_linear_947_72" x1="236.154" y1="529.3" x2="299.083" y2="531.83" gradientUnits="userSpaceOnUse">
<stop stop-color="#DF6F34"/>
<stop offset="0.9944" stop-color="#F1CC5F"/>
</linearGradient>
<linearGradient id="paint57_linear_947_72" x1="162.618" y1="621.845" x2="414.652" y2="573.193" gradientUnits="userSpaceOnUse">
<stop stop-color="#754FFE"/>
<stop offset="0.9944" stop-color="#C812C1"/>
</linearGradient>
<linearGradient id="paint58_linear_947_72" x1="145.966" y1="370.683" x2="253.314" y2="345.181" gradientUnits="userSpaceOnUse">
<stop stop-color="#754FFE"/>
<stop offset="0.9944" stop-color="#C812C1"/>
</linearGradient>
<linearGradient id="paint59_linear_947_72" x1="367.019" y1="521.29" x2="474.372" y2="495.785" gradientUnits="userSpaceOnUse">
<stop stop-color="#754FFE"/>
<stop offset="0.9944" stop-color="#C812C1"/>
</linearGradient>
<linearGradient id="paint60_linear_947_72" x1="542.362" y1="466.713" x2="651.165" y2="440.865" gradientUnits="userSpaceOnUse">
<stop stop-color="#754FFE"/>
<stop offset="0.9944" stop-color="#C812C1"/>
</linearGradient>
<linearGradient id="paint61_linear_947_72" x1="252.312" y1="267.889" x2="327.88" y2="195.188" gradientUnits="userSpaceOnUse">
<stop stop-color="#754FFE"/>
<stop offset="0.9944" stop-color="#C812C1"/>
</linearGradient>
<linearGradient id="paint62_linear_947_72" x1="428.874" y1="304.011" x2="545.799" y2="328.882" gradientUnits="userSpaceOnUse">
<stop stop-color="#DF6F34"/>
<stop offset="0.9944" stop-color="#F1CC5F"/>
</linearGradient>
<linearGradient id="paint63_linear_947_72" x1="188.812" y1="317.553" x2="502.126" y2="418.134" gradientUnits="userSpaceOnUse">
<stop stop-color="#DF6F34"/>
<stop offset="0.9944" stop-color="#F1CC5F"/>
</linearGradient>
<linearGradient id="paint64_linear_947_72" x1="186.533" y1="393.567" x2="238.299" y2="414.229" gradientUnits="userSpaceOnUse">
<stop stop-color="#DF6F34"/>
<stop offset="0.9944" stop-color="#F1CC5F"/>
</linearGradient>
<linearGradient id="paint65_linear_947_72" x1="430.945" y1="416.348" x2="473.543" y2="423.579" gradientUnits="userSpaceOnUse">
<stop stop-color="#DF6F34"/>
<stop offset="0.9944" stop-color="#F1CC5F"/>
</linearGradient>
<linearGradient id="paint66_linear_947_72" x1="431.18" y1="345.711" x2="485.339" y2="370.753" gradientUnits="userSpaceOnUse">
<stop stop-color="#DF6F34"/>
<stop offset="0.9944" stop-color="#F1CC5F"/>
</linearGradient>
<linearGradient id="paint67_linear_947_72" x1="279.524" y1="293.054" x2="317.275" y2="297.34" gradientUnits="userSpaceOnUse">
<stop stop-color="#DF6F34"/>
<stop offset="0.9944" stop-color="#F1CC5F"/>
</linearGradient>
<linearGradient id="paint68_linear_947_72" x1="312.101" y1="1027.79" x2="425.95" y2="1024.12" gradientUnits="userSpaceOnUse">
<stop stop-color="#754FFE"/>
<stop offset="0.9944" stop-color="#C812C1"/>
</linearGradient>
<linearGradient id="paint69_linear_947_72" x1="357.243" y1="625.706" x2="399.372" y2="615.697" gradientUnits="userSpaceOnUse">
<stop stop-color="#754FFE"/>
<stop offset="0.9944" stop-color="#C812C1"/>
</linearGradient>
<linearGradient id="paint70_linear_947_72" x1="446.369" y1="1053.49" x2="560.233" y2="1050.06" gradientUnits="userSpaceOnUse">
<stop stop-color="#754FFE"/>
<stop offset="0.9944" stop-color="#C812C1"/>
</linearGradient>
<linearGradient id="paint71_linear_947_72" x1="491.514" y1="622.423" x2="533.639" y2="612.416" gradientUnits="userSpaceOnUse">
<stop stop-color="#754FFE"/>
<stop offset="0.9944" stop-color="#C812C1"/>
</linearGradient>
<linearGradient id="paint72_linear_947_72" x1="336.584" y1="1043.67" x2="450.433" y2="1040" gradientUnits="userSpaceOnUse">
<stop stop-color="#754FFE"/>
<stop offset="0.9944" stop-color="#C812C1"/>
</linearGradient>
<linearGradient id="paint73_linear_947_72" x1="381.728" y1="641.585" x2="423.857" y2="631.576" gradientUnits="userSpaceOnUse">
<stop stop-color="#754FFE"/>
<stop offset="0.9944" stop-color="#C812C1"/>
</linearGradient>
<linearGradient id="paint74_linear_947_72" x1="362.234" y1="1090.61" x2="476.083" y2="1086.94" gradientUnits="userSpaceOnUse">
<stop stop-color="#754FFE"/>
<stop offset="0.9944" stop-color="#C812C1"/>
</linearGradient>
<linearGradient id="paint75_linear_947_72" x1="407.378" y1="688.523" x2="449.503" y2="678.516" gradientUnits="userSpaceOnUse">
<stop stop-color="#754FFE"/>
<stop offset="0.9944" stop-color="#C812C1"/>
</linearGradient>
<linearGradient id="paint76_linear_947_72" x1="402.185" y1="1184.73" x2="516.034" y2="1181.05" gradientUnits="userSpaceOnUse">
<stop stop-color="#754FFE"/>
<stop offset="0.9944" stop-color="#C812C1"/>
</linearGradient>
<linearGradient id="paint77_linear_947_72" x1="447.331" y1="782.642" x2="489.456" y2="772.634" gradientUnits="userSpaceOnUse">
<stop stop-color="#754FFE"/>
<stop offset="0.9944" stop-color="#C812C1"/>
</linearGradient>
<linearGradient id="paint78_linear_947_72" x1="538.065" y1="1048.88" x2="541.785" y2="1048.87" gradientUnits="userSpaceOnUse">
<stop stop-color="#754FFE"/>
<stop offset="0.9944" stop-color="#C812C1"/>
</linearGradient>
<linearGradient id="paint79_linear_947_72" x1="520.054" y1="687.146" x2="562.183" y2="677.137" gradientUnits="userSpaceOnUse">
<stop stop-color="#754FFE"/>
<stop offset="0.9944" stop-color="#C812C1"/>
</linearGradient>
<linearGradient id="paint80_linear_947_72" x1="536.226" y1="1027.79" x2="650.075" y2="1024.12" gradientUnits="userSpaceOnUse">
<stop stop-color="#754FFE"/>
<stop offset="0.9944" stop-color="#C812C1"/>
</linearGradient>
<linearGradient id="paint81_linear_947_72" x1="581.372" y1="625.706" x2="623.497" y2="615.698" gradientUnits="userSpaceOnUse">
<stop stop-color="#754FFE"/>
<stop offset="0.9944" stop-color="#C812C1"/>
</linearGradient>
<linearGradient id="paint82_linear_947_72" x1="560.711" y1="1043.67" x2="674.56" y2="1040" gradientUnits="userSpaceOnUse">
<stop stop-color="#754FFE"/>
<stop offset="0.9944" stop-color="#C812C1"/>
</linearGradient>
<linearGradient id="paint83_linear_947_72" x1="605.854" y1="641.585" x2="647.979" y2="631.578" gradientUnits="userSpaceOnUse">
<stop stop-color="#754FFE"/>
<stop offset="0.9944" stop-color="#C812C1"/>
</linearGradient>
<linearGradient id="paint84_linear_947_72" x1="586.359" y1="1090.61" x2="700.208" y2="1086.94" gradientUnits="userSpaceOnUse">
<stop stop-color="#754FFE"/>
<stop offset="0.9944" stop-color="#C812C1"/>
</linearGradient>
<linearGradient id="paint85_linear_947_72" x1="631.501" y1="688.523" x2="673.63" y2="678.514" gradientUnits="userSpaceOnUse">
<stop stop-color="#754FFE"/>
<stop offset="0.9944" stop-color="#C812C1"/>
</linearGradient>
<linearGradient id="paint86_linear_947_72" x1="626.314" y1="1184.73" x2="740.158" y2="1181.05" gradientUnits="userSpaceOnUse">
<stop stop-color="#754FFE"/>
<stop offset="0.9944" stop-color="#C812C1"/>
</linearGradient>
<linearGradient id="paint87_linear_947_72" x1="671.454" y1="782.642" x2="713.583" y2="772.633" gradientUnits="userSpaceOnUse">
<stop stop-color="#754FFE"/>
<stop offset="0.9944" stop-color="#C812C1"/>
</linearGradient>
<linearGradient id="paint88_linear_947_72" x1="54.2336" y1="625.706" x2="96.3627" y2="615.697" gradientUnits="userSpaceOnUse">
<stop stop-color="#754FFE"/>
<stop offset="0.9944" stop-color="#C812C1"/>
</linearGradient>
<linearGradient id="paint89_linear_947_72" x1="143.361" y1="1053.49" x2="257.225" y2="1050.06" gradientUnits="userSpaceOnUse">
<stop stop-color="#754FFE"/>
<stop offset="0.9944" stop-color="#C812C1"/>
</linearGradient>
<linearGradient id="paint90_linear_947_72" x1="188.503" y1="622.423" x2="230.632" y2="612.414" gradientUnits="userSpaceOnUse">
<stop stop-color="#754FFE"/>
<stop offset="0.9944" stop-color="#C812C1"/>
</linearGradient>
<linearGradient id="paint91_linear_947_72" x1="33.576" y1="1043.67" x2="147.425" y2="1040" gradientUnits="userSpaceOnUse">
<stop stop-color="#754FFE"/>
<stop offset="0.9944" stop-color="#C812C1"/>
</linearGradient>
<linearGradient id="paint92_linear_947_72" x1="78.718" y1="641.585" x2="120.847" y2="631.576" gradientUnits="userSpaceOnUse">
<stop stop-color="#754FFE"/>
<stop offset="0.9944" stop-color="#C812C1"/>
</linearGradient>
<linearGradient id="paint93_linear_947_72" x1="59.2245" y1="1090.61" x2="173.073" y2="1086.94" gradientUnits="userSpaceOnUse">
<stop stop-color="#754FFE"/>
<stop offset="0.9944" stop-color="#C812C1"/>
</linearGradient>
<linearGradient id="paint94_linear_947_72" x1="104.366" y1="688.523" x2="146.495" y2="678.514" gradientUnits="userSpaceOnUse">
<stop stop-color="#754FFE"/>
<stop offset="0.9944" stop-color="#C812C1"/>
</linearGradient>
<linearGradient id="paint95_linear_947_72" x1="99.1776" y1="1184.73" x2="213.026" y2="1181.05" gradientUnits="userSpaceOnUse">
<stop stop-color="#754FFE"/>
<stop offset="0.9944" stop-color="#C812C1"/>
</linearGradient>
<linearGradient id="paint96_linear_947_72" x1="144.32" y1="782.642" x2="186.449" y2="772.633" gradientUnits="userSpaceOnUse">
<stop stop-color="#754FFE"/>
<stop offset="0.9944" stop-color="#C812C1"/>
</linearGradient>
<linearGradient id="paint97_linear_947_72" x1="235.056" y1="1048.88" x2="238.775" y2="1048.87" gradientUnits="userSpaceOnUse">
<stop stop-color="#754FFE"/>
<stop offset="0.9944" stop-color="#C812C1"/>
</linearGradient>
<linearGradient id="paint98_linear_947_72" x1="217.046" y1="687.146" x2="259.175" y2="677.137" gradientUnits="userSpaceOnUse">
<stop stop-color="#754FFE"/>
<stop offset="0.9944" stop-color="#C812C1"/>
</linearGradient>
<linearGradient id="paint99_linear_947_72" x1="265.016" y1="654.591" x2="327.96" y2="670.599" gradientUnits="userSpaceOnUse">
<stop stop-color="#DF6F34"/>
<stop offset="0.9944" stop-color="#F1CC5F"/>
</linearGradient>
<linearGradient id="paint100_linear_947_72" x1="197.248" y1="509.946" x2="210.872" y2="513.411" gradientUnits="userSpaceOnUse">
<stop stop-color="#DF6F34"/>
<stop offset="0.9944" stop-color="#F1CC5F"/>
</linearGradient>
<linearGradient id="paint101_linear_947_72" x1="183.326" y1="379.231" x2="196.95" y2="382.696" gradientUnits="userSpaceOnUse">
<stop stop-color="#DF6F34"/>
<stop offset="0.9944" stop-color="#F1CC5F"/>
</linearGradient>
<linearGradient id="paint102_linear_947_72" x1="281.539" y1="416.693" x2="295.163" y2="420.158" gradientUnits="userSpaceOnUse">
<stop stop-color="#DF6F34"/>
<stop offset="0.9944" stop-color="#F1CC5F"/>
</linearGradient>
<linearGradient id="paint103_linear_947_72" x1="421.324" y1="459.396" x2="434.949" y2="462.861" gradientUnits="userSpaceOnUse">
<stop stop-color="#DF6F34"/>
<stop offset="0.9944" stop-color="#F1CC5F"/>
</linearGradient>
<linearGradient id="paint104_linear_947_72" x1="536.273" y1="404.618" x2="549.898" y2="408.083" gradientUnits="userSpaceOnUse">
<stop stop-color="#DF6F34"/>
<stop offset="0.9944" stop-color="#F1CC5F"/>
</linearGradient>
<linearGradient id="paint105_linear_947_72" x1="482.894" y1="372.111" x2="496.518" y2="375.575" gradientUnits="userSpaceOnUse">
<stop stop-color="#DF6F34"/>
<stop offset="0.9944" stop-color="#F1CC5F"/>
</linearGradient>
<linearGradient id="paint106_linear_947_72" x1="312.371" y1="279.524" x2="325.995" y2="282.989" gradientUnits="userSpaceOnUse">
<stop stop-color="#DF6F34"/>
<stop offset="0.9944" stop-color="#F1CC5F"/>
</linearGradient>
<linearGradient id="paint107_linear_947_72" x1="494.134" y1="284.067" x2="507.759" y2="287.532" gradientUnits="userSpaceOnUse">
<stop stop-color="#DF6F34"/>
<stop offset="0.9944" stop-color="#F1CC5F"/>
</linearGradient>
<linearGradient id="paint108_linear_947_72" x1="321.597" y1="638.497" x2="335.222" y2="641.962" gradientUnits="userSpaceOnUse">
<stop stop-color="#DF6F34"/>
<stop offset="0.9944" stop-color="#F1CC5F"/>
</linearGradient>
<clipPath id="clip0_947_72">
<rect width="774" height="816" fill="white"/>
</clipPath>
</defs>
</svg>
