<?xml version="1.0" standalone="no"?>
<!DOCTYPE svg PUBLIC "-//W3C//DTD SVG 20010904//EN"
 "http://www.w3.org/TR/2001/REC-SVG-20010904/DTD/svg10.dtd">
<svg version="1.0" xmlns="http://www.w3.org/2000/svg"
 width="1271.000000pt" height="141.000000pt" viewBox="0 0 1271.000000 141.000000"
 preserveAspectRatio="xMidYMid meet">

<g transform="translate(0.000000,141.000000) scale(0.100000,-0.100000)"
fill="currentColor" stroke="none">
<path d="M12103 1350 c-59 -12 -113 -42 -160 -89 -62 -62 -86 -121 -91 -218
-8 -154 44 -222 282 -373 283 -179 319 -216 319 -333 0 -110 -55 -179 -165
-208 -57 -16 -145 -2 -215 33 -66 33 -153 132 -194 222 -27 61 -38 75 -56 76
-27 0 -29 -17 -13 -114 5 -34 17 -114 26 -178 16 -113 18 -118 41 -118 16 0
27 8 33 25 15 39 36 41 124 12 227 -74 407 -47 526 79 70 74 93 129 93 230 1
68 -3 89 -26 136 -40 82 -129 159 -324 281 -184 115 -236 159 -264 221 -25 55
-24 94 4 146 32 60 89 90 171 90 150 -2 269 -95 326 -257 20 -54 26 -63 47
-63 l25 0 -7 83 c-3 45 -13 136 -21 202 -8 66 -14 121 -14 122 0 2 -11 3 -24
3 -17 0 -26 -7 -30 -25 -9 -34 -45 -41 -114 -20 -153 46 -209 52 -299 35z"/>
<path d="M2135 852 c-115 -273 -232 -541 -260 -597 -48 -95 -53 -101 -102
-125 -33 -16 -52 -31 -53 -42 0 -17 16 -18 190 -18 180 0 190 1 190 19 0 15
-10 20 -45 25 -56 9 -89 46 -82 92 3 17 26 85 53 152 l47 122 246 0 247 0 48
-113 c84 -201 82 -239 -14 -252 -40 -6 -50 -11 -50 -26 0 -18 11 -19 245 -19
235 0 245 1 245 19 0 14 -10 22 -32 27 -52 11 -77 33 -110 98 -30 59 -129 282
-384 863 -110 253 -121 273 -144 273 -23 -1 -38 -31 -235 -498z m293 -36 c56
-134 102 -247 102 -250 0 -7 -405 -8 -412 -1 -3 3 26 81 64 173 38 92 84 202
101 245 18 42 35 77 38 77 3 0 51 -110 107 -244z"/>
<path d="M4525 1331 c-89 -26 -131 -46 -200 -96 -107 -76 -189 -189 -232 -320
-24 -71 -27 -96 -27 -225 -1 -113 3 -158 17 -205 86 -280 317 -445 622 -444
50 0 119 6 154 13 98 21 218 86 297 160 l69 64 -22 23 -21 22 -54 -45 c-102
-86 -202 -130 -324 -143 -227 -22 -407 104 -490 345 -27 78 -27 347 -1 434 46
150 134 264 245 318 63 31 73 33 177 33 105 0 114 -2 177 -33 102 -50 183
-150 218 -269 11 -35 18 -43 37 -43 23 0 23 1 23 123 0 68 -3 165 -6 215 -7
88 -8 92 -30 92 -13 0 -28 -9 -33 -19 -21 -39 -60 -41 -177 -10 -92 24 -128
28 -234 28 -89 0 -142 -5 -185 -18z"/>
<path d="M30 1313 c0 -15 13 -21 62 -30 111 -21 103 22 106 -546 2 -331 0
-504 -8 -529 -14 -48 -48 -74 -116 -89 -41 -9 -54 -16 -54 -31 0 -17 13 -18
225 -18 215 0 225 1 225 19 0 15 -10 21 -40 26 -22 4 -54 16 -72 28 -56 38
-59 63 -56 521 l3 409 230 -502 c179 -391 234 -501 248 -501 12 0 25 16 39 47
11 27 112 251 224 499 112 249 210 467 218 485 14 31 15 -11 13 -438 -2 -550
4 -516 -105 -543 -47 -11 -62 -19 -62 -32 0 -17 19 -18 270 -18 253 0 270 1
270 18 0 14 -13 21 -58 30 -39 8 -67 21 -83 38 l-24 26 0 506 c0 279 3 519 8
534 9 33 49 56 112 65 35 4 45 10 45 25 0 17 -10 18 -197 16 l-196 -3 -47
-110 c-180 -417 -357 -810 -365 -811 -6 -1 -105 206 -222 460 l-212 461 -190
3 c-178 2 -191 1 -191 -15z"/>
<path d="M2886 1308 c-3 -13 -6 -87 -6 -165 l0 -143 25 0 c19 0 26 7 31 28 14
66 38 125 60 151 36 43 89 59 218 67 l117 7 -3 -529 c-2 -407 -6 -534 -16
-551 -16 -30 -56 -49 -115 -58 -37 -6 -47 -11 -47 -26 0 -18 12 -19 280 -19
268 0 280 1 280 19 0 15 -10 20 -47 26 -71 10 -112 31 -123 60 -6 16 -10 228
-10 552 l0 526 117 -7 c183 -12 215 -33 258 -169 20 -62 26 -72 47 -72 19 0
23 5 22 33 0 17 -1 91 -2 162 l-2 130 -539 0 -539 0 -6 -22z"/>
<path d="M5310 1312 c0 -14 13 -21 59 -30 104 -22 96 25 96 -584 l0 -530 -23
-18 c-12 -10 -47 -24 -77 -31 -43 -9 -55 -16 -55 -31 0 -17 13 -18 268 -16
228 3 267 5 267 18 0 9 -18 19 -50 26 -116 27 -115 24 -115 314 l0 230 286 0
287 0 -5 -227 c-3 -130 -10 -240 -16 -255 -13 -32 -50 -53 -109 -63 -33 -5
-43 -11 -43 -26 0 -18 11 -19 265 -19 256 0 265 1 265 19 0 16 -9 21 -44 26
-64 10 -104 37 -111 77 -3 18 -5 259 -3 534 3 576 -4 535 99 556 46 9 59 16
59 30 0 17 -16 18 -265 18 -249 0 -265 -1 -265 -18 0 -14 13 -21 59 -30 32 -7
66 -21 75 -31 25 -27 36 -123 36 -318 l0 -173 -285 0 -285 0 0 220 c0 278 2
283 125 308 25 5 40 13 40 22 0 13 -41 15 -267 18 -253 2 -268 1 -268 -16z"/>
<path d="M6680 1313 c0 -15 13 -21 63 -30 91 -18 103 -35 112 -169 4 -58 6
-283 3 -498 -4 -340 -7 -395 -21 -423 -22 -42 -49 -60 -114 -74 -40 -9 -53
-17 -53 -31 0 -17 13 -18 231 -18 211 0 230 1 227 17 -2 10 -20 21 -48 28 -64
17 -87 31 -107 68 -16 28 -18 70 -21 382 -2 193 -2 386 0 429 l3 79 230 -501
c193 -422 233 -502 249 -500 15 2 62 99 208 423 104 231 211 470 238 530 l50
110 -2 -472 c-3 -550 3 -516 -106 -543 -47 -11 -62 -19 -62 -32 0 -17 19 -18
270 -18 251 0 270 1 270 18 0 13 -15 21 -62 32 -109 27 -103 -9 -106 556 -3
489 0 545 34 578 8 9 42 21 74 28 47 9 60 16 60 30 0 17 -12 18 -196 16 l-195
-3 -141 -320 c-77 -176 -168 -385 -203 -465 -35 -80 -67 -144 -71 -143 -3 1
-102 210 -219 465 l-213 463 -191 3 c-178 2 -191 1 -191 -15z"/>
<path d="M8370 1311 c0 -15 10 -20 52 -25 65 -9 106 -30 118 -62 13 -35 13
-1014 0 -1049 -11 -29 -57 -52 -125 -62 -35 -4 -45 -10 -45 -24 0 -18 14 -19
285 -19 271 0 285 1 285 19 0 14 -10 20 -45 24 -68 10 -114 33 -125 62 -13 35
-13 1014 0 1049 12 32 53 53 118 62 42 5 52 10 52 25 0 18 -13 19 -285 19
-272 0 -285 -1 -285 -19z"/>
<path d="M8990 1311 c0 -15 10 -20 51 -25 43 -6 57 -14 95 -53 l45 -46 -3
-481 c-3 -374 -6 -488 -17 -514 -15 -37 -63 -66 -128 -77 -33 -5 -43 -11 -43
-26 0 -18 10 -19 230 -19 217 0 230 1 230 18 0 14 -13 22 -53 31 -127 28 -128
34 -125 550 l3 404 411 -509 c284 -352 417 -510 432 -512 l22 -3 0 522 c0 336
4 545 11 586 13 75 41 104 119 124 37 9 50 18 50 31 0 17 -14 18 -225 18 -213
0 -225 -1 -225 -19 0 -14 10 -20 41 -25 59 -9 96 -31 116 -69 16 -29 18 -71
21 -412 l3 -379 -361 452 -362 452 -169 0 c-158 0 -169 -1 -169 -19z"/>
<path d="M10380 1312 c0 -15 9 -21 41 -26 66 -11 97 -31 108 -74 15 -51 15
-974 0 -1025 -11 -41 -38 -58 -111 -72 -28 -5 -38 -12 -38 -26 0 -18 13 -19
314 -19 173 0 350 5 392 11 233 32 409 145 499 321 44 84 65 182 65 302 0 192
-45 314 -159 426 -69 69 -118 101 -211 137 -134 53 -153 55 -537 60 -356 5
-363 4 -363 -15z m635 -73 c87 -15 214 -79 273 -138 128 -128 177 -323 137
-545 -46 -257 -249 -406 -554 -406 -139 0 -126 -57 -129 541 -3 560 -4 552 55
562 35 6 139 -1 218 -14z"/>
</g>
</svg>
