<svg width="24" height="24" viewBox="0 0 24 24" fill="none" xmlns="http://www.w3.org/2000/svg">
<path fill-rule="evenodd" clip-rule="evenodd" d="M0.5 10C0.5 9.72386 0.723858 9.5 1 9.5H22C22.2761 9.5 22.5 9.72386 22.5 10C22.5 10.2761 22.2761 10.5 22 10.5H1C0.723858 10.5 0.5 10.2761 0.5 10Z" fill="white"/>
<path fill-rule="evenodd" clip-rule="evenodd" d="M0.5 5C0.5 4.72386 0.723858 4.5 1 4.5H22C22.2761 4.5 22.5 4.72386 22.5 5C22.5 5.27614 22.2761 5.5 22 5.5H1C0.723858 5.5 0.5 5.27614 0.5 5Z" fill="white"/>
<path fill-rule="evenodd" clip-rule="evenodd" d="M0.5 14C0.5 13.7239 0.723858 13.5 1 13.5H22C22.2761 13.5 22.5 13.7239 22.5 14C22.5 14.2761 22.2761 14.5 22 14.5H1C0.723858 14.5 0.5 14.2761 0.5 14Z" fill="white"/>
<path fill-rule="evenodd" clip-rule="evenodd" d="M0.5 19C0.5 18.7239 0.723858 18.5 1 18.5H22C22.2761 18.5 22.5 18.7239 22.5 19C22.5 19.2761 22.2761 19.5 22 19.5H1C0.723858 19.5 0.5 19.2761 0.5 19Z" fill="white"/>
</svg>
