<svg width="24" height="24" viewBox="0 0 24 24" fill="none" xmlns="http://www.w3.org/2000/svg">
<g clip-path="url(#clip0_517_36471)">
<path fill-rule="evenodd" clip-rule="evenodd" d="M20.4853 3.48528C20.7977 3.7977 20.7977 4.30423 20.4853 4.61665L4.64609 20.4558C4.33367 20.7683 3.82714 20.7683 3.51472 20.4558C3.2023 20.1434 3.2023 19.6369 3.51472 19.3245L19.3539 3.48528C19.6663 3.17286 20.1729 3.17286 20.4853 3.48528Z" fill="white"/>
<path fill-rule="evenodd" clip-rule="evenodd" d="M3.51472 3.48528C3.82714 3.17286 4.33367 3.17286 4.64609 3.48528L20.4853 19.3245C20.7977 19.6369 20.7977 20.1434 20.4853 20.4558C20.1729 20.7683 19.6663 20.7683 19.3539 20.4558L3.51472 4.61665C3.2023 4.30423 3.2023 3.7977 3.51472 3.48528Z" fill="white"/>
</g>
<defs>
<clipPath id="clip0_517_36471">
<rect width="24" height="24" fill="white"/>
</clipPath>
</defs>
</svg>
