<svg width="24" height="18" viewBox="0 0 24 18" fill="none" xmlns="http://www.w3.org/2000/svg">
<path d="M20.0624 0.0335569C19.9987 0.0608728 19.3932 0.639058 18.7103 1.3174L17.4765 2.55117L16.8892 2.32354C15.9423 1.94567 15.0408 1.70893 13.9846 1.54959C13.1469 1.42667 11.3851 1.44032 10.5064 1.5769C8.1891 1.93201 6.14041 2.8562 4.20098 4.41776C3.58637 4.90944 2.42089 6.08403 1.92465 6.70319C1.38744 7.38153 0.722755 8.37856 0.686334 8.56977C0.636254 8.84293 0.704544 9.02504 1.07786 9.58501C2.1705 11.2376 3.73661 12.8128 5.31182 13.8508C5.57588 14.0238 5.79896 14.1695 5.80806 14.1786C5.82172 14.1877 5.33459 14.6931 4.73364 15.2986C3.79124 16.241 3.6319 16.4231 3.60458 16.5733C3.5545 16.8465 3.61824 17.0605 3.8049 17.2471C3.99156 17.4338 4.20553 17.4975 4.47869 17.4474C4.63348 17.4201 5.51214 16.5551 12.8146 9.26178C18.8104 3.26594 20.9866 1.06245 21.023 0.948638C21.1232 0.643611 21.0139 0.315821 20.7362 0.110951C20.5951 0.00624046 20.2309 -0.0347328 20.0624 0.0335569ZM13.8708 3.01554C14.6539 3.13391 15.5234 3.36154 16.2109 3.63015L16.3474 3.68023L14.8542 5.1735L14.7313 5.087C14.4945 4.914 13.7524 4.5862 13.3928 4.48605C12.9102 4.35857 11.8267 4.34491 11.3486 4.46328C10.5155 4.6727 9.85537 5.04602 9.24531 5.65153C8.63981 6.26158 8.26649 6.92627 8.05707 7.75485C7.93415 8.24653 7.94781 9.27543 8.07983 9.77622C8.18455 10.1541 8.48502 10.8415 8.67623 11.1193L8.76728 11.2604L6.91891 13.1088L6.48641 12.8402C4.97493 11.8887 3.44069 10.4409 2.48918 9.06601L2.257 8.72911L2.48463 8.39677C3.29045 7.23129 4.69266 5.82908 5.88091 4.99139C7.48344 3.86233 9.37734 3.14757 11.2576 2.9518C11.8221 2.89262 13.2972 2.92904 13.8708 3.01554ZM12.9694 5.90192C13.2516 5.97476 13.7797 6.19329 13.7797 6.23882C13.7797 6.24337 12.892 7.13569 11.8039 8.22377L9.82805 10.1996L9.70513 9.96288C9.54123 9.63054 9.40921 9.09333 9.40921 8.73367C9.41376 6.87163 11.203 5.45121 12.9694 5.90192Z" fill="#A3A3A3"/>
<path d="M19.5024 4.62262C19.2338 4.89123 19.0153 5.13252 19.0198 5.15528C19.0198 5.1826 19.1974 5.33739 19.4159 5.50584C20.3492 6.2206 21.5784 7.53177 22.2431 8.51058L22.3888 8.72911L22.2021 9.00227C21.4191 10.1586 20.0578 11.5381 18.8559 12.3985C16.7981 13.8736 14.3943 14.6248 12.0042 14.5383C11.2576 14.5155 11.0254 14.4882 10.2605 14.3471L9.85534 14.2697L9.26804 14.857C8.84465 15.2804 8.69896 15.4488 8.74449 15.4761C8.87196 15.549 9.95094 15.7903 10.5701 15.8859C11.4214 16.0179 13.156 16.027 13.9846 15.9086C16.921 15.4761 19.3704 14.2105 21.6103 11.966C22.4115 11.1602 22.9351 10.5274 23.5224 9.64875C24.1097 8.77464 24.1097 8.69724 23.577 7.88232C23.0671 7.10837 22.3706 6.25702 21.633 5.51494C21.0093 4.88668 20.1398 4.13094 20.0442 4.13094C20.0169 4.13094 19.771 4.34946 19.5024 4.62262Z" fill="#A3A3A3"/>
<path d="M15.8558 8.26924L15.2276 8.8975L15.1684 9.25716C15.0955 9.67601 14.836 10.2314 14.5583 10.5638C14.1304 11.0782 13.4748 11.4652 12.8511 11.5745L12.4914 11.6336L11.8495 12.2756C11.499 12.6261 11.2258 12.9266 11.2394 12.9403C11.2941 12.9949 11.9906 13.095 12.3275 13.0996C13.4794 13.1042 14.5401 12.6534 15.396 11.8021C16.2747 10.9234 16.6617 9.99925 16.6662 8.77458C16.6708 8.2055 16.5934 7.63642 16.5205 7.63642C16.5023 7.63642 16.2064 7.91869 15.8558 8.26924Z" fill="#A3A3A3"/>
</svg>
