<svg width="24" height="17" viewBox="0 0 24 17" fill="none" xmlns="http://www.w3.org/2000/svg">
<path d="M10.357 0.990711C7.20352 1.40731 3.80742 3.50614 0.880664 6.83895C0.137109 7.68798 0 7.9411 0 8.49481C0.00527344 9.0538 0.142383 9.32274 0.880664 10.1612C2.92148 12.4868 5.27871 14.2798 7.53574 15.2237C10.4836 16.463 13.3418 16.3575 16.2896 14.9126C18.3357 13.9054 20.424 12.2495 22.2328 10.1929C22.9131 9.41767 23.0502 9.20145 23.124 8.77431C23.1926 8.39462 23.0924 7.90946 22.8762 7.58251C22.5281 7.06044 21.0938 5.55223 20.1656 4.73485C18.9 3.62216 17.6344 2.75204 16.3424 2.11923C14.2963 1.10673 12.3029 0.732312 10.357 0.990711ZM12.4137 2.65184C13.5316 2.78895 14.3965 3.0579 15.5514 3.61688C17.4709 4.55556 19.3641 6.09013 21.2889 8.26806L21.484 8.48427L21.2625 8.74267C18.9422 11.4427 16.316 13.32 13.8375 14.0636C12.6826 14.4063 11.243 14.4854 10.1145 14.2587C7.56211 13.7524 4.81992 11.9911 2.33086 9.26474C1.72969 8.60556 1.67168 8.52118 1.73496 8.43681C1.94063 8.14149 3.03223 6.98134 3.58594 6.46981C5.85352 4.38153 8.02617 3.137 10.0881 2.75204C10.9898 2.58329 11.6596 2.55692 12.4137 2.65184Z" fill="#4E4E4E"/>
<path fill-rule="evenodd" clip-rule="evenodd" d="M11.5 11.5001C13.1569 11.5001 14.5 10.157 14.5 8.50012C14.5 6.84327 13.1569 5.50012 11.5 5.50012C9.84315 5.50012 8.5 6.84327 8.5 8.50012C8.5 10.157 9.84315 11.5001 11.5 11.5001ZM11.5 13.0001C13.9853 13.0001 16 10.9854 16 8.50012C16 6.01484 13.9853 4.00012 11.5 4.00012C9.01472 4.00012 7 6.01484 7 8.50012C7 10.9854 9.01472 13.0001 11.5 13.0001Z" fill="#4E4E4E"/>
</svg>
