<svg width="30" height="30" viewBox="0 0 30 30" fill="none" xmlns="http://www.w3.org/2000/svg">
<path d="M24.6004 2.3999H5.40039C3.74439 2.3999 2.40039 3.7439 2.40039 5.3999V24.5999C2.40039 26.2559 3.74439 27.5999 5.40039 27.5999H24.6004C26.2564 27.5999 27.6004 26.2559 27.6004 24.5999V5.3999C27.6004 3.7439 26.2564 2.3999 24.6004 2.3999ZM22.2004 11.3999H21.0004C19.7164 11.3999 19.2004 11.6999 19.2004 12.5999V14.3999H22.2004L21.6004 17.3999H19.2004V26.3999H16.2004V17.3999H13.8004V14.3999H16.2004V12.5999C16.2004 10.1999 17.4004 8.3999 19.8004 8.3999C21.5404 8.3999 22.2004 8.9999 22.2004 8.9999V11.3999Z" fill="#A3A3A3"/>
</svg>
