<svg width="22" height="22" viewBox="0 0 22 22" fill="none" xmlns="http://www.w3.org/2000/svg">
<path fill-rule="evenodd" clip-rule="evenodd" d="M10.998 1.5C5.75134 1.5 1.49805 5.75329 1.49805 11C1.49805 16.2467 5.75134 20.5 10.998 20.5C16.2448 20.5 20.498 16.2467 20.498 11C20.498 5.75329 16.2448 1.5 10.998 1.5ZM0.498047 11C0.498047 5.20101 5.19906 0.5 10.998 0.5C16.797 0.5 21.498 5.20101 21.498 11C21.498 16.799 16.797 21.5 10.998 21.5C5.19906 21.5 0.498047 16.799 0.498047 11Z" fill="white"/>
<path fill-rule="evenodd" clip-rule="evenodd" d="M0.498047 11C0.498047 10.7239 0.721904 10.5 0.998047 10.5H20.998C21.2742 10.5 21.498 10.7239 21.498 11C21.498 11.2761 21.2742 11.5 20.998 11.5H0.998047C0.721904 11.5 0.498047 11.2761 0.498047 11Z" fill="white"/>
<path fill-rule="evenodd" clip-rule="evenodd" d="M10.998 0.5C11.1385 0.5 11.2725 0.55908 11.3672 0.662788C13.9502 3.49063 15.4182 7.16044 15.4979 10.9896C15.4981 10.9965 15.4981 11.0035 15.4979 11.0104C15.4182 14.8396 13.9502 18.5094 11.3672 21.3372C11.2725 21.4409 11.1385 21.5 10.998 21.5C10.8576 21.5 10.7236 21.4409 10.6289 21.3372C8.04585 18.5094 6.57793 14.8396 6.49816 11.0104C6.49801 11.0035 6.49801 10.9965 6.49816 10.9896C6.57793 7.16044 8.04585 3.49063 10.6289 0.662788C10.7236 0.55908 10.8576 0.5 10.998 0.5ZM7.49816 11C7.5713 14.3964 8.81034 17.6584 10.998 20.243C13.1857 17.6584 14.4248 14.3964 14.4979 11C14.4248 7.60359 13.1858 4.34157 10.998 1.75702C8.81034 4.34157 7.5713 7.60359 7.49816 11Z" fill="white"/>
</svg>
