<svg width="30" height="30" viewBox="0 0 30 30" fill="none" xmlns="http://www.w3.org/2000/svg">
<path fill-rule="evenodd" clip-rule="evenodd" d="M5 2C3.34315 2 2 3.34315 2 5V25C2 26.6569 3.34315 28 5 28H25C26.6569 28 28 26.6569 28 25V5C28 3.34315 26.6569 2 25 2H5ZM6.11719 15.4C6.11719 20.5837 10.335 24.8 15.5188 24.8C18.568 24.8 20.9308 23.791 22.5432 21.8034C24.4909 19.4023 24.8756 16.0465 24.3951 13.7652L24.3264 13.4411L15.1101 13.4283V17.6606H19.8308C19.0885 19.3959 17.5127 20.4145 15.5188 20.4145C12.7537 20.4145 10.5027 18.1651 10.5027 15.4C10.5027 12.6349 12.7537 10.3855 15.5188 10.3855C16.7113 10.3855 17.8688 10.8149 18.7787 11.594L19.0661 11.8399L22.1664 8.73953L21.8503 8.45057C20.115 6.87007 17.8672 6 15.5188 6C10.335 6 6.11719 10.2163 6.11719 15.4Z" fill="#A3A3A3"/>
</svg>
