<svg width="30" height="30" viewBox="0 0 30 30" fill="none" xmlns="http://www.w3.org/2000/svg">
<path d="M24.6004 2.3999H5.40039C3.74439 2.3999 2.40039 3.7439 2.40039 5.3999V24.5999C2.40039 26.2559 3.74439 27.5999 5.40039 27.5999H24.6004C26.2564 27.5999 27.6004 26.2559 27.6004 24.5999V5.3999C27.6004 3.7439 26.2564 2.3999 24.6004 2.3999ZM10.2004 11.9999V23.3999H6.60039V11.9999H10.2004ZM6.60039 8.6819C6.60039 7.8419 7.32039 7.1999 8.40039 7.1999C9.48039 7.1999 10.1584 7.8419 10.2004 8.6819C10.2004 9.5219 9.52839 10.1999 8.40039 10.1999C7.32039 10.1999 6.60039 9.5219 6.60039 8.6819ZM23.4004 23.3999H19.8004C19.8004 23.3999 19.8004 17.8439 19.8004 17.3999C19.8004 16.1999 19.2004 14.9999 17.7004 14.9759H17.6524C16.2004 14.9759 15.6004 16.2119 15.6004 17.3999C15.6004 17.9459 15.6004 23.3999 15.6004 23.3999H12.0004V11.9999H15.6004V13.5359C15.6004 13.5359 16.7584 11.9999 19.0864 11.9999C21.4684 11.9999 23.4004 13.6379 23.4004 16.9559V23.3999Z" fill="#A3A3A3"/>
</svg>
