<svg width="32" height="30" viewBox="0 0 32 30" fill="none" xmlns="http://www.w3.org/2000/svg">
<path d="M11.3625 0.912409C10.7937 1.04991 10.2562 1.35616 9.84375 1.77491C9.10625 2.53116 8.9375 3.04991 8.9375 4.57491V5.62491H5.89375C3.39375 5.62491 2.76875 5.64366 2.44375 5.71866C1.3375 5.98116 0.43125 6.86241 0.1 7.99366C0.0125 8.29991 0 9.17491 0 16.1249C0 23.0749 0.0125 23.9499 0.1 24.2562C0.39375 25.2624 1.15625 26.0749 2.15625 26.4562C2.53125 26.5937 2.5625 26.5937 6.375 26.6124C10.1937 26.6312 10.225 26.6312 10.3625 26.4999C10.55 26.3249 10.55 25.9437 10.3687 25.7749C10.2437 25.6624 10.0625 25.6562 6.475 25.6249L2.71875 25.5937L2.325 25.4124C1.825 25.1812 1.31875 24.6499 1.1125 24.1437L0.96875 23.7812L0.93125 13.9874L1.25 14.3687C2.09375 15.3812 3.49375 16.1687 4.675 16.2874L5.05 16.3312L5.075 17.4312C5.09375 18.4187 5.10625 18.5562 5.23125 18.7874C5.44375 19.1812 5.64375 19.3937 6.0125 19.5937C6.30625 19.7624 6.4 19.7812 6.875 19.7812C7.48125 19.7812 7.76875 19.6624 8.15 19.2749C8.575 18.8374 8.6875 18.3937 8.6875 17.1812V16.3749H16.4375V16.6499C16.4375 17.7374 16.8625 19.2187 17.4812 20.2687L17.7687 20.7624L17.3062 21.2249C16.875 21.6624 16.8312 21.6874 16.575 21.6874C16.425 21.6874 16.2125 21.7312 16.1 21.7812C15.9937 21.8312 14.9687 22.8124 13.8312 23.9562C11.4625 26.3249 11.425 26.3812 11.425 27.2249C11.4312 28.0124 11.8 28.6124 12.5187 28.9812C12.8 29.1249 12.9187 29.1499 13.375 29.1499C14.2312 29.1499 14.2312 29.1499 16.6062 26.7937C17.75 25.6562 18.725 24.6374 18.7812 24.5249C18.8312 24.4187 18.875 24.1999 18.875 24.0499C18.875 23.7937 18.9 23.7499 19.3625 23.2999L19.8437 22.8187L20.25 23.0687C22.0687 24.1687 24.6375 24.4374 26.7125 23.7437C27.025 23.6437 27.575 23.3999 27.9312 23.2124L28.575 22.8687L28.55 23.4187C28.5312 23.8937 28.4937 24.0249 28.3187 24.3624C28.0625 24.8312 27.675 25.2062 27.2 25.4249L26.8437 25.5937L22.7812 25.6249C20.55 25.6437 18.675 25.6812 18.6125 25.7062C18.5562 25.7374 18.475 25.8437 18.4312 25.9437C18.3687 26.1062 18.375 26.1687 18.4562 26.3437C18.5125 26.4687 18.6187 26.5749 18.7 26.5937C18.7812 26.6124 20.6875 26.6249 22.9375 26.6124L27.0312 26.5937L27.4062 26.4437C28.4625 26.0187 29.1937 25.2187 29.4687 24.1812C29.5312 23.9624 29.5625 23.5249 29.5625 22.9499V22.0562L29.85 21.7624C30.8812 20.7062 31.6437 19.1999 31.9062 17.7062C32.025 17.0124 32.025 15.6687 31.9062 14.9624C31.6562 13.5374 30.9375 12.0999 29.9562 11.0624L29.5625 10.6437V9.52491C29.5625 8.62491 29.5375 8.31866 29.4437 7.98741C29.1375 6.87491 28.1312 5.92491 27.0125 5.69366C26.8 5.64991 25.625 5.62491 23.6562 5.62491H20.625V4.60616C20.625 3.89366 20.5937 3.48116 20.5312 3.21866C20.225 2.06241 19.2875 1.14366 18.1437 0.906159C17.5375 0.77491 11.8937 0.781159 11.3625 0.912409ZM18.3375 2.02491C18.8125 2.25616 19.2125 2.65616 19.425 3.11241C19.5812 3.44991 19.5937 3.53116 19.6125 4.54366L19.6375 5.62491H18.6875V4.66866C18.6875 3.88116 18.6625 3.67491 18.5687 3.46866C18.4312 3.15616 18.1375 2.89991 17.825 2.81241C17.6812 2.77491 16.5062 2.74991 14.7312 2.74991C11.6562 2.74991 11.6125 2.75616 11.2625 3.08116C10.925 3.39366 10.875 3.60616 10.875 4.65616V5.62491H9.925L9.95 4.51241C9.96875 3.44991 9.975 3.39366 10.1437 3.08116C10.3687 2.64991 10.6437 2.34366 10.9875 2.14366C11.5312 1.82491 11.6125 1.81866 14.9062 1.83116L17.9687 1.84366L18.3375 2.02491ZM17.6125 3.82491C17.6625 3.87491 17.6875 4.17491 17.6875 4.76241V5.62491H11.875V4.76241C11.875 4.17491 11.9 3.87491 11.95 3.82491C12.0562 3.71866 17.5062 3.71866 17.6125 3.82491ZM27.2812 6.85616C27.7437 7.09366 28.125 7.48116 28.3562 7.93741C28.5125 8.24991 28.5312 8.35616 28.55 9.05616C28.5625 9.48116 28.55 9.81866 28.525 9.80616C28.4937 9.79366 28.2875 9.67491 28.0625 9.54991C26.2 8.49366 23.7875 8.26866 21.7125 8.96866C19.8125 9.60616 18.1875 11.0249 17.2687 12.8374C16.9437 13.4749 16.675 14.2749 16.5625 14.9187L16.4812 15.3749H8.70625L8.6625 14.9499C8.55625 13.8874 7.85625 13.2187 6.84375 13.2249C5.875 13.2249 5.15625 13.9124 5.075 14.9187C5.0375 15.3749 5.03125 15.3749 4.40625 15.2187C2.80625 14.8062 1.48125 13.4562 1.0875 11.8437C0.925 11.1874 0.91875 8.66866 1.08125 8.21241C1.3125 7.54991 1.8625 6.98116 2.50625 6.74991C2.8375 6.63116 3.1 6.63116 14.875 6.64366L26.9062 6.65616L27.2812 6.85616ZM25.9062 9.77491C26.65 9.96866 27.7375 10.4874 28.3187 10.9312C29.5125 11.8374 30.4125 13.1937 30.825 14.7062C30.95 15.1499 30.9687 15.3749 30.9687 16.3437C30.9687 17.5812 30.8875 18.0249 30.4937 18.9749C29.85 20.5249 28.4 21.9749 26.85 22.6187C25.9 23.0124 25.4562 23.0937 24.2187 23.0937C23.225 23.0937 23.0312 23.0749 22.5625 22.9437C20.1 22.2499 18.2937 20.4437 17.6437 18.0187C17.5 17.4812 17.4812 17.2812 17.475 16.4062C17.4687 15.3499 17.5187 15.0187 17.7937 14.1874C18.575 11.8624 20.6 10.1249 23.0812 9.64991C23.7937 9.51241 25.1312 9.57491 25.9062 9.77491ZM7.29375 14.3437C7.60625 14.5499 7.65625 14.7124 7.675 15.6687L7.7 16.5624H6.05625L6.075 15.6312C6.09375 14.7374 6.1 14.6874 6.25 14.5312C6.5625 14.1937 6.95625 14.1249 7.29375 14.3437ZM7.6875 17.7624C7.6875 18.3374 7.3875 18.7437 6.925 18.7937C6.4125 18.8437 6.0625 18.4624 6.0625 17.8437V17.5624H7.6875V17.7624ZM18.2812 22.9374L17.6562 22.3124L18.4062 21.5624L19.0312 22.1874L18.2812 22.9374ZM17.2312 23.3249C17.5875 23.6812 17.875 23.9937 17.875 24.0312C17.875 24.0687 17.7687 24.2062 17.6375 24.3312L17.4 24.5624L16.0375 23.1874L16.2812 22.9374C16.4125 22.7999 16.5375 22.6874 16.5562 22.6874C16.575 22.6874 16.8812 22.9749 17.2312 23.3249ZM16.0187 24.6124L16.6875 25.2812L15.3312 26.6374C13.7062 28.2499 13.5562 28.3437 12.9625 28.0624C12.6687 27.9187 12.5062 27.7124 12.4312 27.3937C12.3312 26.9374 12.425 26.8062 13.8937 25.3249C14.6562 24.5624 15.2937 23.9374 15.3125 23.9374C15.3312 23.9374 15.65 24.2374 16.0187 24.6124Z" fill="url(#paint0_linear_383_200)"/>
<path d="M23.3245 10.7561C22.7557 10.8436 21.9557 11.1311 21.3932 11.4436C20.7307 11.8186 19.6932 12.8498 19.3307 13.4998C17.7432 16.3311 18.7495 19.8561 21.5745 21.3373C24.1745 22.7061 27.312 21.9186 28.937 19.4936C29.5745 18.5373 29.9245 17.3623 29.6432 17.1123C29.2682 16.7748 28.8682 16.9811 28.712 17.5873C28.3995 18.7811 27.462 19.9248 26.3057 20.5061C23.6682 21.8311 20.5307 20.3998 19.712 17.4998C19.562 16.9561 19.5557 15.8186 19.7057 15.2498C20.1057 13.7123 21.2932 12.4436 22.7995 11.9311C23.3557 11.7436 23.4745 11.7248 24.187 11.7248C25.0995 11.7186 25.512 11.8123 26.2807 12.1936C27.4495 12.7623 28.2995 13.7748 28.687 15.0561C28.762 15.3061 28.887 15.5623 28.9557 15.6311C29.2495 15.9061 29.7495 15.6686 29.7495 15.2561C29.7495 14.6811 29.2495 13.5811 28.6432 12.8061C27.9307 11.9061 26.7745 11.1561 25.6557 10.8686C25.0745 10.7186 23.9182 10.6623 23.3245 10.7561Z" fill="url(#paint1_linear_383_200)"/>
<defs>
<linearGradient id="paint0_linear_383_200" x1="-2.36652" y1="25.5063" x2="33.4621" y2="15.2188" gradientUnits="userSpaceOnUse">
<stop stop-color="#DF6F34"/>
<stop offset="0.9944" stop-color="#F1CC5F"/>
</linearGradient>
<linearGradient id="paint1_linear_383_200" x1="6.32718" y1="31.3261" x2="45.7006" y2="22.0752" gradientUnits="userSpaceOnUse">
<stop stop-color="#754FFE"/>
<stop offset="0.9944" stop-color="#C812C1"/>
</linearGradient>
</defs>
</svg>
