<svg width="32" height="31" viewBox="0 0 32 31" fill="none" xmlns="http://www.w3.org/2000/svg">
<path d="M4.69998 0.13125C4.24998 0.30625 3.79998 0.7625 3.62498 1.23125C3.44373 1.71875 3.46873 2.51875 3.68123 2.93125C4.29998 4.11875 5.98748 4.38125 6.93748 3.4375C7.93123 2.4375 7.57498 0.6125 6.28123 0.13125C5.81873 -0.04375 5.15623 -0.04375 4.69998 0.13125ZM5.98748 1.1875C6.79998 1.68125 6.44998 2.9375 5.49998 2.9375C5.33123 2.9375 5.13748 2.8875 5.01248 2.8125C4.19998 2.31875 4.54998 1.0625 5.49998 1.0625C5.66873 1.0625 5.86248 1.1125 5.98748 1.1875Z" fill="url(#paint0_linear_383_197)"/>
<path d="M28.2062 0.0875066C27.575 0.293756 27.0187 0.793756 26.7 1.43751C26.5437 1.75001 26.5312 1.84376 26.5312 2.50001C26.5312 3.16876 26.5437 3.24376 26.7125 3.59376C26.95 4.07501 27.425 4.55001 27.9062 4.78751C28.2562 4.95626 28.3312 4.96876 29 4.96876C29.6687 4.96876 29.7437 4.95626 30.0937 4.78751C30.575 4.55001 31.05 4.07501 31.2875 3.59376C31.4562 3.24376 31.4687 3.16876 31.4687 2.50001C31.4687 1.83126 31.4562 1.75626 31.2875 1.40626C31.05 0.925006 30.575 0.450006 30.0937 0.218756C29.7687 0.0562566 29.6437 0.0312565 29.0937 0.0187562C28.6937 0.0062564 28.375 0.0312565 28.2062 0.0875066ZM29.55 1.16251C30.0812 1.38126 30.4375 1.91251 30.4375 2.50001C30.4375 3.30626 29.8062 3.93751 29 3.93751C27.7375 3.93751 27.0875 2.42501 27.9562 1.50626C28.3562 1.08751 29.025 0.943756 29.55 1.16251Z" fill="url(#paint1_linear_383_197)"/>
<path d="M8.21818 3.71875C8.06193 3.94375 7.94318 4.15 7.96818 4.18125C8.00568 4.24375 11.1557 6.4375 11.2057 6.4375C11.2244 6.4375 11.3682 6.25 11.5307 6.025C11.7682 5.68125 11.8057 5.59375 11.7369 5.525C11.6369 5.43125 8.58068 3.3125 8.53693 3.3125C8.52443 3.3125 8.38068 3.49375 8.21818 3.71875Z" fill="url(#paint2_linear_383_197)"/>
<path d="M22.9367 5.80625C21.443 6.7625 20.2242 7.56875 20.2305 7.6C20.2492 7.71875 20.718 8.43125 20.7742 8.4375C20.8055 8.4375 22.0617 7.65625 23.568 6.7C25.568 5.4375 26.2992 4.94375 26.2742 4.875C26.2117 4.6875 25.7805 4.0625 25.718 4.06875C25.6867 4.06875 24.4305 4.85625 22.9367 5.80625Z" fill="url(#paint3_linear_383_197)"/>
<path d="M13.875 6.04375C13.5813 6.15 13.3125 6.5625 13.3125 6.9C13.3125 7.1 13.2812 7.1375 13.05 7.25625C12.9 7.33125 12.7 7.45 12.6062 7.51875C12.4312 7.6375 12.4125 7.6375 12.2125 7.5375C12.0938 7.48125 11.8438 7.4375 11.6625 7.4375C11.1688 7.4375 10.9938 7.5875 10.4563 8.46875C10.0437 9.15 10.0063 9.25 10 9.55625C10 9.95625 10.15 10.2375 10.45 10.4C10.6562 10.5125 10.6562 10.5125 10.6562 11C10.6562 11.4875 10.6562 11.4875 10.45 11.6C10.15 11.7625 10 12.0437 10 12.4437C10.0063 12.75 10.0437 12.85 10.4563 13.5312C10.9938 14.4125 11.1687 14.5625 11.6687 14.5625C11.8562 14.5625 12.0875 14.5187 12.1875 14.4687C12.3625 14.375 12.375 14.35 12.375 13.9812C12.375 13.7687 12.3938 13.5312 12.4125 13.45C12.45 13.3312 12.4313 13.3125 12.2563 13.3125C12.1438 13.3125 11.975 13.3562 11.875 13.4062L11.7 13.5L11.4 12.9937L11.1062 12.4875L11.2563 12.3687C11.3375 12.3062 11.4187 12.25 11.4375 12.25C11.4563 12.25 11.525 12.1562 11.5938 12.0437C11.6938 11.8812 11.7188 11.7062 11.725 11.0625C11.7375 10.3937 11.7188 10.2437 11.6125 10.0125C11.5437 9.86875 11.4688 9.75 11.45 9.75C11.425 9.75 11.3375 9.69375 11.2563 9.63125L11.1062 9.5125L11.4 9.00625L11.7 8.5L11.8938 8.6C12.225 8.775 12.6125 8.7375 13.0312 8.49375C13.2375 8.375 13.5437 8.2125 13.7188 8.125C14.0813 7.94375 14.2875 7.6625 14.35 7.275L14.3875 7H15.6062L15.65 7.3125C15.7 7.70625 15.9062 7.95625 16.3688 8.18125C16.5625 8.275 16.8563 8.43125 17.025 8.53125C17.3813 8.7375 17.7938 8.7625 18.1063 8.6L18.3 8.5L18.5875 8.99375C18.7437 9.2625 18.875 9.5 18.875 9.51875C18.875 9.54375 18.7938 9.6 18.6875 9.65625C18.3563 9.825 18.2625 10.1125 18.2625 11C18.2625 11.825 18.3563 12.1625 18.6125 12.3062C18.9062 12.4812 18.9062 12.4625 18.6 12.9937L18.3 13.5L18.125 13.4062C18.025 13.3562 17.8563 13.3125 17.75 13.3125H17.5625V14.35L17.7812 14.4562C17.9062 14.5125 18.1562 14.5625 18.3375 14.5625C18.8312 14.5625 19.0063 14.4125 19.5438 13.5312C19.9625 12.8312 19.9937 12.7562 20 12.425C20 12.0937 19.9813 12.0375 19.775 11.8125C19.6562 11.6812 19.5063 11.55 19.45 11.5375C19.3625 11.5062 19.3438 11.4125 19.3438 11.0062V10.5125L19.55 10.4C19.8375 10.2437 20.0063 9.94375 20.0125 9.56875C20.0125 9.29375 19.9625 9.175 19.5875 8.55C19.1 7.73125 19.0312 7.64375 18.7875 7.51875C18.5563 7.4 18.0562 7.40625 17.8125 7.53125C17.6375 7.61875 17.6125 7.6125 17.1625 7.36875C16.7125 7.125 16.6875 7.1 16.6875 6.9C16.6875 6.625 16.5562 6.375 16.3125 6.1625C16.1187 6 16.1125 6 15.0437 6.00625C14.45 6.00625 13.925 6.025 13.875 6.04375Z" fill="url(#paint4_linear_383_197)"/>
<path d="M14.6375 8.75C13.8938 8.85625 13.1438 9.45625 12.8813 10.1562C12.7313 10.5562 12.7063 11.3 12.825 11.6937C12.9063 11.975 12.95 11.9937 13.0813 11.7937C13.1313 11.7125 13.3125 11.55 13.4875 11.4312C13.7938 11.225 13.8 11.2125 13.825 10.8625C13.8688 10.2312 14.3625 9.78125 15 9.78125C15.6375 9.78125 16.1313 10.2312 16.175 10.8625C16.2 11.2125 16.2063 11.225 16.5125 11.4312C16.6875 11.55 16.8688 11.7125 16.9188 11.7937C16.975 11.875 17.0375 11.9375 17.0625 11.9375C17.15 11.9375 17.25 11.4437 17.25 10.9812C17.25 10.2937 17.0813 9.88125 16.6 9.4C16.05 8.85625 15.4188 8.64375 14.6375 8.75Z" fill="url(#paint5_linear_383_197)"/>
<path d="M21.2259 12.2313C21.0697 12.4563 20.9572 12.6688 20.9697 12.6938C21.0134 12.7563 24.4134 14.9375 24.4759 14.9375C24.5072 14.9375 24.6509 14.75 24.8009 14.5188C25.0072 14.1875 25.0509 14.0813 24.9884 14.025C24.8884 13.9375 21.5759 11.8125 21.5322 11.8125C21.5197 11.8125 21.3759 12 21.2259 12.2313Z" fill="url(#paint6_linear_383_197)"/>
<path d="M14.3434 12.1188C14.2059 12.1813 14.0059 12.3313 13.8934 12.4438C13.4872 12.875 13.4997 12.6875 13.4997 17.3563V21.5875L13.3309 21.4188C12.8622 20.975 11.9247 20.825 11.3059 21.1063C10.4497 21.4875 9.99342 22.5125 10.2934 23.375C10.4184 23.75 12.7934 27.3625 13.1809 27.7688C13.3059 27.9 13.5809 28.125 13.7997 28.2688L14.1872 28.525V31H15.2497V29.5438C15.2497 28.5188 15.2247 28.05 15.1684 27.9438C15.1309 27.8563 14.9247 27.6875 14.7122 27.5688C14.5059 27.4438 14.2309 27.2563 14.1122 27.1563C13.7997 26.9 11.3122 23.1813 11.2684 22.9188C11.1747 22.3188 11.8434 21.8063 12.3872 22.0688C12.4684 22.1063 12.6934 22.325 12.8872 22.5563C13.6997 23.4875 13.7122 23.5 13.9934 23.5C14.1684 23.5 14.2872 23.4625 14.3747 23.375C14.4997 23.25 14.4997 23.1688 14.4997 18.4063C14.4997 13.125 14.4997 13.175 14.8372 13.0875C15.1122 13.0188 15.3122 13.1125 15.4122 13.3438C15.4872 13.525 15.4997 14.1875 15.4997 17.2813V21H16.4997V19.5313C16.4997 17.9063 16.5434 17.6625 16.8372 17.5875C17.1122 17.5188 17.3122 17.6125 17.4122 17.8438C17.4809 18.0125 17.4997 18.3938 17.4997 19.5313V21H18.4997V20.0313C18.4997 18.9375 18.5684 18.6563 18.8372 18.5875C18.9247 18.5688 19.0747 18.5688 19.1622 18.5875C19.4309 18.6563 19.4997 18.9375 19.4997 20.0313V21H20.4997V20.5313C20.4997 19.9625 20.6122 19.6438 20.8372 19.5875C21.0622 19.5313 21.2934 19.6063 21.3747 19.75C21.4684 19.925 21.4622 24.725 21.3684 25.1188C21.2559 25.5688 20.9059 26.2563 20.6184 26.5875C20.4747 26.75 20.1622 27.0375 19.9247 27.225L19.4997 27.5688V31H20.5622L20.5684 29.5438V28.0938L20.9059 27.8313C21.5622 27.3125 22.1434 26.3688 22.3747 25.4563C22.4872 25.0188 22.4997 24.7563 22.4997 22.2875C22.4997 19.25 22.5059 19.3063 22.0184 18.8688C21.6872 18.5688 21.3997 18.4813 20.8747 18.5125C20.4684 18.5312 20.4434 18.525 20.4059 18.3875C20.3497 18.1562 19.8872 17.7063 19.5934 17.5875C19.3997 17.5188 19.1872 17.4938 18.8809 17.5125C18.4684 17.5312 18.4434 17.525 18.4059 17.3875C18.3497 17.1562 17.8872 16.7063 17.5934 16.5938C17.4122 16.525 17.1934 16.4938 16.9122 16.5125L16.4997 16.5313V14.8125C16.4997 13.2688 16.4872 13.0688 16.3809 12.8438C16.2372 12.5375 15.9184 12.225 15.6122 12.1C15.2872 11.9625 14.6559 11.975 14.3434 12.1188Z" fill="url(#paint7_linear_383_197)"/>
<path d="M7.46952 14.5313C6.54452 15.0625 5.77577 15.525 5.76327 15.5625C5.73202 15.6438 6.18202 16.4375 6.25702 16.4375C6.35702 16.4375 9.75077 14.475 9.75077 14.4188C9.75077 14.3063 9.30077 13.5625 9.23202 13.5625C9.18827 13.5625 8.40077 14 7.46952 14.5313Z" fill="url(#paint8_linear_383_197)"/>
<path d="M26.7 14.1313C26.25 14.3063 25.8 14.7625 25.625 15.2313C25.4438 15.7188 25.4688 16.5188 25.6813 16.9313C26.3 18.1188 27.9875 18.3813 28.9375 17.4375C29.325 17.0438 29.5 16.6 29.5 16C29.5 14.8125 28.675 13.9938 27.4813 14.0063C27.1875 14.0063 26.9188 14.05 26.7 14.1313ZM27.9875 15.1875C28.5875 15.5563 28.5875 16.4438 27.9875 16.8125C27.7188 16.975 27.2813 16.975 27.0125 16.8125C26.2 16.3188 26.55 15.0625 27.5 15.0625C27.6688 15.0625 27.8625 15.1125 27.9875 15.1875Z" fill="url(#paint9_linear_383_197)"/>
<path d="M2.20625 15.5875C1.575 15.7937 1.01875 16.2937 0.7 16.9375C0.54375 17.25 0.53125 17.3437 0.53125 18C0.53125 18.6687 0.54375 18.7437 0.7125 19.0937C0.95 19.575 1.425 20.05 1.90625 20.2875C2.25625 20.4562 2.33125 20.4687 3 20.4687C3.66875 20.4687 3.74375 20.4562 4.09375 20.2875C4.575 20.05 5.05 19.575 5.2875 19.0937C5.45625 18.7437 5.46875 18.6687 5.46875 18C5.46875 17.3312 5.45625 17.2562 5.2875 16.9062C5.05 16.425 4.575 15.95 4.09375 15.7187C3.76875 15.5562 3.64375 15.5312 3.09375 15.5187C2.69375 15.5062 2.375 15.5312 2.20625 15.5875ZM3.55 16.6625C4.50625 17.0562 4.74375 18.3312 3.99375 19.0437C3.075 19.9125 1.5625 19.2687 1.5625 18C1.5625 17.4312 1.85625 16.9562 2.375 16.6812C2.65 16.5375 3.23125 16.525 3.55 16.6625Z" fill="url(#paint10_linear_383_197)"/>
<defs>
<linearGradient id="paint0_linear_383_197" x1="0.16605" y1="16.1524" x2="5.78952" y2="17.5781" gradientUnits="userSpaceOnUse">
<stop stop-color="#DF6F34"/>
<stop offset="0.9944" stop-color="#F1CC5F"/>
</linearGradient>
<linearGradient id="paint1_linear_383_197" x1="0.16605" y1="16.1524" x2="5.78952" y2="17.5781" gradientUnits="userSpaceOnUse">
<stop stop-color="#DF6F34"/>
<stop offset="0.9944" stop-color="#F1CC5F"/>
</linearGradient>
<linearGradient id="paint2_linear_383_197" x1="0.16605" y1="16.1524" x2="5.78952" y2="17.5781" gradientUnits="userSpaceOnUse">
<stop stop-color="#DF6F34"/>
<stop offset="0.9944" stop-color="#F1CC5F"/>
</linearGradient>
<linearGradient id="paint3_linear_383_197" x1="0.16605" y1="16.1524" x2="5.78952" y2="17.5781" gradientUnits="userSpaceOnUse">
<stop stop-color="#DF6F34"/>
<stop offset="0.9944" stop-color="#F1CC5F"/>
</linearGradient>
<linearGradient id="paint4_linear_383_197" x1="0.16605" y1="16.1524" x2="5.78952" y2="17.5781" gradientUnits="userSpaceOnUse">
<stop stop-color="#DF6F34"/>
<stop offset="0.9944" stop-color="#F1CC5F"/>
</linearGradient>
<linearGradient id="paint5_linear_383_197" x1="0.16605" y1="16.1524" x2="5.78952" y2="17.5781" gradientUnits="userSpaceOnUse">
<stop stop-color="#DF6F34"/>
<stop offset="0.9944" stop-color="#F1CC5F"/>
</linearGradient>
<linearGradient id="paint6_linear_383_197" x1="0.16605" y1="16.1524" x2="5.78952" y2="17.5781" gradientUnits="userSpaceOnUse">
<stop stop-color="#DF6F34"/>
<stop offset="0.9944" stop-color="#F1CC5F"/>
</linearGradient>
<linearGradient id="paint7_linear_383_197" x1="-33.396" y1="-25.575" x2="75.5382" y2="0.253377" gradientUnits="userSpaceOnUse">
<stop stop-color="#754FFE"/>
<stop offset="0.9944" stop-color="#C812C1"/>
</linearGradient>
<linearGradient id="paint8_linear_383_197" x1="0.16605" y1="16.1524" x2="5.78952" y2="17.5781" gradientUnits="userSpaceOnUse">
<stop stop-color="#DF6F34"/>
<stop offset="0.9944" stop-color="#F1CC5F"/>
</linearGradient>
<linearGradient id="paint9_linear_383_197" x1="0.16605" y1="16.1524" x2="5.78952" y2="17.5781" gradientUnits="userSpaceOnUse">
<stop stop-color="#DF6F34"/>
<stop offset="0.9944" stop-color="#F1CC5F"/>
</linearGradient>
<linearGradient id="paint10_linear_383_197" x1="0.16605" y1="16.1524" x2="5.78952" y2="17.5781" gradientUnits="userSpaceOnUse">
<stop stop-color="#DF6F34"/>
<stop offset="0.9944" stop-color="#F1CC5F"/>
</linearGradient>
</defs>
</svg>
