<svg width="28" height="32" viewBox="0 0 28 32" fill="none" xmlns="http://www.w3.org/2000/svg">
<path d="M4.46977 0.0939735C2.72602 0.475224 1.27602 1.80022 0.713516 3.53147C0.582266 3.93147 0.544766 4.19397 0.513516 4.85647C0.463516 6.25647 0.501016 6.35647 2.21977 9.80647L3.66977 12.7252L3.11352 12.9065C2.43852 13.119 1.90102 13.4315 1.48852 13.8252C0.694766 14.6002 0.738516 15.644 1.60102 16.4315C2.76977 17.5002 5.45727 17.919 7.65727 17.3752C8.12602 17.2565 9.01352 16.8752 9.27602 16.6752C9.37602 16.594 9.51352 16.6127 10.4573 16.8252C11.726 17.1065 12.0073 17.1252 12.2198 16.9127C12.4948 16.6377 12.501 16.244 12.226 15.9752C12.1323 15.8815 11.9198 15.794 11.5885 15.719C11.3198 15.6627 10.9073 15.569 10.676 15.519L10.251 15.4252V15.1002C10.251 14.1502 9.45102 13.3377 8.07602 12.9002C7.77602 12.8065 7.52602 12.7252 7.51352 12.7127C7.50102 12.7065 8.13852 11.4127 8.92602 9.83147C9.71977 8.25647 10.426 6.75647 10.5073 6.50022C10.6323 6.10022 10.6573 5.90022 10.6573 5.09397C10.6573 4.04397 10.5635 3.63147 10.151 2.78772C9.63852 1.75647 8.70727 0.868975 7.63852 0.393975C6.79477 0.0189746 5.40102 -0.112276 4.46977 0.0939735ZM6.52602 1.41272C7.08852 1.55647 7.72602 1.91897 8.18852 2.35647C8.91977 3.04397 9.30102 3.87522 9.35727 4.87522C9.41352 5.89397 9.39477 5.93147 7.39477 9.95647L5.59477 13.5627L3.80102 9.97522C2.75727 7.88772 1.96977 6.23147 1.91352 6.01272C1.78852 5.53147 1.78852 4.63147 1.90727 4.15647C2.25102 2.84397 3.31977 1.76272 4.63227 1.41272C5.08852 1.28772 6.04477 1.28772 6.52602 1.41272ZM4.65727 14.694C4.86352 15.1127 5.10102 15.5065 5.18227 15.569C5.34477 15.7002 5.74477 15.7252 5.94477 15.6252C6.01352 15.5877 6.25102 15.194 6.46977 14.744C6.86352 13.9627 6.88227 13.9377 7.05102 13.9752C7.98852 14.1815 8.93852 14.7252 8.93852 15.0502C8.93852 15.2502 8.66977 15.5252 8.26977 15.7315C7.80727 15.9752 7.37602 16.1065 6.62602 16.219C5.03852 16.4627 3.26352 16.1252 2.46977 15.4315C2.07602 15.0815 2.22602 14.769 2.96977 14.4002C3.33227 14.219 4.02602 13.9752 4.25102 13.944C4.26977 13.9377 4.45727 14.2752 4.65727 14.694Z" fill="black"/>
<path d="M4.46977 0.0939735C2.72602 0.475224 1.27602 1.80022 0.713516 3.53147C0.582266 3.93147 0.544766 4.19397 0.513516 4.85647C0.463516 6.25647 0.501016 6.35647 2.21977 9.80647L3.66977 12.7252L3.11352 12.9065C2.43852 13.119 1.90102 13.4315 1.48852 13.8252C0.694766 14.6002 0.738516 15.644 1.60102 16.4315C2.76977 17.5002 5.45727 17.919 7.65727 17.3752C8.12602 17.2565 9.01352 16.8752 9.27602 16.6752C9.37602 16.594 9.51352 16.6127 10.4573 16.8252C11.726 17.1065 12.0073 17.1252 12.2198 16.9127C12.4948 16.6377 12.501 16.244 12.226 15.9752C12.1323 15.8815 11.9198 15.794 11.5885 15.719C11.3198 15.6627 10.9073 15.569 10.676 15.519L10.251 15.4252V15.1002C10.251 14.1502 9.45102 13.3377 8.07602 12.9002C7.77602 12.8065 7.52602 12.7252 7.51352 12.7127C7.50102 12.7065 8.13852 11.4127 8.92602 9.83147C9.71977 8.25647 10.426 6.75647 10.5073 6.50022C10.6323 6.10022 10.6573 5.90022 10.6573 5.09397C10.6573 4.04397 10.5635 3.63147 10.151 2.78772C9.63852 1.75647 8.70727 0.868975 7.63852 0.393975C6.79477 0.0189746 5.40102 -0.112276 4.46977 0.0939735ZM6.52602 1.41272C7.08852 1.55647 7.72602 1.91897 8.18852 2.35647C8.91977 3.04397 9.30102 3.87522 9.35727 4.87522C9.41352 5.89397 9.39477 5.93147 7.39477 9.95647L5.59477 13.5627L3.80102 9.97522C2.75727 7.88772 1.96977 6.23147 1.91352 6.01272C1.78852 5.53147 1.78852 4.63147 1.90727 4.15647C2.25102 2.84397 3.31977 1.76272 4.63227 1.41272C5.08852 1.28772 6.04477 1.28772 6.52602 1.41272ZM4.65727 14.694C4.86352 15.1127 5.10102 15.5065 5.18227 15.569C5.34477 15.7002 5.74477 15.7252 5.94477 15.6252C6.01352 15.5877 6.25102 15.194 6.46977 14.744C6.86352 13.9627 6.88227 13.9377 7.05102 13.9752C7.98852 14.1815 8.93852 14.7252 8.93852 15.0502C8.93852 15.2502 8.66977 15.5252 8.26977 15.7315C7.80727 15.9752 7.37602 16.1065 6.62602 16.219C5.03852 16.4627 3.26352 16.1252 2.46977 15.4315C2.07602 15.0815 2.22602 14.769 2.96977 14.4002C3.33227 14.219 4.02602 13.9752 4.25102 13.944C4.26977 13.9377 4.45727 14.2752 4.65727 14.694Z" fill="url(#paint0_linear_383_185)"/>
<path d="M4.81413 2.619C2.92663 3.22526 2.37663 5.61901 3.82038 6.96901C4.83913 7.91901 6.42663 7.89401 7.41413 6.91276C8.81413 5.50651 8.16413 3.08776 6.25163 2.58775C5.80163 2.46901 5.23288 2.4815 4.81413 2.619ZM6.09538 3.9315C6.83288 4.26276 7.08913 5.16276 6.62663 5.80026C6.16413 6.44401 5.35163 6.55026 4.77038 6.04401C4.30163 5.63151 4.19538 5.05651 4.48913 4.49401C4.79538 3.90651 5.50163 3.66276 6.09538 3.9315Z" fill="url(#paint1_linear_383_185)"/>
<path d="M14.0207 16.3564C13.8207 16.3939 13.5645 16.7251 13.5645 16.9439C13.5645 17.6564 14.4895 17.8939 14.7895 17.2626C15.027 16.7626 14.5832 16.2439 14.0207 16.3564Z" fill="url(#paint2_linear_383_185)"/>
<path d="M21.3377 16.4691C20.5002 16.6191 19.6252 16.9379 19.1939 17.2504L19.0064 17.3754L17.8814 17.1254C17.2564 16.9879 16.6752 16.8754 16.5877 16.8754C16.4877 16.8754 16.3439 16.9566 16.2127 17.0879C15.9377 17.3629 15.9189 17.6629 16.1752 17.9379C16.3252 18.1066 16.4502 18.1504 17.2502 18.3316L18.1564 18.5379L18.1627 18.7566C18.1877 19.5754 18.4689 20.0504 19.2252 20.5566C19.4877 20.7316 19.7377 20.8754 19.7877 20.8754C19.9439 20.8754 19.8814 20.9691 19.3439 21.5504C18.8627 22.0754 18.8127 22.1504 18.8127 22.3754C18.8127 22.7004 18.9564 22.9129 19.2252 23.0004C19.6064 23.1254 19.8002 23.0066 20.6002 22.1566L21.3314 21.3879L22.4002 21.4191C23.6002 21.4629 24.2064 21.4004 25.0939 21.1504C26.5939 20.7254 27.5002 19.8816 27.5002 18.9129C27.4939 17.7191 26.2877 16.8129 24.2502 16.4691C23.5939 16.3566 21.9502 16.3566 21.3377 16.4691ZM24.5439 17.8629C25.4564 18.1129 26.1877 18.5754 26.1877 18.9066C26.1877 19.2316 25.4502 19.6941 24.5314 19.9504C24.1002 20.0691 23.8689 20.0879 22.8439 20.0879C21.8127 20.0879 21.5939 20.0691 21.1564 19.9504C20.5002 19.7691 19.9564 19.5066 19.7002 19.2566C19.3877 18.9379 19.4439 18.6941 19.8939 18.3879C20.2752 18.1316 20.7689 17.9379 21.3752 17.8066C22.1064 17.6441 23.8689 17.6754 24.5439 17.8629Z" fill="url(#paint3_linear_383_185)"/>
<path d="M17.2441 23.7441C16.8378 24.1566 17.1191 24.8129 17.7066 24.8129C18.1378 24.8129 18.4128 24.4691 18.3253 24.0316C18.2378 23.5629 17.6003 23.3941 17.2441 23.7441Z" fill="url(#paint4_linear_383_185)"/>
<path d="M15.6823 25.4002C15.5948 25.444 15.1885 25.819 14.7885 26.2377L14.0573 26.9877L12.951 26.9565C11.401 26.9065 10.451 27.069 9.40104 27.569C8.79479 27.8565 8.30104 28.2815 8.08854 28.7002C7.48854 29.8877 8.26354 31.044 10.076 31.6502C11.1198 32.0002 12.8385 32.1127 14.0323 31.9002C15.6698 31.619 16.876 30.8752 17.151 29.9815C17.4323 29.0815 16.951 28.2002 15.8635 27.6252L15.4948 27.4252L16.0198 26.8815C16.601 26.2815 16.6885 26.0815 16.5323 25.7127C16.4698 25.569 16.3698 25.469 16.226 25.4065C15.9573 25.294 15.8885 25.294 15.6823 25.4002ZM14.251 28.4315C14.8135 28.5815 15.5448 28.9377 15.7448 29.1502C16.1573 29.594 15.651 30.094 14.4073 30.4752C13.8698 30.644 13.7823 30.6502 12.5635 30.6502C11.3448 30.6502 11.2573 30.644 10.7198 30.4752C10.4135 30.3815 10.026 30.2315 9.85729 30.1377C9.53854 29.969 9.18854 29.619 9.18854 29.469C9.18854 29.169 10.0135 28.6565 10.8448 28.444C11.576 28.2627 11.6198 28.2565 12.751 28.2815C13.5448 28.3002 13.8885 28.3315 14.251 28.4315Z" fill="url(#paint5_linear_383_185)"/>
<defs>
<linearGradient id="paint0_linear_383_185" x1="-29.1053" y1="-26.4126" x2="67.4267" y2="-7.06998" gradientUnits="userSpaceOnUse">
<stop stop-color="#754FFE"/>
<stop offset="0.9944" stop-color="#C812C1"/>
</linearGradient>
<linearGradient id="paint1_linear_383_185" x1="7.19774" y1="26.1811" x2="17.2515" y2="29.7532" gradientUnits="userSpaceOnUse">
<stop stop-color="#DF6F34"/>
<stop offset="0.9944" stop-color="#F1CC5F"/>
</linearGradient>
<linearGradient id="paint2_linear_383_185" x1="7.19774" y1="26.1811" x2="17.2515" y2="29.7532" gradientUnits="userSpaceOnUse">
<stop stop-color="#DF6F34"/>
<stop offset="0.9944" stop-color="#F1CC5F"/>
</linearGradient>
<linearGradient id="paint3_linear_383_185" x1="7.19774" y1="26.1811" x2="17.2515" y2="29.7532" gradientUnits="userSpaceOnUse">
<stop stop-color="#DF6F34"/>
<stop offset="0.9944" stop-color="#F1CC5F"/>
</linearGradient>
<linearGradient id="paint4_linear_383_185" x1="7.19774" y1="26.1811" x2="17.2515" y2="29.7532" gradientUnits="userSpaceOnUse">
<stop stop-color="#DF6F34"/>
<stop offset="0.9944" stop-color="#F1CC5F"/>
</linearGradient>
<linearGradient id="paint5_linear_383_185" x1="7.19774" y1="26.1811" x2="17.2515" y2="29.7532" gradientUnits="userSpaceOnUse">
<stop stop-color="#DF6F34"/>
<stop offset="0.9944" stop-color="#F1CC5F"/>
</linearGradient>
</defs>
</svg>
