<svg width="189" height="702" viewBox="0 0 189 702" fill="none" xmlns="http://www.w3.org/2000/svg">
<g opacity="0.5">
<g opacity="0.82">
<path d="M402.016 285.766H325.416L298.472 271.833H259.592L239.376 296.988H128.277L104.955 284.411H38.4531" stroke="url(#paint0_linear_312_2788)" stroke-opacity="0.5" stroke-width="1.2" stroke-miterlimit="10"/>
<path d="M38.5972 287.241C37.0345 287.241 35.7667 285.973 35.7667 284.411C35.7667 282.848 37.0345 281.58 38.5972 281.58C40.16 281.58 41.4277 282.848 41.4277 284.411C41.4277 285.973 40.16 287.241 38.5972 287.241Z" fill="url(#paint1_linear_312_2788)"/>
</g>
<g opacity="0.82">
<path d="M402.016 293.121H324.964L297.569 278.931L262.78 279.188L241.787 304.349H128.277L104.955 291.766H2.69178" stroke="url(#paint2_linear_312_2788)" stroke-opacity="0.5" stroke-width="1.2" stroke-miterlimit="10"/>
<path d="M2.82962 294.602C1.26687 294.602 -0.000907898 293.334 -0.000907898 291.772C-0.000907898 290.209 1.26687 288.941 2.82962 288.941C4.39238 288.941 5.66016 290.209 5.66016 291.772C5.66016 293.334 4.39238 294.602 2.82962 294.602Z" fill="url(#paint3_linear_312_2788)"/>
</g>
<path d="M402.018 297.408H324.966L297.571 283.218L262.782 283.475L241.788 308.63H130.971" stroke="url(#paint4_linear_312_2788)" stroke-opacity="0.5" stroke-width="1.2" stroke-miterlimit="10"/>
<path d="M131.117 311.46C129.554 311.46 128.286 310.193 128.286 308.63C128.286 307.067 129.554 305.799 131.117 305.799C132.679 305.799 133.947 307.067 133.947 308.63C133.947 310.193 132.679 311.46 131.117 311.46Z" fill="url(#paint5_linear_312_2788)"/>
<g opacity="0.82">
<path d="M402.016 345.772H362.614L339.292 333.195H234.337L219.017 321.107H166.366L151.844 332.561H98.9046" stroke="url(#paint6_linear_312_2788)" stroke-opacity="0.5" stroke-width="1.2" stroke-miterlimit="10"/>
<path d="M99.0689 335.818C97.2677 335.818 95.8116 334.362 95.8116 332.561C95.8116 330.76 97.2677 329.303 99.0689 329.303C100.87 329.303 102.326 330.76 102.326 332.561C102.326 334.362 100.87 335.818 99.0689 335.818Z" fill="url(#paint7_linear_312_2788)"/>
</g>
<path d="M195.021 445.33H142.371L129.963 455.12" stroke="url(#paint8_linear_312_2788)" stroke-opacity="0.5" stroke-width="1.2" stroke-miterlimit="10"/>
<path d="M131.826 457.254C130.596 458.221 128.819 458.014 127.847 456.784C126.88 455.553 127.087 453.777 128.317 452.804C129.547 451.838 131.324 452.045 132.296 453.275C133.263 454.505 133.056 456.281 131.826 457.254Z" fill="url(#paint9_linear_312_2788)"/>
<path d="M217.07 456.074H164.42L152.012 465.865" stroke="url(#paint10_linear_312_2788)" stroke-opacity="0.5" stroke-width="1.2" stroke-miterlimit="10"/>
<path d="M153.874 467.999C152.644 468.965 150.868 468.758 149.895 467.528C148.929 466.298 149.136 464.522 150.366 463.549C151.596 462.583 153.372 462.79 154.345 464.02C155.312 465.25 155.105 467.026 153.874 467.999Z" fill="url(#paint11_linear_312_2788)"/>
<path d="M171.101 407.334H296.504L319.826 394.757H398.623" stroke="url(#paint12_linear_312_2788)" stroke-opacity="0.5" stroke-width="1.2" stroke-miterlimit="10"/>
<path d="M171.264 404.083C169.463 404.083 168.007 405.539 168.007 407.34C168.007 409.142 169.463 410.598 171.264 410.598C173.065 410.598 174.521 409.142 174.521 407.34C174.521 405.539 173.065 404.083 171.264 404.083Z" fill="url(#paint13_linear_312_2788)"/>
<g opacity="0.82">
<path d="M29.8074 418.086H296.504L319.826 405.502H398.623" stroke="url(#paint14_linear_312_2788)" stroke-opacity="0.5" stroke-width="1.2" stroke-miterlimit="10"/>
<path d="M29.9713 414.828C28.17 414.828 26.7139 416.284 26.7139 418.085C26.7139 419.887 28.17 421.343 29.9713 421.343C31.7725 421.343 33.2285 419.887 33.2285 418.085C33.2285 416.284 31.7725 414.828 29.9713 414.828Z" fill="url(#paint15_linear_312_2788)"/>
</g>
<path d="M402.018 375.113H302.077L292.537 382.638H147.484" stroke="url(#paint16_linear_312_2788)" stroke-opacity="0.5" stroke-width="1.2" stroke-miterlimit="10"/>
<path d="M147.621 385.468C146.058 385.468 144.79 384.2 144.79 382.638C144.79 381.075 146.058 379.807 147.621 379.807C149.183 379.807 150.451 381.075 150.451 382.638C150.451 384.2 149.183 385.468 147.621 385.468Z" fill="url(#paint17_linear_312_2788)"/>
<g opacity="0.82">
<path d="M264.305 554.852L213.951 553.885L170.709 510.047L76.6867 508.246" stroke="url(#paint18_linear_312_2788)" stroke-opacity="0.5" stroke-width="1.2" stroke-miterlimit="10"/>
<path d="M76.7765 511.077C75.2137 511.045 73.971 509.752 74.0024 508.19C74.0338 506.627 75.3267 505.384 76.8894 505.416C78.4522 505.447 79.6949 506.74 79.6635 508.303C79.6321 509.865 78.3392 511.108 76.7765 511.077Z" fill="url(#paint19_linear_312_2788)"/>
</g>
<path d="M196.652 597.047L148.533 548.256L120.9 547.723" stroke="url(#paint20_linear_312_2788)" stroke-opacity="0.5" stroke-width="1.2" stroke-miterlimit="10"/>
<path d="M120.987 550.56C119.425 550.528 118.182 549.235 118.213 547.673C118.245 546.11 119.538 544.867 121.1 544.899C122.663 544.93 123.906 546.223 123.874 547.786C123.843 549.348 122.55 550.591 120.987 550.56Z" fill="url(#paint21_linear_312_2788)"/>
<path d="M201.958 541.729L203.42 505.001L173.671 476.74" stroke="url(#paint22_linear_312_2788)" stroke-opacity="0.5" stroke-width="1.2" stroke-miterlimit="10"/>
<path d="M171.826 478.886C170.69 477.807 170.646 476.018 171.725 474.882C172.805 473.746 174.593 473.702 175.729 474.781C176.865 475.861 176.909 477.65 175.83 478.786C174.75 479.922 172.962 479.966 171.826 478.886Z" fill="url(#paint23_linear_312_2788)"/>
<path d="M54.415 437.886H119.8L146.762 427.97" stroke="url(#paint24_linear_312_2788)" stroke-opacity="0.5" stroke-width="1.2" stroke-miterlimit="10"/>
<path d="M54.5542 435.056C52.9915 435.056 51.7237 436.324 51.7237 437.887C51.7237 439.449 52.9915 440.717 54.5542 440.717C56.117 440.717 57.3848 439.449 57.3848 437.887C57.3848 436.324 56.117 435.056 54.5542 435.056Z" fill="url(#paint25_linear_312_2788)"/>
<g opacity="0.82">
<path d="M40.8157 379.38H121.57L151.815 398.604H189.604" stroke="url(#paint26_linear_312_2788)" stroke-opacity="0.5" stroke-width="1.2" stroke-miterlimit="10"/>
<path d="M40.9527 376.549C39.3899 376.549 38.1221 377.817 38.1221 379.38C38.1221 380.943 39.3899 382.21 40.9527 382.21C42.5154 382.21 43.7832 380.943 43.7832 379.38C43.7832 377.817 42.5154 376.549 40.9527 376.549Z" fill="url(#paint27_linear_312_2788)"/>
</g>
<path d="M214.455 383.724L199.342 370.927H178.211" stroke="url(#paint28_linear_312_2788)" stroke-opacity="0.5" stroke-width="1.2" stroke-miterlimit="10"/>
<path d="M178.347 373.757C176.784 373.757 175.517 372.489 175.517 370.927C175.517 369.364 176.784 368.096 178.347 368.096C179.91 368.096 181.178 369.364 181.178 370.927C181.178 372.489 179.91 373.757 178.347 373.757Z" fill="url(#paint29_linear_312_2788)"/>
<path d="M192.23 418.16L177.708 429.621H79.4049" stroke="url(#paint30_linear_312_2788)" stroke-opacity="0.5" stroke-width="1.2" stroke-miterlimit="10"/>
<path d="M79.5688 432.878C77.7676 432.878 76.3116 431.422 76.3116 429.621C76.3116 427.819 77.7676 426.363 79.5688 426.363C81.3701 426.363 82.8262 427.819 82.8262 429.621C82.8262 431.422 81.3701 432.878 79.5688 432.878Z" fill="url(#paint31_linear_312_2788)"/>
<path d="M190.796 161.813C189.409 161.085 188.875 159.378 189.603 157.991C190.331 156.604 192.038 156.07 193.425 156.798C194.812 157.526 195.346 159.233 194.618 160.62C193.89 162.007 192.183 162.541 190.796 161.813Z" fill="white"/>
</g>
<defs>
<linearGradient id="paint0_linear_312_2788" x1="800.712" y1="251.081" x2="695.002" y2="614.064" gradientUnits="userSpaceOnUse">
<stop stop-color="#754FFE"/>
<stop offset="0.543903" stop-color="#A62BDA" stop-opacity="0"/>
<stop offset="0.624554" stop-color="#AD26D5"/>
<stop offset="0.682701" stop-color="#C812C1"/>
</linearGradient>
<linearGradient id="paint1_linear_312_2788" x1="47.6359" y1="276.91" x2="27.707" y2="281.644" gradientUnits="userSpaceOnUse">
<stop stop-color="#754FFE"/>
<stop offset="0.9944" stop-color="#C812C1"/>
</linearGradient>
<linearGradient id="paint2_linear_312_2788" x1="839.929" y1="257.961" x2="740.464" y2="629.206" gradientUnits="userSpaceOnUse">
<stop stop-color="#754FFE"/>
<stop offset="0.543903" stop-color="#A62BDA" stop-opacity="0"/>
<stop offset="0.624554" stop-color="#AD26D5"/>
<stop offset="0.682701" stop-color="#C812C1"/>
</linearGradient>
<linearGradient id="paint3_linear_312_2788" x1="11.8683" y1="284.271" x2="-8.06063" y2="289.005" gradientUnits="userSpaceOnUse">
<stop stop-color="#754FFE"/>
<stop offset="0.9944" stop-color="#C812C1"/>
</linearGradient>
<linearGradient id="paint4_linear_312_2788" x1="699.257" y1="262.253" x2="563.429" y2="606.448" gradientUnits="userSpaceOnUse">
<stop stop-color="#754FFE"/>
<stop offset="0.543903" stop-color="#A62BDA" stop-opacity="0"/>
<stop offset="0.624554" stop-color="#AD26D5"/>
<stop offset="0.682701" stop-color="#C812C1"/>
</linearGradient>
<linearGradient id="paint5_linear_312_2788" x1="140.155" y1="301.129" x2="120.226" y2="305.864" gradientUnits="userSpaceOnUse">
<stop stop-color="#754FFE"/>
<stop offset="0.9944" stop-color="#C812C1"/>
</linearGradient>
<linearGradient id="paint6_linear_312_2788" x1="734.419" y1="300.758" x2="616.059" y2="646.324" gradientUnits="userSpaceOnUse">
<stop stop-color="#754FFE"/>
<stop offset="0.543903" stop-color="#A62BDA" stop-opacity="0"/>
<stop offset="0.624554" stop-color="#AD26D5"/>
<stop offset="0.682701" stop-color="#C812C1"/>
</linearGradient>
<linearGradient id="paint7_linear_312_2788" x1="109.47" y1="323.929" x2="86.5366" y2="329.378" gradientUnits="userSpaceOnUse">
<stop stop-color="#754FFE"/>
<stop offset="0.9944" stop-color="#C812C1"/>
</linearGradient>
<linearGradient id="paint8_linear_312_2788" x1="266.367" y1="437.252" x2="197.084" y2="546.629" gradientUnits="userSpaceOnUse">
<stop stop-color="#754FFE"/>
<stop offset="0.368104" stop-color="#A62BDA" stop-opacity="0"/>
<stop offset="0.466651" stop-color="#AD26D5"/>
<stop offset="0.682701" stop-color="#C812C1"/>
</linearGradient>
<linearGradient id="paint9_linear_312_2788" x1="139.117" y1="447.522" x2="119.173" y2="452.261" gradientUnits="userSpaceOnUse">
<stop stop-color="#754FFE"/>
<stop offset="0.9944" stop-color="#C812C1"/>
</linearGradient>
<linearGradient id="paint10_linear_312_2788" x1="288.416" y1="447.997" x2="219.132" y2="557.373" gradientUnits="userSpaceOnUse">
<stop stop-color="#754FFE"/>
<stop offset="0.444807" stop-color="#A62BDA" stop-opacity="0"/>
<stop offset="0.52669" stop-color="#AD26D5"/>
<stop offset="0.682701" stop-color="#C812C1"/>
</linearGradient>
<linearGradient id="paint11_linear_312_2788" x1="161.166" y1="458.267" x2="141.221" y2="463.006" gradientUnits="userSpaceOnUse">
<stop stop-color="#754FFE"/>
<stop offset="0.9944" stop-color="#C812C1"/>
</linearGradient>
<linearGradient id="paint12_linear_312_2788" x1="648.132" y1="384.381" x2="604.674" y2="571.153" gradientUnits="userSpaceOnUse">
<stop stop-color="#754FFE"/>
<stop offset="0.543903" stop-color="#A62BDA" stop-opacity="0"/>
<stop offset="0.624554" stop-color="#AD26D5"/>
<stop offset="0.682701" stop-color="#C812C1"/>
</linearGradient>
<linearGradient id="paint13_linear_312_2788" x1="181.666" y1="398.708" x2="158.732" y2="404.157" gradientUnits="userSpaceOnUse">
<stop stop-color="#754FFE"/>
<stop offset="0.9944" stop-color="#C812C1"/>
</linearGradient>
<linearGradient id="paint14_linear_312_2788" x1="803.08" y1="395.12" x2="775.363" y2="588.123" gradientUnits="userSpaceOnUse">
<stop stop-color="#754FFE"/>
<stop offset="0.543903" stop-color="#A62BDA" stop-opacity="0"/>
<stop offset="0.624554" stop-color="#AD26D5"/>
<stop offset="0.682701" stop-color="#C812C1"/>
</linearGradient>
<linearGradient id="paint15_linear_312_2788" x1="40.3727" y1="409.454" x2="17.439" y2="414.902" gradientUnits="userSpaceOnUse">
<stop stop-color="#754FFE"/>
<stop offset="0.9944" stop-color="#C812C1"/>
</linearGradient>
<linearGradient id="paint16_linear_312_2788" x1="681.149" y1="368.904" x2="666.714" y2="484.905" gradientUnits="userSpaceOnUse">
<stop stop-color="#754FFE"/>
<stop offset="0.543903" stop-color="#A62BDA" stop-opacity="0"/>
<stop offset="0.624554" stop-color="#AD26D5"/>
<stop offset="0.682701" stop-color="#C812C1"/>
</linearGradient>
<linearGradient id="paint17_linear_312_2788" x1="156.659" y1="375.137" x2="136.73" y2="379.871" gradientUnits="userSpaceOnUse">
<stop stop-color="#754FFE"/>
<stop offset="0.9944" stop-color="#C812C1"/>
</linearGradient>
<linearGradient id="paint18_linear_312_2788" x1="470.054" y1="469.795" x2="105.63" y2="818.33" gradientUnits="userSpaceOnUse">
<stop stop-color="#754FFE"/>
<stop offset="0.474169" stop-color="#A62BDA" stop-opacity="0"/>
<stop offset="0.516357" stop-color="#AD26D5"/>
<stop offset="0.605252" stop-color="#C812C1"/>
</linearGradient>
<linearGradient id="paint19_linear_312_2788" x1="85.8735" y1="500.744" x2="65.9405" y2="505.479" gradientUnits="userSpaceOnUse">
<stop stop-color="#754FFE"/>
<stop offset="0.9944" stop-color="#C812C1"/>
</linearGradient>
<linearGradient id="paint20_linear_312_2788" x1="287.5" y1="606" x2="91.4877" y2="533.459" gradientUnits="userSpaceOnUse">
<stop stop-color="#754FFE"/>
<stop offset="0.452924" stop-color="#A62BDA" stop-opacity="0"/>
<stop offset="0.585785" stop-color="#AD26D5"/>
<stop offset="0.682701" stop-color="#C812C1"/>
</linearGradient>
<linearGradient id="paint21_linear_312_2788" x1="130.084" y1="540.227" x2="110.151" y2="544.962" gradientUnits="userSpaceOnUse">
<stop stop-color="#754FFE"/>
<stop offset="0.9944" stop-color="#C812C1"/>
</linearGradient>
<linearGradient id="paint22_linear_312_2788" x1="211.5" y1="502.5" x2="204.157" y2="474.288" gradientUnits="userSpaceOnUse">
<stop stop-color="#754FFE"/>
<stop offset="0.488079" stop-color="#A62BDA" stop-opacity="0"/>
<stop offset="0.624554" stop-color="#AD26D5"/>
<stop offset="0.902902" stop-color="#C812C1"/>
</linearGradient>
<linearGradient id="paint23_linear_312_2788" x1="182.827" y1="469.324" x2="162.875" y2="474.064" gradientUnits="userSpaceOnUse">
<stop stop-color="#754FFE"/>
<stop offset="0.9944" stop-color="#C812C1"/>
</linearGradient>
<linearGradient id="paint24_linear_312_2788" x1="248.033" y1="419.789" x2="189.774" y2="548.686" gradientUnits="userSpaceOnUse">
<stop stop-color="#754FFE"/>
<stop offset="0.390952" stop-color="#A62BDA" stop-opacity="0"/>
<stop offset="0.516033" stop-color="#AD26D5"/>
<stop offset="0.682701" stop-color="#C812C1"/>
</linearGradient>
<linearGradient id="paint25_linear_312_2788" x1="63.5929" y1="430.386" x2="43.664" y2="435.12" gradientUnits="userSpaceOnUse">
<stop stop-color="#754FFE"/>
<stop offset="0.9944" stop-color="#C812C1"/>
</linearGradient>
<linearGradient id="paint26_linear_312_2788" x1="352.77" y1="363.52" x2="226.471" y2="595.762" gradientUnits="userSpaceOnUse">
<stop stop-color="#754FFE"/>
<stop offset="0.307536" stop-color="#A62BDA" stop-opacity="0"/>
<stop offset="0.511773" stop-color="#AD26D5"/>
<stop offset="0.601377" stop-color="#C812C1"/>
</linearGradient>
<linearGradient id="paint27_linear_312_2788" x1="49.9913" y1="371.879" x2="30.0624" y2="376.614" gradientUnits="userSpaceOnUse">
<stop stop-color="#754FFE"/>
<stop offset="0.9944" stop-color="#C812C1"/>
</linearGradient>
<linearGradient id="paint28_linear_312_2788" x1="254.202" y1="360.369" x2="161.418" y2="422.803" gradientUnits="userSpaceOnUse">
<stop stop-color="#754FFE"/>
<stop offset="0.543903" stop-color="#A62BDA" stop-opacity="0"/>
<stop offset="0.624554" stop-color="#AD26D5"/>
<stop offset="0.682701" stop-color="#C812C1"/>
</linearGradient>
<linearGradient id="paint29_linear_312_2788" x1="187.386" y1="363.426" x2="167.457" y2="368.161" gradientUnits="userSpaceOnUse">
<stop stop-color="#754FFE"/>
<stop offset="0.9944" stop-color="#C812C1"/>
</linearGradient>
<linearGradient id="paint30_linear_312_2788" x1="315.959" y1="408.706" x2="251.114" y2="560.378" gradientUnits="userSpaceOnUse">
<stop stop-color="#754FFE"/>
<stop offset="0.373423" stop-color="#A62BDA" stop-opacity="0"/>
<stop offset="0.474295" stop-color="#AD26D5"/>
<stop offset="0.682701" stop-color="#C812C1"/>
</linearGradient>
<linearGradient id="paint31_linear_312_2788" x1="89.9703" y1="420.989" x2="67.0367" y2="426.437" gradientUnits="userSpaceOnUse">
<stop stop-color="#754FFE"/>
<stop offset="0.9944" stop-color="#C812C1"/>
</linearGradient>
</defs>
</svg>
