<svg width="29" height="29" viewBox="0 0 29 29" fill="none" xmlns="http://www.w3.org/2000/svg">
<path d="M9.06211 0.374744C4.74961 0.968494 1.41836 4.07475 0.493359 8.37475C0.368359 8.93725 0.349609 9.2185 0.349609 10.3435C0.349609 11.7872 0.430859 12.3247 0.812109 13.506C1.94336 16.9685 5.02461 19.5997 8.68711 20.231C9.50586 20.3747 11.1996 20.3685 11.9996 20.2247C13.0059 20.0435 13.9621 19.731 14.8121 19.3122C15.3559 19.0372 16.3059 18.4247 16.6434 18.1247L16.8809 17.9185L18.3121 19.3372L17.7809 19.881L17.2496 20.4185V21.0935L20.9871 24.8185C25.3809 29.2122 25.0684 28.9685 26.3434 28.9685C27.0621 28.9685 27.1121 28.9622 27.5059 28.7685C28.0121 28.5185 28.5621 27.9622 28.7996 27.456C28.9496 27.1247 28.9684 27.0247 28.9684 26.3435C28.9684 25.0685 29.2121 25.381 24.8184 20.981L21.0934 17.2497H20.4184L19.8809 17.781L19.3371 18.3122L18.6309 17.5997L17.9184 16.8872L18.1746 16.581C18.3121 16.4185 18.5809 16.0372 18.7809 15.731C20.6684 12.8185 20.8809 8.99349 19.3246 5.8935C17.9121 3.081 15.4121 1.15599 12.3246 0.493494C11.6371 0.349744 9.75586 0.280994 9.06211 0.374744ZM11.9684 1.86849C15.2746 2.51224 17.8934 5.02474 18.7309 8.33724C18.9434 9.18724 18.9996 10.7372 18.8496 11.6685C18.6621 12.8872 18.1371 14.1935 17.4246 15.2372C17.0059 15.856 15.8559 17.006 15.2371 17.4247C13.7621 18.431 12.0996 18.9435 10.3121 18.9435C8.71211 18.9435 7.33711 18.5685 5.98711 17.7747C2.27461 15.5747 0.724609 11.0122 2.34961 7.07474C3.92461 3.26849 7.96836 1.08099 11.9684 1.86849ZM24.1059 22.2622C26.3996 24.5622 27.4621 25.6685 27.5309 25.8247C27.8809 26.6747 27.2184 27.6247 26.2809 27.6247C25.7934 27.6247 25.5934 27.4497 22.1871 24.0372L18.9059 20.7497L19.8121 19.8435C20.3121 19.3435 20.7309 18.9372 20.7496 18.9372C20.7684 18.9372 22.2809 20.4372 24.1059 22.2622Z" fill="url(#paint0_linear_305_2015)"/>
<path d="M8.81838 3.13099C7.64338 3.38099 6.61213 3.88099 5.63713 4.65599C5.07463 5.10599 4.93713 5.30599 4.93713 5.66224C4.93713 5.99349 5.26838 6.31224 5.61213 6.31224C5.83088 6.31224 5.92463 6.25599 6.31838 5.93099C6.94963 5.39974 7.24338 5.21224 7.84338 4.93099C8.72463 4.51849 9.19963 4.41849 10.3121 4.41224C11.0621 4.41224 11.3746 4.43724 11.6871 4.52474C12.7621 4.81849 13.6059 5.27474 14.3371 5.93099C14.7184 6.27474 14.8934 6.34349 15.2059 6.28724C15.5371 6.22474 15.7184 5.98724 15.7184 5.61224C15.7184 5.30599 15.7059 5.28724 15.3059 4.90599C14.7621 4.39349 14.2559 4.05599 13.4684 3.67474C12.4496 3.19349 11.8121 3.04974 10.4996 3.02474C9.57463 3.00599 9.31213 3.01849 8.81838 3.13099Z" fill="url(#paint1_linear_305_2015)"/>
<defs>
<linearGradient id="paint0_linear_305_2015" x1="-1.76734" y1="25.2888" x2="30.8202" y2="17.0063" gradientUnits="userSpaceOnUse">
<stop stop-color="#DF6F34"/>
<stop offset="0.9944" stop-color="#F1CC5F"/>
</linearGradient>
<linearGradient id="paint1_linear_305_2015" x1="-6.88498" y1="9.03067" x2="18.106" y2="-10.3984" gradientUnits="userSpaceOnUse">
<stop stop-color="#754FFE"/>
<stop offset="0.9944" stop-color="#C812C1"/>
</linearGradient>
</defs>
</svg>
