<svg width="32" height="32" viewBox="0 0 32 32" fill="none" xmlns="http://www.w3.org/2000/svg">
<path d="M21.8375 0.0938597C20.1875 0.369181 18.5625 1.2014 17.3312 2.39029C15.9937 3.6793 15.1875 5.13725 14.8 6.95813C14.6187 7.81538 14.6062 9.37971 14.775 10.2557C15.4562 13.7849 18.0937 16.4567 21.6437 17.2139C22.4812 17.3891 23.9937 17.4016 24.875 17.2389C27.1875 16.8197 29.3125 15.4118 30.5937 13.4595C31.5625 11.9765 32 10.481 32 8.65386C32 7.17088 31.7125 5.95696 31.05 4.66795C29.825 2.28392 27.4437 0.531871 24.8187 0.0938597C24.0937 -0.0312866 22.5562 -0.0312866 21.8375 0.0938597ZM24.5375 1.46421C28.95 2.24012 31.6562 6.74538 30.2437 10.9691C29.25 13.9475 26.4687 15.9561 23.3562 15.9561C21.7187 15.9499 20.3187 15.4994 19.0312 14.5482C17.5187 13.4344 16.4687 11.7575 16.1562 9.95538C16.0187 9.17947 16.0375 8.0031 16.1875 7.23971C16.7125 4.67421 18.5625 2.58427 21.0437 1.75205C22.1562 1.37661 23.425 1.27023 24.5375 1.46421Z" fill="url(#paint0_linear_312_2983)"/>
<path d="M26.3375 5.38129C26.2687 5.41884 25.2562 6.5389 24.0875 7.87796L21.9687 10.3058L20.8062 9.15445L19.65 8.00311H19.3375C19.075 8.00311 18.9937 8.03439 18.85 8.17831C18.6375 8.40357 18.5812 8.73521 18.7062 8.97925C18.7625 9.07936 19.4437 9.79895 20.2312 10.5811L21.6625 12.0078H21.9875C22.2562 12.0078 22.3437 11.9765 22.4937 11.8326C22.7687 11.5698 27.05 6.65153 27.225 6.39498C27.3062 6.26983 27.375 6.10088 27.375 6.01954C27.375 5.8193 27.2187 5.53147 27.05 5.41258C26.8937 5.29995 26.5375 5.28743 26.3375 5.38129Z" fill="url(#paint1_linear_312_2983)"/>
<path d="M0.35 2.71567C0.08125 2.85959 0.00625 2.99099 0 3.32263C0 3.54164 0.0375 3.66053 0.15 3.79193L0.3 3.96714L1.73125 3.99842C3.1 4.03597 3.16875 4.04222 3.50625 4.19866C3.91875 4.38638 4.3125 4.75556 4.5 5.12474C4.5875 5.29994 5.14375 7.93427 6.225 13.3406C7.09375 17.7144 7.8125 21.2999 7.8125 21.3061C7.8125 21.3187 7.26875 21.3312 6.6125 21.3437C5.44375 21.3625 5.39375 21.3687 5.0875 21.5314C4.68125 21.7442 4.225 22.251 4.1 22.6264C3.95625 23.0457 3.96875 23.7966 4.13125 24.147C4.4 24.7414 4.825 25.1168 5.4375 25.2983C5.7375 25.3859 6.9 25.3984 17.2938 25.3984C29.9938 25.3984 29.075 25.4297 29.2875 25.0105C29.4188 24.7539 29.3625 24.4285 29.15 24.197L28.975 24.0218H17.5375C9.8875 24.0218 6.01875 23.9968 5.8625 23.9592C5.375 23.8216 5.225 23.3147 5.55625 22.9456L5.7375 22.7391L26.325 22.6765L26.4938 22.4825C26.6438 22.3198 26.7 22.1196 26.9313 20.962C27.0938 20.1423 27.1813 19.5666 27.1563 19.454C27.0625 19.0097 26.4063 18.797 26.0438 19.0785C25.85 19.235 25.8063 19.3726 25.5875 20.4677L25.4188 21.3312H9.25L9.21875 21.1873C9.1625 20.9495 6.875 9.47983 6.875 9.42977C6.875 9.40474 7.94375 9.37345 9.24375 9.3672L11.6188 9.34842L11.8063 9.16696C11.9688 9.01053 12 8.93544 12 8.67263C12 8.42234 11.9688 8.341 11.8188 8.18456L11.6375 8.0031H6.58125L6.2875 6.52012C5.95 4.84942 5.90625 4.69924 5.51875 4.1048C5.04375 3.39146 4.31875 2.89714 3.45 2.70942C2.84375 2.58427 0.6 2.58427 0.35 2.71567Z" fill="url(#paint2_linear_312_2983)"/>
<path d="M22.0313 26.7375C21.2438 26.9315 20.6063 27.4508 20.2438 28.1829C20.0375 28.6084 20.0313 28.6397 20.0313 29.3718C20.0313 30.0977 20.0375 30.1352 20.2438 30.5419C20.5 31.055 21.0125 31.5619 21.5313 31.8184C21.8813 31.9874 21.9563 31.9999 22.6563 31.9999C23.3813 31.9999 23.425 31.9936 23.8313 31.7934C25.7375 30.8548 25.8938 28.2393 24.1063 27.0816C23.5188 26.7 22.7188 26.5685 22.0313 26.7375ZM23.2813 28.2267C24.1063 28.6647 24.1688 29.8787 23.3875 30.4293C22.5688 31.0112 21.3813 30.373 21.375 29.3468C21.3688 28.4019 22.4313 27.7825 23.2813 28.2267Z" fill="url(#paint3_linear_312_2983)"/>
<path d="M10.6154 26.7376C9.82788 26.9316 9.19039 27.4509 8.82789 28.183C8.62164 28.6085 8.61539 28.6398 8.61539 29.3719C8.61539 30.0978 8.62164 30.1353 8.82789 30.542C9.08414 31.0551 9.59663 31.562 10.1154 31.8185C10.4654 31.9875 10.5404 32 11.2404 32C11.9654 32 12.0091 31.9937 12.4154 31.7935C14.3216 30.8549 14.4779 28.2394 12.6904 27.0818C12.1029 26.7001 11.3029 26.5687 10.6154 26.7376ZM11.8654 28.2268C12.6904 28.6649 12.7529 29.8788 11.9716 30.4294C11.1529 31.0113 9.96539 30.3731 9.95914 29.3469C9.95288 28.402 11.0154 27.7826 11.8654 28.2268Z" fill="url(#paint4_linear_312_2983)"/>
<defs>
<linearGradient id="paint0_linear_312_2983" x1="-2.36686" y1="27.8857" x2="34.0649" y2="18.6204" gradientUnits="userSpaceOnUse">
<stop stop-color="#DF6F34"/>
<stop offset="0.9944" stop-color="#F1CC5F"/>
</linearGradient>
<linearGradient id="paint1_linear_312_2983" x1="14.1891" y1="36.4011" x2="32.9461" y2="31.951" gradientUnits="userSpaceOnUse">
<stop stop-color="#913BD5"/>
<stop offset="0.9944" stop-color="#AF12C8"/>
</linearGradient>
<linearGradient id="paint2_linear_312_2983" x1="-2.36686" y1="27.8857" x2="34.0649" y2="18.6204" gradientUnits="userSpaceOnUse">
<stop stop-color="#DF6F34"/>
<stop offset="0.9944" stop-color="#F1CC5F"/>
</linearGradient>
<linearGradient id="paint3_linear_312_2983" x1="14.1891" y1="36.4011" x2="32.9461" y2="31.951" gradientUnits="userSpaceOnUse">
<stop stop-color="#913BD5"/>
<stop offset="0.9944" stop-color="#AF12C8"/>
</linearGradient>
<linearGradient id="paint4_linear_312_2983" x1="14.1891" y1="36.4011" x2="32.9461" y2="31.951" gradientUnits="userSpaceOnUse">
<stop stop-color="#913BD5"/>
<stop offset="0.9944" stop-color="#AF12C8"/>
</linearGradient>
</defs>
</svg>
