<svg width="30" height="32" viewBox="0 0 30 32" fill="none" xmlns="http://www.w3.org/2000/svg">
<path d="M13.0501 0.106509C9.0359 0.831823 5.76574 4.02696 4.95914 8.00368C4.62774 9.62938 4.74029 11.5677 5.26552 13.1559C5.50312 13.8812 6.17216 15.1943 6.61611 15.8321C7.12883 16.5449 8.098 17.5328 8.86083 18.1018C9.74871 18.7646 9.98006 19.2023 9.98631 20.1965C9.98631 20.7404 9.98631 20.7467 9.77372 20.928C9.44858 21.2156 9.41106 21.372 9.44858 22.2786C9.46109 22.7225 9.47359 23.1352 9.47359 23.1915C9.47359 23.3353 9.47359 25.0173 9.47359 25.1611C9.47359 25.2236 9.46109 25.6426 9.44858 26.099C9.42357 26.768 9.43608 26.9619 9.51111 27.1119C9.66743 27.4058 9.99257 27.6184 10.3552 27.6622L10.6804 27.6997L11.2056 28.5501C11.4995 29.019 11.7746 29.4442 11.8184 29.4942C11.9684 29.6818 12.3311 29.9194 12.5874 29.9944L12.8438 30.0695L12.8751 30.4571C12.9313 31.1012 13.2815 31.6014 13.863 31.864C14.2694 32.0453 15.3324 32.0453 15.7388 31.864C16.3203 31.6014 16.6705 31.1012 16.7267 30.4571L16.758 30.0695L17.0144 29.9944C17.2707 29.9194 17.6334 29.6818 17.7834 29.4942C17.8272 29.4442 18.1023 29.019 18.3962 28.5501L18.9214 27.6997L19.2528 27.6622C19.6217 27.6184 19.8281 27.4871 20.0407 27.1745C20.1782 26.9744 20.1845 26.9244 20.1532 26.1178C20.1407 25.6551 20.1282 25.2236 20.1282 25.1611C20.1282 25.011 20.1282 23.3291 20.1282 23.1915C20.1282 23.1352 20.1407 22.7225 20.1532 22.2786C20.1907 21.372 20.1532 21.2156 19.8281 20.928C19.6155 20.7467 19.6155 20.7404 19.6155 20.1965C19.6217 19.2023 19.8531 18.7646 20.741 18.1018C21.4975 17.5328 22.473 16.5449 22.9732 15.8446C23.8986 14.5378 24.6176 12.712 24.7239 11.4177C24.7552 10.9862 24.749 10.9299 24.6239 10.8049C24.4113 10.5923 23.9361 10.6486 23.8423 10.9049C23.8173 10.9612 23.7423 11.2989 23.6735 11.6553C23.2358 13.9312 22.0228 15.8446 20.0844 17.3202C18.9715 18.1643 18.615 18.8521 18.615 20.1464V20.6779H16.5517V18.8959C16.5517 16.8388 16.4829 17.1076 17.2895 15.9321C18.0836 14.7754 18.1086 14.6941 18.1148 13.3247V12.193L18.3649 12.118C18.6588 12.0304 19.0152 11.7365 19.159 11.4614C19.3216 11.1675 19.3028 10.461 19.1278 10.1296C18.9715 9.83572 18.6338 9.57311 18.3149 9.51058C18.1211 9.47306 18.1148 9.46056 18.1148 9.16668C18.1148 8.79152 17.9648 8.61019 17.6521 8.61019C17.327 8.61019 17.1644 8.77901 17.1269 9.16043L17.0956 9.48557H16.3891C15.5575 9.48557 15.4262 9.55435 15.4262 9.97328C15.4262 10.4235 15.5075 10.4485 16.9456 10.486L18.2086 10.5173L18.2649 10.6861C18.3087 10.8111 18.2962 10.8924 18.2149 11.0112L18.1148 11.1738H11.487L11.3869 11.0112C11.3056 10.8924 11.2931 10.8111 11.3369 10.6861L11.3932 10.5173L12.6562 10.486C14.0943 10.4485 14.1756 10.4235 14.1756 9.97328C14.1756 9.55435 14.0443 9.48557 13.2127 9.48557H12.5062L12.4749 9.16043C12.4374 8.77901 12.2748 8.61019 11.9497 8.61019C11.637 8.61019 11.487 8.79152 11.487 9.16668C11.487 9.46056 11.4807 9.47306 11.2869 9.51058C10.968 9.57311 10.6303 9.83572 10.474 10.1296C10.2989 10.461 10.2802 11.1675 10.4428 11.4614C10.5866 11.7365 10.943 12.0304 11.2369 12.118L11.487 12.193V13.3247C11.4932 14.6941 11.5182 14.7754 12.3123 15.9321C13.1189 17.1076 13.0501 16.8388 13.0501 18.8959V20.6779H11.0055L10.9742 19.9714C10.918 18.6896 10.6241 18.1706 9.41732 17.2389C8.17303 16.2698 7.32891 15.2506 6.70364 13.9563C6.05336 12.6182 5.79075 11.4927 5.7845 10.0483C5.77824 8.57893 6.06587 7.31588 6.70364 6.04033C8.06048 3.33916 10.5928 1.49461 13.5504 1.04442C14.2194 0.944373 15.6075 0.96313 16.2703 1.07568C19.0903 1.56339 21.5288 3.33916 22.8231 5.84649C23.1983 6.56556 23.5797 7.71605 23.711 8.5164C23.7673 8.8603 23.8548 9.2042 23.8986 9.27923C24.0862 9.56685 24.5676 9.50433 24.7427 9.17293C24.874 8.92908 24.5489 7.31588 24.18 6.38423C22.9107 3.18909 20.3658 0.994394 16.9893 0.187795C16.4203 0.0502357 16.1515 0.0314783 15.0197 0.00646743C13.9255 -0.0122907 13.6004 0.00646584 13.0501 0.106509ZM17.0831 14.4064L16.4141 15.4069C16.0514 15.9571 15.7075 16.5386 15.6513 16.7012C15.57 16.9388 15.5512 17.3202 15.5512 18.8334V20.6779H14.0506V18.8334C14.0506 17.3202 14.0318 16.9388 13.9505 16.7012C13.8943 16.5386 13.5504 15.9571 13.1877 15.4069L12.5187 14.4064L12.4811 12.1742H17.1206L17.0831 14.4064ZM19.1778 22.6788H10.424V21.6783H19.1778V22.6788ZM19.1778 24.6796H10.424V23.6792H19.1778V24.6796ZM19.1778 26.6805H10.424V25.6801H19.1778V26.6805ZM17.4208 28.1937C17.2457 28.4813 17.0206 28.7877 16.9206 28.8815L16.7392 29.0565H12.8626L12.6812 28.8815C12.5812 28.7877 12.3561 28.4813 12.181 28.1937L11.8621 27.6809H17.7397L17.4208 28.1937ZM15.72 30.3508C15.6825 30.7135 15.4387 30.9636 15.0573 31.0261C14.4132 31.1324 13.938 30.8636 13.8817 30.3508L13.8442 30.057H15.7576L15.72 30.3508Z" fill="url(#paint0_linear_312_2972)"/>
<path d="M1.88958 5.49011C1.60196 5.65268 1.52067 5.95906 1.702 6.21542C1.81455 6.37799 3.41524 7.29714 3.58407 7.29714C3.6591 7.29714 3.79041 7.24086 3.8842 7.16583C4.00925 7.06579 4.04677 6.9845 4.04677 6.80317C4.04677 6.67812 4.00925 6.52805 3.97173 6.47178C3.85919 6.32797 2.37104 5.48385 2.17721 5.44634C2.08967 5.43383 1.95836 5.45259 1.88958 5.49011Z" fill="url(#paint1_linear_312_2972)"/>
<path d="M27.1489 5.55263C26.5361 5.87777 25.7045 6.38424 25.6358 6.47178C25.592 6.52805 25.5545 6.67812 25.5545 6.80317C25.5545 6.9845 25.592 7.06579 25.717 7.16583C25.8108 7.24086 25.9421 7.29714 26.0172 7.29714C26.186 7.29714 27.7867 6.37799 27.8992 6.21542C28.0806 5.95906 28.0055 5.65268 27.7367 5.51512C27.5053 5.39006 27.4428 5.39631 27.1489 5.55263Z" fill="url(#paint2_linear_312_2972)"/>
<path d="M0.694233 9.6981C0.462883 9.89194 0.450378 10.2608 0.66297 10.4297C0.794277 10.536 0.925583 10.5485 1.86349 10.5485C2.83891 10.5485 2.9327 10.536 3.04525 10.4234C3.23908 10.2296 3.21407 9.84192 3.00773 9.67935C2.85767 9.56054 2.75763 9.54804 1.85098 9.54804C0.900572 9.54804 0.856804 9.55429 0.694233 9.6981Z" fill="url(#paint3_linear_312_2972)"/>
<path d="M26.5935 9.67935C26.3871 9.84192 26.3621 10.2296 26.5559 10.4234C26.6685 10.536 26.7623 10.5485 27.7377 10.5485C28.6756 10.5485 28.8069 10.536 28.9382 10.4297C29.1508 10.2608 29.1383 9.89194 28.907 9.6981C28.7444 9.55429 28.7006 9.54804 27.7502 9.54804C26.8436 9.54804 26.7435 9.56054 26.5935 9.67935Z" fill="url(#paint4_linear_312_2972)"/>
<path d="M2.57729 13.3373C2.13335 13.5936 1.72692 13.85 1.68941 13.9063C1.57061 14.0626 1.58936 14.3252 1.73943 14.5128C1.95827 14.7879 2.18962 14.7379 3.065 14.2314C3.48393 13.9876 3.87785 13.7437 3.94038 13.6874C4.09045 13.5561 4.08419 13.1497 3.92162 12.9871C3.69653 12.762 3.45267 12.8245 2.57729 13.3373Z" fill="url(#paint5_linear_312_2972)"/>
<path d="M25.6804 12.9871C25.5178 13.1497 25.5116 13.5561 25.6679 13.6874C25.7242 13.7437 26.1181 13.9876 26.537 14.2314C27.4124 14.7379 27.6438 14.7879 27.8626 14.5128C28.0127 14.3252 28.0314 14.0626 27.9189 13.9063C27.8751 13.85 27.4749 13.5936 27.0247 13.331C26.1494 12.8245 25.9055 12.762 25.6804 12.9871Z" fill="url(#paint6_linear_312_2972)"/>
<defs>
<linearGradient id="paint0_linear_312_2972" x1="-1.60202" y1="27.8857" x2="31.3387" y2="20.4041" gradientUnits="userSpaceOnUse">
<stop stop-color="#DF6F34"/>
<stop offset="0.9944" stop-color="#F1CC5F"/>
</linearGradient>
<linearGradient id="paint1_linear_312_2972" x1="22.8811" y1="16.1761" x2="31.107" y2="13.5529" gradientUnits="userSpaceOnUse">
<stop stop-color="#754FFE"/>
<stop offset="0.9944" stop-color="#C812C1"/>
</linearGradient>
<linearGradient id="paint2_linear_312_2972" x1="22.8811" y1="16.1761" x2="31.107" y2="13.5529" gradientUnits="userSpaceOnUse">
<stop stop-color="#754FFE"/>
<stop offset="0.9944" stop-color="#C812C1"/>
</linearGradient>
<linearGradient id="paint3_linear_312_2972" x1="22.8811" y1="16.1761" x2="31.107" y2="13.5529" gradientUnits="userSpaceOnUse">
<stop stop-color="#754FFE"/>
<stop offset="0.9944" stop-color="#C812C1"/>
</linearGradient>
<linearGradient id="paint4_linear_312_2972" x1="22.8811" y1="16.1761" x2="31.107" y2="13.5529" gradientUnits="userSpaceOnUse">
<stop stop-color="#754FFE"/>
<stop offset="0.9944" stop-color="#C812C1"/>
</linearGradient>
<linearGradient id="paint5_linear_312_2972" x1="22.8811" y1="16.1761" x2="31.107" y2="13.5529" gradientUnits="userSpaceOnUse">
<stop stop-color="#754FFE"/>
<stop offset="0.9944" stop-color="#C812C1"/>
</linearGradient>
<linearGradient id="paint6_linear_312_2972" x1="22.8811" y1="16.1761" x2="31.107" y2="13.5529" gradientUnits="userSpaceOnUse">
<stop stop-color="#754FFE"/>
<stop offset="0.9944" stop-color="#C812C1"/>
</linearGradient>
</defs>
</svg>
