<svg width="259" height="86" viewBox="0 0 259 86" fill="none" xmlns="http://www.w3.org/2000/svg">
<g opacity="0.5">
<g opacity="0.82">
<path d="M-279 51.2784L-177.235 51.2784L-141.441 33L-89.7872 33L-62.9306 66L84.6674 66L115.651 49.5L204 49.5" stroke="url(#paint0_linear_265_1877)" stroke-opacity="0.5" stroke-width="1.2" stroke-miterlimit="10"/>
<path d="M207.356 53.2994C209.446 53.2994 211.143 51.6031 211.143 49.5122C211.143 47.4213 209.446 45.7251 207.356 45.7251C205.265 45.7251 203.568 47.4213 203.568 49.5122C203.568 51.6031 205.265 53.2994 207.356 53.2994Z" fill="url(#paint1_linear_265_1877)"/>
</g>
<g opacity="0.82">
<path d="M-279 60.9812L-176.54 60.9812L-140.112 42L-93.8519 42.3442L-65.9357 76L85.0036 76L116.016 59.1679L251.5 59.5" stroke="url(#paint2_linear_265_1877)" stroke-opacity="0.5" stroke-width="1.2" stroke-miterlimit="10"/>
<path d="M255.211 63.1498C257.302 63.1498 258.998 61.4535 258.998 59.3626C258.998 57.2717 257.302 55.5754 255.211 55.5754C253.12 55.5754 251.424 57.2717 251.424 59.3626C251.424 61.4535 253.12 63.1498 255.211 63.1498Z" fill="url(#paint3_linear_265_1877)"/>
</g>
<path d="M-279 66.9859L-176.945 66.9859L-140.66 48L-94.583 48.3443L-66.7771 82L80 82" stroke="url(#paint4_linear_265_1877)" stroke-opacity="0.5" stroke-width="1.2" stroke-miterlimit="10"/>
<path d="M83.5743 85.7047C85.6652 85.7047 87.3614 84.0084 87.3614 81.9175C87.3614 79.8266 85.6652 78.1304 83.5743 78.1304C81.4834 78.1304 79.7871 79.8266 79.7871 81.9175C79.7871 84.0084 81.4834 85.7047 83.5743 85.7047Z" fill="url(#paint5_linear_265_1877)"/>
<path d="M-279 1L-66.6601 1L-23.383 55L51 55" stroke="url(#paint6_linear_265_1877)" stroke-opacity="0.5" stroke-width="1.2" stroke-miterlimit="10"/>
<path d="M54.7872 58.5743C56.8781 58.5743 58.5743 56.8781 58.5743 54.7872C58.5743 52.6962 56.8781 51 54.7872 51C52.6962 51 51 52.6962 51 54.7872C51 56.8781 52.6962 58.5743 54.7872 58.5743Z" fill="url(#paint7_linear_265_1877)"/>
</g>
<defs>
<linearGradient id="paint0_linear_265_1877" x1="-808.676" y1="5.77499" x2="-671.467" y2="482.895" gradientUnits="userSpaceOnUse">
<stop stop-color="#754FFE"/>
<stop offset="0.542286" stop-color="#A62BDA" stop-opacity="0"/>
<stop offset="0.589548" stop-color="#AD26D5"/>
<stop offset="0.9944" stop-color="#C812C1"/>
</linearGradient>
<linearGradient id="paint1_linear_265_1877" x1="195.262" y1="39.4763" x2="221.926" y2="45.8113" gradientUnits="userSpaceOnUse">
<stop stop-color="#754FFE"/>
<stop offset="0.9944" stop-color="#C812C1"/>
</linearGradient>
<linearGradient id="paint2_linear_265_1877" x1="-861.315" y1="13.95" x2="-727.587" y2="510.141" gradientUnits="userSpaceOnUse">
<stop stop-color="#754FFE"/>
<stop offset="0.525355" stop-color="#A62BDA" stop-opacity="0"/>
<stop offset="0.589548" stop-color="#AD26D5"/>
<stop offset="0.9944" stop-color="#C812C1"/>
</linearGradient>
<linearGradient id="paint3_linear_265_1877" x1="243.118" y1="49.3266" x2="269.782" y2="55.6615" gradientUnits="userSpaceOnUse">
<stop stop-color="#754FFE"/>
<stop offset="0.9944" stop-color="#C812C1"/>
</linearGradient>
<linearGradient id="paint4_linear_265_1877" x1="-672.693" y1="19.95" x2="-489.619" y2="479.203" gradientUnits="userSpaceOnUse">
<stop stop-color="#754FFE"/>
<stop offset="0.602875" stop-color="#A62BDA" stop-opacity="0"/>
<stop offset="0.675294" stop-color="#AD26D5"/>
<stop offset="0.9944" stop-color="#C812C1"/>
</linearGradient>
<linearGradient id="paint5_linear_265_1877" x1="71.4808" y1="71.8816" x2="98.1451" y2="78.2165" gradientUnits="userSpaceOnUse">
<stop stop-color="#754FFE"/>
<stop offset="0.9944" stop-color="#C812C1"/>
</linearGradient>
<linearGradient id="paint6_linear_265_1877" x1="-640.891" y1="-43.55" x2="-246.004" y2="529.777" gradientUnits="userSpaceOnUse">
<stop stop-color="#754FFE"/>
<stop offset="0.623058" stop-color="#A62BDA" stop-opacity="0"/>
<stop offset="0.676102" stop-color="#AD26D5"/>
<stop offset="0.9944" stop-color="#C812C1"/>
</linearGradient>
<linearGradient id="paint7_linear_265_1877" x1="42.6937" y1="44.7512" x2="69.358" y2="51.0861" gradientUnits="userSpaceOnUse">
<stop stop-color="#754FFE"/>
<stop offset="0.9944" stop-color="#C812C1"/>
</linearGradient>
</defs>
</svg>
