<svg width="193" height="85" viewBox="0 0 193 85" fill="none" xmlns="http://www.w3.org/2000/svg">
<g opacity="0.5">
<g opacity="0.82">
<path d="M-345 50.8603L-243.235 50.8603L-207.441 32.7339L-155.787 32.7339L-128.931 65.4594L18.6674 65.4594L49.6512 49.0966L138 49.0966" stroke="url(#paint0_linear_517_506)" stroke-opacity="0.5" stroke-width="1.2" stroke-miterlimit="10"/>
<path d="M141.356 52.8643C143.446 52.8643 145.143 51.1821 145.143 49.1086C145.143 47.0351 143.446 45.353 141.356 45.353C139.265 45.353 137.568 47.0351 137.568 49.1086C137.568 51.1821 139.265 52.8643 141.356 52.8643Z" fill="url(#paint1_linear_517_506)"/>
</g>
<g opacity="0.82">
<path d="M-345 60.482L-242.54 60.482L-206.112 41.6587L-159.852 42.0001L-131.936 75.3758L19.0036 75.3758L50.016 58.6838L185.5 59.0131" stroke="url(#paint2_linear_517_506)" stroke-opacity="0.5" stroke-width="1.2" stroke-miterlimit="10"/>
<path d="M189.211 62.6324C191.302 62.6324 192.998 60.9503 192.998 58.8767C192.998 56.8032 191.302 55.1211 189.211 55.1211C187.12 55.1211 185.424 56.8032 185.424 58.8767C185.424 60.9503 187.12 62.6324 189.211 62.6324Z" fill="url(#paint3_linear_517_506)"/>
</g>
<path d="M-345 66.4369L-242.945 66.4369L-206.66 47.6089L-160.583 47.9503L-132.777 81.326L14 81.326" stroke="url(#paint4_linear_517_506)" stroke-opacity="0.5" stroke-width="1.2" stroke-miterlimit="10"/>
<path d="M17.5743 85.0001C19.6652 85.0001 21.3614 83.3179 21.3614 81.2444C21.3614 79.1709 19.6652 77.4888 17.5743 77.4888C15.4834 77.4888 13.7871 79.1709 13.7871 81.2444C13.7871 83.3179 15.4834 85.0001 17.5743 85.0001Z" fill="url(#paint5_linear_517_506)"/>
</g>
<defs>
<linearGradient id="paint0_linear_517_506" x1="-874.676" y1="5.73537" x2="-739.569" y2="479.486" gradientUnits="userSpaceOnUse">
<stop stop-color="#754FFE"/>
<stop offset="0.542286" stop-color="#A62BDA" stop-opacity="0"/>
<stop offset="0.589548" stop-color="#AD26D5"/>
<stop offset="0.9944" stop-color="#C812C1"/>
</linearGradient>
<linearGradient id="paint1_linear_517_506" x1="129.262" y1="39.1562" x2="155.902" y2="45.5386" gradientUnits="userSpaceOnUse">
<stop stop-color="#754FFE"/>
<stop offset="0.9944" stop-color="#C812C1"/>
</linearGradient>
<linearGradient id="paint2_linear_517_506" x1="-927.315" y1="13.842" x2="-795.655" y2="506.458" gradientUnits="userSpaceOnUse">
<stop stop-color="#754FFE"/>
<stop offset="0.525355" stop-color="#A62BDA" stop-opacity="0"/>
<stop offset="0.589548" stop-color="#AD26D5"/>
<stop offset="0.9944" stop-color="#C812C1"/>
</linearGradient>
<linearGradient id="paint3_linear_517_506" x1="177.118" y1="48.9243" x2="203.758" y2="55.3066" gradientUnits="userSpaceOnUse">
<stop stop-color="#754FFE"/>
<stop offset="0.9944" stop-color="#C812C1"/>
</linearGradient>
<linearGradient id="paint4_linear_517_506" x1="-738.693" y1="19.7922" x2="-558.243" y2="476.262" gradientUnits="userSpaceOnUse">
<stop stop-color="#754FFE"/>
<stop offset="0.602875" stop-color="#A62BDA" stop-opacity="0"/>
<stop offset="0.675294" stop-color="#AD26D5"/>
<stop offset="0.9944" stop-color="#C812C1"/>
</linearGradient>
<linearGradient id="paint5_linear_517_506" x1="5.48083" y1="71.2919" x2="32.1211" y2="77.6742" gradientUnits="userSpaceOnUse">
<stop stop-color="#754FFE"/>
<stop offset="0.9944" stop-color="#C812C1"/>
</linearGradient>
</defs>
</svg>
