<svg width="235" height="542" viewBox="0 0 235 542" fill="none" xmlns="http://www.w3.org/2000/svg">
<path d="M263.75 539.757C263.017 540.992 261.421 541.401 260.183 540.667C259.181 540.073 258.722 538.909 258.975 537.832L202.552 518.936C202.509 519.03 202.466 519.124 202.411 519.212C201.678 520.447 200.081 520.859 198.844 520.122C197.608 519.39 197.197 517.793 197.933 516.555C198.449 515.687 199.39 515.23 200.333 515.286L206.526 475.42C206.289 475.36 206.056 475.267 205.835 475.134C204.98 474.628 204.522 473.713 204.561 472.787L178.261 469.242C178.203 469.473 178.112 469.699 177.983 469.915C177.25 471.15 175.655 471.559 174.416 470.825C173.189 470.098 172.778 468.518 173.49 467.285L145.367 445.788C144.561 446.742 143.165 447.007 142.054 446.347C141.717 446.146 141.441 445.878 141.236 445.576L111.002 462.372C111.327 463.116 111.305 463.996 110.86 464.746C110.128 465.982 108.531 466.393 107.293 465.657C106.058 464.924 105.646 463.328 106.383 462.09C106.553 461.803 106.77 461.563 107.017 461.369L90.1274 435.139C89.355 435.538 88.4022 435.547 87.6012 435.072C87.0045 434.716 86.6 434.159 86.4246 433.54L43.35 441.487C43.3988 442.013 43.2903 442.558 42.9974 443.049C42.2647 444.284 40.6689 444.692 39.4304 443.959C38.195 443.226 37.7867 441.63 38.5201 440.392C38.9839 439.612 39.79 439.163 40.6334 439.122L43.4091 376.013C43.0765 375.966 42.7439 375.856 42.437 375.672C42.3749 375.636 42.3166 375.597 42.259 375.555L5.43246 380.979C5.46043 381.477 5.34664 381.985 5.07316 382.446C4.34044 383.681 2.74401 384.093 1.50611 383.356C0.270722 382.623 -0.140752 381.027 0.595828 379.789C1.32855 378.554 2.92498 378.142 4.16288 378.879C4.23643 378.924 4.30997 378.97 4.37899 379.021L59.4237 317.14L59.3155 316.991L59.6032 316.935L60.2444 316.213L60.0642 316.846L108.074 307.779C108.022 307.249 108.131 306.7 108.425 306.207C109.007 305.229 110.128 304.771 111.183 304.986L122.373 268.013C122.253 267.964 122.138 267.91 122.026 267.843C120.791 267.11 120.382 265.515 121.116 264.276C121.802 263.118 123.243 262.687 124.44 263.238L122.256 158.201C121.867 158.172 121.475 158.059 121.114 157.847C119.879 157.114 119.47 155.518 120.204 154.28C120.936 153.044 122.532 152.636 123.771 153.369C124.273 153.668 124.636 154.107 124.843 154.606L207.796 128.705C207.663 128.088 207.751 127.422 208.101 126.834C208.421 126.293 208.908 125.91 209.455 125.713L200.212 90.1225C199.629 90.2191 199.012 90.1189 198.465 89.7941C197.23 89.0614 196.819 87.4649 197.555 86.227C198.086 85.3347 199.064 84.876 200.033 84.964L206.169 52.0521C205.959 51.9912 205.751 51.9073 205.553 51.7891C204.318 51.0564 203.91 49.4606 204.643 48.2221C205.376 46.9867 206.971 46.5784 208.21 47.3118C208.331 47.3839 208.443 47.4674 208.551 47.5566L251.303 5.08268C250.624 4.26132 250.493 3.06989 251.07 2.10086C251.803 0.865493 253.399 0.457188 254.637 1.19061C255.474 1.68622 255.928 2.57349 255.91 3.48069L290.248 7.3344C290.298 7.01584 290.404 6.70235 290.579 6.41003C291.312 5.1746 292.907 4.76636 294.146 5.49972C295.381 6.23247 295.79 7.82819 295.056 9.06672C295.036 9.09909 295.017 9.12824 294.997 9.15739L323.666 32.7309C324.487 32.0694 325.664 31.9484 326.624 32.5168C327.86 33.2495 328.268 34.8453 327.535 36.0838C326.977 37.0237 325.92 37.4823 324.901 37.3274L308.887 83.3489C308.887 83.3489 308.905 83.3593 308.914 83.3645C310.149 84.0972 310.558 85.6929 309.824 86.9315C309.092 88.1669 307.496 88.5752 306.257 87.8418C305.87 87.6106 305.561 87.2959 305.349 86.9319L268.261 105.435C268.52 106.145 268.475 106.96 268.058 107.66C267.505 108.591 266.468 109.051 265.459 108.911L250.414 167.397C250.553 167.45 250.686 167.511 250.816 167.588C252.052 168.321 252.46 169.917 251.727 171.155C251.386 171.729 250.862 172.12 250.27 172.308L257.261 204.497C257.81 204.43 258.39 204.535 258.904 204.84C260.139 205.573 260.551 207.169 259.814 208.407C259.454 209.013 258.889 209.419 258.258 209.589L267.546 262.576C268.064 262.532 268.603 262.642 269.084 262.93C270.32 263.663 270.728 265.258 269.995 266.497C269.262 267.732 267.666 268.141 266.427 267.407C265.913 267.103 265.544 266.646 265.338 266.127L231.163 276.163C231.281 276.77 231.191 277.416 230.851 277.99C230.191 279.101 228.838 279.54 227.67 279.088L189.652 355.323L189.438 355.215C190.242 355.694 190.693 356.537 190.711 357.409L224.119 359.919C224.171 359.611 224.277 359.31 224.443 359.026C225.176 357.791 226.772 357.383 228.01 358.116C229.249 358.849 229.654 360.445 228.921 361.683C228.472 362.44 227.7 362.885 226.881 362.949L225.792 435.374C226.124 435.421 226.454 435.531 226.761 435.715C227.707 436.274 228.164 437.338 228.002 438.361L257.856 445.216C257.906 445.087 257.966 444.96 258.039 444.836C258.772 443.6 260.368 443.189 261.606 443.925C262.842 444.658 263.253 446.254 262.516 447.492C262.108 448.184 261.429 448.613 260.692 448.733L261.72 535.821C262.103 535.852 262.485 535.965 262.84 536.173C264.075 536.906 264.484 538.502 263.75 539.74L263.75 539.757ZM257.719 445.692L227.88 438.841C227.825 438.995 227.755 439.15 227.668 439.295C227.4 439.747 227.016 440.088 226.574 440.304L238.066 472.342L258.456 448.032C257.833 447.422 257.561 446.537 257.723 445.69L257.719 445.692ZM224.172 361.084L161.735 372.848C161.786 373.377 161.677 373.926 161.384 374.42C161.317 374.532 161.242 374.633 161.161 374.732L181.846 394.982L224.476 361.773C224.338 361.558 224.234 361.326 224.165 361.086L224.172 361.084ZM226.359 275.353C226.447 275.205 226.548 275.071 226.658 274.947L223.287 271.33L186.714 276.186L226.013 276.427C226.051 276.06 226.161 275.694 226.362 275.357L226.359 275.353ZM255.02 206.545L214.373 193.742C214.326 193.852 214.277 193.958 214.216 194.062C214.086 194.284 213.926 194.476 213.748 194.641L234.944 222.178L255.287 208.35C254.987 207.805 254.886 207.162 255.02 206.545ZM324.421 37.226C324.263 37.1695 324.105 37.0996 323.955 37.008C323.175 36.5443 322.726 35.7381 322.681 34.894L298.509 35.0431L307.7 83.0187C307.947 83.0308 308.193 83.0762 308.431 83.1629L318.009 55.6453L324.417 37.2286L324.421 37.226ZM124.617 157.036C124.449 157.296 124.242 157.519 124.009 157.696L152.674 203.674L163.809 180.155C162.683 179.489 162.246 178.107 162.73 176.932L124.62 157.037L124.617 157.036ZM144.255 441.667L123.149 423.319L141.812 442.039C142.503 441.52 143.423 441.368 144.258 441.667L144.255 441.667ZM177.068 466.354C177.376 466.535 177.632 466.772 177.831 467.04L194.971 456.516L163.359 412.966C163.2 413.059 163.031 413.136 162.859 413.193L175.294 466.029C175.885 465.925 176.513 466.024 177.071 466.354L177.068 466.354ZM208.581 470.722C209.744 471.48 210.117 473.025 209.4 474.23C208.885 475.099 207.944 475.556 207.001 475.5L200.891 514.831L224.459 440.557L208.581 470.722ZM205.834 470.661C206.525 470.252 207.385 470.177 208.156 470.496L224.101 440.208C223.832 440.048 223.605 439.848 223.417 439.618L195.666 456.656L205.833 470.665L205.834 470.661ZM223.146 439.215C222.815 438.61 222.732 437.885 222.942 437.204L164.314 411.971C164.298 411.997 164.285 412.028 164.27 412.054C164.125 412.297 163.948 412.505 163.748 412.682L195.383 456.264L223.146 439.215ZM185.788 356.284L164.703 340.219C164.202 340.765 163.495 341.058 162.777 341.056L160.931 360.136L185.51 357.665C185.475 357.199 185.563 356.722 185.792 356.281L185.788 356.284ZM209.111 50.8934C208.738 51.5263 208.135 51.938 207.477 52.0951L211.091 77.4005L257.948 36.5605C257.811 36.3721 257.705 36.1668 257.624 35.9534L209.435 49.1164C209.54 49.7071 209.444 50.3385 209.114 50.894L209.111 50.8934ZM213.812 86.623C213.886 86.6653 213.952 86.7126 214.022 86.7605L257.437 37.6431L211.175 77.9668L212.358 86.2633C212.852 86.2378 213.357 86.3509 213.815 86.6237L213.812 86.623ZM258.731 37.2776C258.657 37.2353 258.59 37.1881 258.52 37.1402L214.377 87.0814C214.757 87.4842 214.989 87.992 215.059 88.5288L264.016 86.747L260.024 37.6402C259.583 37.6368 259.135 37.5192 258.727 37.2801L258.731 37.2776ZM263.27 105.779L214.87 89.8987C214.826 89.9959 214.778 90.0956 214.722 90.1901C214.485 90.589 214.156 90.9021 213.782 91.1157L227.564 121.153L263.325 107.111C263.193 106.684 263.17 106.224 263.271 105.776L263.27 105.779ZM227.319 121.766L212.832 127.452C213.024 128.118 212.954 128.858 212.572 129.503C212.489 129.645 212.392 129.774 212.287 129.891L248.015 167.689C248.109 167.622 248.207 167.567 248.311 167.515L227.319 121.763L227.319 121.766ZM247.24 168.513C247.353 168.321 247.492 168.151 247.644 168L211.938 130.223C211.56 130.519 211.109 130.704 210.642 130.758L211.723 173.133L246.884 169.708C246.904 169.3 247.021 168.889 247.243 168.514L247.24 168.513ZM211.253 173.662L167.74 177.902C167.739 178.091 167.723 178.281 167.681 178.465L209.582 191.721C209.628 191.614 209.677 191.508 209.738 191.405C210.167 190.681 210.895 190.242 211.672 190.15L211.252 173.665L211.253 173.662ZM84.6161 351.948C85.0949 352.295 85.4242 352.783 85.5832 353.322L119.569 346.671L111.012 310.131C110.523 310.197 110.012 310.129 109.541 309.904L84.6168 351.945L84.6161 351.948ZM108.926 460.847L113.791 438.205L91.4121 433.604C91.3507 433.801 91.2709 433.99 91.1617 434.177C90.9915 434.463 90.7746 434.704 90.5275 434.898L107.414 461.127C107.877 460.888 108.403 460.79 108.922 460.85L108.926 460.847ZM91.5083 433.133L113.891 437.733L117.444 421.202C117.257 421.142 117.071 421.063 116.896 420.96C116.512 420.733 116.209 420.419 115.992 420.061L91.3619 431.935C91.5016 432.313 91.5547 432.723 91.509 433.129L91.5083 433.133ZM140.911 443.286C140.97 443.115 141.044 442.951 141.138 442.792C141.231 442.635 141.337 442.494 141.454 442.366L119.881 420.728C119.33 421.184 118.617 421.393 117.914 421.308L114.362 437.833L140.91 443.289L140.911 443.286ZM159.788 409.403C159.902 409.208 160.045 409.035 160.197 408.881L144.505 389.777L120.129 416.953C120.413 417.259 120.615 417.628 120.725 418.02L159.433 410.958C159.388 410.433 159.496 409.89 159.785 409.403L159.788 409.403ZM156.595 372.578L126.081 365.272C126.052 365.332 126.022 365.392 125.986 365.451C125.872 365.647 125.729 365.819 125.577 365.973L144.523 389.043L157.236 374.868C156.667 374.253 156.428 373.398 156.594 372.582L156.595 372.578ZM210.644 194.978C210.473 194.875 210.318 194.756 210.18 194.624L185.62 216.099L200.143 243.525C200.375 243.524 200.608 243.557 200.837 243.622L211.199 195.218C211.012 195.158 210.826 195.079 210.648 194.975L210.644 194.978ZM171.414 231.158L177.611 234.065L198.698 243.959C198.98 243.772 199.296 243.643 199.623 243.578L185.245 216.425L171.106 228.789C171.577 229.47 171.707 230.355 171.414 231.158ZM209.864 194.264C209.434 193.668 209.274 192.913 209.43 192.188L176.394 181.736L167.529 178.932C167.483 179.038 167.434 179.144 167.373 179.248C167.161 179.602 166.879 179.885 166.558 180.097L185.389 215.664L209.864 194.264ZM197.894 244.803C198.007 244.614 198.139 244.449 198.286 244.301L171.212 231.598C171.212 231.598 171.211 231.601 171.21 231.604C170.916 232.101 170.485 232.459 169.991 232.67L175.749 251.548L197.557 245.79C197.601 245.453 197.714 245.121 197.896 244.81L197.894 244.803ZM175.422 252.124L125.912 265.198C125.947 265.412 125.954 265.629 125.939 265.845L175.954 274.781L180.75 275.64C180.81 275.45 180.89 275.26 180.995 275.079C181.268 274.618 181.661 274.272 182.111 274.058L175.422 252.124ZM112.762 309.087C112.434 309.54 111.981 309.86 111.48 310.027L120.04 346.584L160.193 338.725C160.147 338.267 160.221 337.79 160.43 337.349L112.762 309.087ZM46.1758 372.497C46.223 372.62 46.2632 372.745 46.2925 372.874L90.2638 367.77L84.1121 356.45C83.3737 356.767 82.5017 356.739 81.7597 356.3C81.381 356.077 81.083 355.771 80.8678 355.42L70.108 360.716L46.1758 372.497ZM125.075 361.887C125.353 362.052 125.588 362.265 125.78 362.505L160.485 339.688C160.402 339.531 160.337 339.368 160.286 339.201L120.15 347.056L123.54 361.537C124.057 361.496 124.593 361.606 125.072 361.89L125.075 361.887ZM123.726 366.727L118.724 416.172C119.008 416.228 119.29 416.327 119.552 416.486C119.629 416.532 119.705 416.581 119.777 416.636L144.2 389.407L125.206 366.281C124.768 366.578 124.253 366.732 123.726 366.727ZM117.197 416.335C117.526 416.195 117.884 416.121 118.242 416.123L123.244 366.678C122.96 366.622 122.678 366.523 122.416 366.364C121.762 365.977 121.343 365.35 121.199 364.661L91.0223 368.162L117.194 416.331L117.197 416.335ZM121.146 364.184C121.143 364.041 121.15 363.896 121.171 363.751L99.5987 358.4L85.5467 354.914C85.4895 355.075 85.4164 355.232 85.3281 355.383C85.1222 355.729 84.8506 356.007 84.537 356.217L90.7788 367.709L121.149 364.185L121.146 364.184ZM85.6588 354.445L121.287 363.266C121.344 363.105 121.417 362.948 121.506 362.794C121.866 362.188 122.435 361.779 123.066 361.61L119.677 347.139L85.6733 353.793C85.6947 354.007 85.6918 354.226 85.6588 354.445ZM161.757 336.069C162.254 335.858 162.815 335.8 163.354 335.924L170.523 313.93L182.007 278.701C181.974 278.684 181.937 278.667 181.905 278.647C181.432 278.367 181.082 277.961 180.867 277.497L139.674 295.287L161.757 336.073L161.757 336.069ZM161.452 340.7C161.175 340.535 160.943 340.327 160.753 340.091L126.103 363.022C126.192 363.214 126.256 363.417 126.295 363.624L160.434 360.191L162.291 341.013C162.003 340.959 161.719 340.856 161.453 340.697L161.452 340.7ZM116.133 417.168C116.314 416.924 116.533 416.724 116.773 416.561L90.5073 368.223L46.3526 373.346C46.3676 373.748 46.2944 374.158 46.1168 374.543L116.133 417.168ZM113.007 308.67L160.674 336.932C160.858 336.674 161.086 336.463 161.337 336.297L139.235 295.474L113.129 306.747C113.329 307.361 113.303 308.05 113.007 308.666L113.007 308.67ZM139.448 294.86L180.711 277.041C180.635 276.739 180.615 276.423 180.651 276.111L125.855 266.32C125.796 266.537 125.708 266.751 125.588 266.955C125.382 267.301 125.107 267.582 124.793 267.792L139.45 294.864L139.448 294.86ZM125.791 264.733L175.283 251.663L169.533 232.81C168.909 232.948 168.235 232.862 167.644 232.511C167.44 232.392 167.262 232.244 167.106 232.085L125.543 264.236C125.643 264.393 125.728 264.561 125.793 264.737L125.791 264.733ZM170.298 228.033C170.484 228.146 170.652 228.277 170.797 228.424L185.014 215.991L166.128 180.322C165.946 180.397 165.755 180.453 165.561 180.488L169.06 227.672C169.483 227.688 169.907 227.804 170.294 228.036L170.298 228.033ZM197.536 246.284L175.887 251.999L182.566 273.891C183.062 273.76 183.598 273.773 184.102 273.953L198.7 248.298C197.994 247.834 197.581 247.078 197.536 246.284ZM160.394 360.681L126.35 364.105C126.353 364.345 126.322 364.584 126.256 364.82L156.738 372.12C156.786 372 156.84 371.885 156.908 371.77C157.449 370.86 158.454 370.4 159.441 370.512L160.391 360.68L160.394 360.681ZM157.822 375.338C157.745 375.292 157.669 375.242 157.597 375.187L144.833 389.417L160.57 408.577C160.88 408.37 161.226 408.227 161.591 408.168L159.105 375.698C158.668 375.692 158.224 375.575 157.818 375.337L157.822 375.338ZM174.831 466.161L162.392 413.311C161.826 413.391 161.233 413.286 160.704 412.975C160.104 412.619 159.7 412.058 159.525 411.436L120.817 418.498C120.863 419.023 120.755 419.566 120.466 420.054C120.426 420.118 120.382 420.182 120.339 420.243L173.878 466.785C174.15 466.503 174.477 466.293 174.831 466.161ZM140.801 443.758L114.266 438.305L109.399 460.954C109.586 461.013 109.772 461.092 109.947 461.195C110.283 461.396 110.559 461.664 110.765 461.966L140.999 445.17C140.805 444.73 140.733 444.239 140.802 443.755L140.801 443.758ZM90.2514 430.61C90.6357 430.837 90.9388 431.15 91.1558 431.509L115.43 419.806L85.9656 428.559L87.548 430.641C88.3477 430.145 89.3883 430.098 90.2514 430.61ZM115.674 419.233C115.566 418.691 115.628 418.112 115.889 417.585L45.9847 375.027L45.8128 375.054C45.7222 375.168 45.626 375.277 45.5191 375.374L85.652 428.153L115.674 419.236L115.674 419.233ZM45.9601 372.069L80.6592 354.99C80.3847 354.274 80.4297 353.446 80.8494 352.733C81.4989 351.639 82.8194 351.196 83.972 351.612L76.6718 341.371L45.7727 371.807C45.8414 371.891 45.903 371.977 45.9601 372.069ZM84.3961 351.383L109.128 309.67C109.076 309.633 109.028 309.593 108.98 309.553L77.0186 341.035L84.3987 351.387L84.3961 351.383ZM111.983 305.325C112.4 305.572 112.722 305.919 112.937 306.317L139.004 295.059L124.365 268.024C123.883 268.228 123.345 268.288 122.823 268.181L111.633 305.154C111.753 305.203 111.867 305.257 111.98 305.324L111.983 305.325ZM166.801 231.715C166.267 230.907 166.203 229.836 166.729 228.95C166.905 228.651 167.134 228.403 167.395 228.206L152.73 204.686L124.874 263.529C125.01 263.628 125.136 263.741 125.247 263.861L166.801 231.718L166.801 231.715ZM167.801 227.952C168.047 227.828 168.31 227.744 168.581 227.704L165.084 180.527C164.8 180.521 164.518 180.471 164.24 180.369L152.972 204.169L167.801 227.952ZM167.685 177.435L211.232 173.192L210.151 130.784C209.757 130.758 209.359 130.644 208.996 130.427C208.913 130.377 208.835 130.324 208.76 130.268L167.051 176.167C167.381 176.526 167.594 176.967 167.685 177.435ZM211.652 125.95C212.096 126.213 212.432 126.59 212.647 127.018L227.109 121.339L213.338 91.3281C213.094 91.4129 212.834 91.4612 212.573 91.4725L210.706 125.614C211.031 125.663 211.351 125.77 211.652 125.95ZM210.236 87.5447C210.612 86.9125 211.211 86.5001 211.872 86.3437L210.731 78.3552L201.89 86.0605C202.214 86.5113 202.385 87.0561 202.378 87.6067L209.921 88.3761C209.977 88.0921 210.076 87.8136 210.234 87.5511L210.236 87.5447ZM201.107 85.3402C201.279 85.4428 201.436 85.5626 201.575 85.6948L210.651 77.7865L206.995 52.1762C206.873 52.1838 206.751 52.1781 206.628 52.1653L200.491 85.0772C200.701 85.1381 200.909 85.222 201.107 85.3402ZM257.487 35.4989C257.382 34.9082 257.478 34.2768 257.808 33.7213C258.149 33.1448 258.678 32.7509 259.272 32.567L257.709 25.2677L209.316 48.6557L257.487 35.4989ZM259.742 32.4666C260.292 32.3996 260.864 32.507 261.375 32.811C261.571 32.9254 261.744 33.065 261.894 33.2197L290.816 9.44931C290.779 9.40486 290.744 9.3643 290.71 9.32057L258.153 25.0554L259.738 32.4691L259.742 32.4666ZM291.471 9.99985C291.361 9.93678 291.264 9.86301 291.167 9.78608L262.202 33.5905C262.445 33.9511 262.594 34.3648 262.637 34.7928L297.926 34.5775L293.276 10.3174C292.677 10.4304 292.036 10.335 291.471 9.99985ZM262.641 35.2759C262.608 35.6546 262.495 36.0299 262.289 36.3787C262.206 36.5176 262.113 36.6442 262.009 36.7618L306.299 83.3582C306.582 83.1984 306.893 83.0945 307.215 83.0493L298.021 35.0565L262.645 35.2734L262.641 35.2759ZM305.331 84.3014C305.486 84.0414 305.679 83.8194 305.897 83.636L261.659 37.0939C261.317 37.3608 260.92 37.5398 260.499 37.6139L264.492 86.7444L304.991 85.2704C305.038 84.9377 305.147 84.6083 305.331 84.3014ZM264.051 87.24L215.075 89.0209C215.068 89.1657 215.047 89.311 215.014 89.4535L263.411 105.334C263.456 105.23 263.504 105.13 263.561 105.029C263.974 104.335 264.657 103.904 265.396 103.787L264.052 87.2368L264.051 87.24ZM264.474 108.6C264.042 108.346 263.716 107.985 263.501 107.57L227.758 121.606L248.75 167.359C249.132 167.25 249.536 167.225 249.933 167.299L264.974 108.832C264.803 108.776 264.636 108.701 264.474 108.604L264.474 108.6ZM246.893 170.206L211.724 173.632L212.147 190.154C212.54 190.18 212.936 190.294 213.302 190.511C213.606 190.691 213.86 190.924 214.06 191.189L247.105 170.932C247.001 170.701 246.933 170.457 246.896 170.206L246.893 170.206ZM213.361 194.946C212.859 195.262 212.257 195.401 211.664 195.329L201.287 243.806C201.344 243.835 201.401 243.864 201.458 243.896C201.723 244.055 201.95 244.255 202.136 244.481L234.539 222.459L213.358 194.945L213.361 194.946ZM202.407 244.881C202.696 245.404 202.797 246.013 202.688 246.609L265.315 264.263C265.367 264.128 265.427 263.998 265.504 263.871C265.634 263.649 265.794 263.456 265.972 263.291L234.837 222.844L202.41 244.881L202.407 244.881ZM265.184 264.728L202.556 247.073C202.505 247.209 202.444 247.339 202.367 247.466C202.28 247.614 202.181 247.749 202.069 247.872L223.461 270.835L265.139 265.303C265.133 265.113 265.147 264.919 265.18 264.73L265.184 264.728ZM201.721 248.197C200.99 248.761 199.999 248.905 199.123 248.534L184.54 274.165C184.54 274.165 184.555 274.171 184.564 274.176C185.202 274.554 185.618 275.167 185.773 275.838L222.886 270.913L201.727 248.202L201.721 248.197ZM182.451 278.898L163.809 336.083C163.91 336.128 164.009 336.175 164.107 336.232C165.343 336.965 165.754 338.562 165.017 339.799C165.007 339.817 164.994 339.831 164.984 339.849L186.037 355.891C186.427 355.384 186.978 355.058 187.575 354.938L182.963 279.006C182.79 278.99 182.619 278.953 182.447 278.897L182.451 278.898ZM185.583 358.156L160.878 360.64L159.913 370.622C160.104 370.682 160.293 370.761 160.474 370.866C160.844 371.084 161.136 371.382 161.35 371.723L185.751 358.604C185.682 358.459 185.627 358.308 185.586 358.156L185.583 358.156ZM160.826 375.09C160.467 375.393 160.036 375.592 159.58 375.672L162.066 408.141C162.503 408.147 162.948 408.264 163.353 408.502C163.568 408.631 163.758 408.787 163.921 408.961L181.464 395.294L160.826 375.09ZM164.217 409.34C164.63 409.985 164.744 410.798 164.5 411.544L223.119 436.776C223.141 436.734 223.159 436.694 223.184 436.653C223.251 436.541 223.326 436.44 223.403 436.343L181.812 395.63L164.218 409.337L164.217 409.34ZM226.116 440.49C225.746 440.592 225.352 440.612 224.968 440.544L201.18 515.508C201.287 515.553 201.393 515.602 201.496 515.664C201.55 515.695 201.598 515.732 201.648 515.766L237.699 472.787L226.115 440.493L226.116 440.49ZM202.015 516.073C202.645 516.711 202.907 517.631 202.701 518.499L259.124 537.395C259.167 537.301 259.21 537.207 259.265 537.119C259.543 536.652 259.943 536.301 260.404 536.088L237.888 473.312L202.015 516.076L202.015 516.073ZM204.92 471.589C205.064 471.347 205.241 471.138 205.441 470.961L195.251 456.924L178.077 467.468C178.277 467.876 178.363 468.333 178.334 468.789L204.623 472.335C204.683 472.081 204.779 471.829 204.919 471.592L204.92 471.589ZM145.676 442.921C146.078 443.681 146.092 444.621 145.638 445.42L169.752 463.85L145.676 442.921ZM86.6817 431.533C86.8155 431.308 86.9771 431.11 87.162 430.942L85.47 428.717L45.1534 440.694L86.3323 433.095C86.2835 432.569 86.392 432.024 86.6849 431.533L86.6817 431.533ZM41.1058 439.168C41.4384 439.215 41.771 439.325 42.0779 439.51C42.5922 439.814 42.9589 440.267 43.1634 440.779L85.1546 428.304L45.1312 375.668C44.7523 375.904 44.3214 376.039 43.8815 376.06L41.1058 439.168ZM4.72757 379.37C5.03678 379.702 5.25147 380.103 5.3542 380.53L41.7896 375.163C41.0752 374.341 40.9303 373.12 41.5175 372.133C42.0905 371.166 43.1877 370.71 44.2341 370.904L59.2046 318.131L4.73076 379.371L4.72757 379.37ZM59.8137 317.735L44.6947 371.037C44.8269 371.089 44.9571 371.149 45.0846 371.223C45.2121 371.296 45.3235 371.383 45.4342 371.473L76.3913 340.982L59.8176 317.732L59.8137 317.735ZM60.1336 317.353L76.7356 340.643L108.642 309.215C108.418 308.939 108.252 308.621 108.156 308.285L60.1336 317.353ZM124.892 262.376L152.429 204.207L123.599 157.965C123.324 158.103 123.03 158.188 122.727 158.224L124.895 262.373L124.892 262.376ZM124.975 155.1C125.082 155.601 125.044 156.132 124.839 156.627L162.95 176.523C163.705 175.352 165.254 174.977 166.463 175.694C166.545 175.745 166.624 175.798 166.702 175.854L208.41 129.955C208.205 129.732 208.046 129.472 207.931 129.199L124.978 155.101L124.975 155.1ZM209.908 125.629C210.015 125.611 210.12 125.6 210.227 125.596L212.094 91.4548C211.769 91.406 211.449 91.2987 211.148 91.1188C210.32 90.6284 209.867 89.7513 209.876 88.8555L202.334 88.0861C202.277 88.3701 202.179 88.6486 202.02 88.9111C201.7 89.4521 201.213 89.835 200.666 90.0322L209.909 125.622L209.908 125.629ZM208.871 47.93C208.953 48.0304 209.028 48.1327 209.095 48.2399L257.61 24.7913L253.597 6.04218C253.048 6.10918 252.475 6.00172 251.964 5.69774C251.843 5.62566 251.731 5.54214 251.623 5.45296L208.872 47.9268L208.871 47.93ZM255.84 3.98795C255.782 4.26171 255.681 4.53314 255.531 4.78749C255.19 5.36392 254.662 5.75787 254.067 5.94184L258.054 24.579L290.463 8.91594C290.3 8.58246 290.211 8.21779 290.2 7.84629L255.839 3.99111L255.84 3.98795ZM294.682 9.56637C294.413 9.84561 294.093 10.0573 293.745 10.1934L298.416 34.5846L322.702 34.436C322.748 34.1034 322.858 33.7709 323.043 33.464C323.12 33.334 323.208 33.2162 323.305 33.1036L294.684 9.57014L294.682 9.56637ZM305.127 86.5327C305.036 86.2842 304.985 86.0239 304.97 85.7615L264.532 87.2316L265.876 103.769C266.303 103.779 266.733 103.896 267.129 104.133C267.516 104.364 267.822 104.678 268.038 105.039L305.126 86.5359L305.127 86.5327ZM249.785 172.445C249.236 172.512 248.656 172.406 248.142 172.102C247.814 171.906 247.542 171.649 247.339 171.354L214.305 191.603C214.561 192.126 214.637 192.724 214.516 193.3L255.163 206.103C255.209 205.993 255.258 205.887 255.32 205.783C255.66 205.21 256.185 204.819 256.777 204.631L249.786 172.442L249.785 172.445ZM257.772 209.705C257.254 209.749 256.715 209.639 256.234 209.351C255.968 209.192 255.741 208.991 255.556 208.766L235.236 222.576L266.356 263.003C266.575 262.863 266.812 262.76 267.063 262.693L257.775 209.706L257.772 209.705ZM264.681 265.852L223.869 271.27L227.009 274.639C227.827 274.007 228.98 273.898 229.926 274.459C230.44 274.764 230.809 275.221 231.016 275.74L264.68 265.855L264.681 265.852ZM227.229 278.908C226.505 278.46 226.077 277.714 226.008 276.922L185.822 276.676C185.784 277.044 185.674 277.41 185.473 277.746C185.028 278.501 184.26 278.944 183.451 279.012L188.058 354.887C188.448 354.88 188.844 354.96 189.212 355.137L227.226 278.908L227.229 278.908ZM190.663 357.921C190.612 358.229 190.505 358.529 190.339 358.813C189.606 360.048 188.01 360.457 186.772 359.723C186.458 359.538 186.197 359.296 185.996 359.018L161.565 372.154C161.595 372.233 161.622 372.312 161.645 372.393L224.082 360.629C224.076 360.565 224.073 360.498 224.071 360.431L190.663 357.921ZM226.394 362.972C226.034 362.933 225.678 362.821 225.347 362.625C225.131 362.497 224.942 362.34 224.779 362.166L182.2 395.336L223.744 436.003C224.186 435.627 224.74 435.412 225.307 435.385L226.398 362.973L226.394 362.972ZM260.209 448.798C259.779 448.787 259.345 448.672 258.946 448.435C258.905 448.41 258.864 448.381 258.826 448.357L238.25 472.886L260.86 535.925C260.983 535.895 261.111 535.872 261.24 535.859L260.213 448.799L260.209 448.798Z" fill="url(#paint0_linear_264_849)"/>
<defs>
<linearGradient id="paint0_linear_264_849" x1="88" y1="765" x2="230.826" y2="-7.99676" gradientUnits="userSpaceOnUse">
<stop stop-color="#C812C1"/>
<stop offset="1" stop-color="#754FFE" stop-opacity="0.03"/>
</linearGradient>
</defs>
</svg>
