<svg width="181" height="541" viewBox="0 0 181 541" fill="none" xmlns="http://www.w3.org/2000/svg">
<path d="M103.789 1.37347C103.026 0.15621 101.421 -0.213266 100.201 0.549945C99.2135 1.1678 98.7825 2.34286 99.0623 3.41343L43.1138 23.6721C43.0685 23.5792 43.0231 23.4863 42.9658 23.3996C42.2033 22.1823 40.5974 21.8096 39.3778 22.576C38.1605 23.3385 37.7878 24.9444 38.5542 26.1641C39.0909 27.0202 40.0426 27.4538 40.9835 27.3752L48.1418 67.0795C47.9065 67.1451 47.6756 67.2431 47.4576 67.3816C46.6159 67.9082 46.1794 68.8338 46.2409 69.7587L20.0352 73.9403C19.9711 73.7114 19.8745 73.4868 19.7407 73.2744C18.9782 72.0571 17.3731 71.6877 16.1527 72.4509C14.9441 73.2079 14.5709 74.7973 15.3129 76.0127L-12.2805 98.1847C-13.1098 97.2507 -14.5115 97.0204 -15.6063 97.7071C-15.9381 97.9159 -16.2076 98.1902 -16.4057 98.4978L-47.0378 82.4391C-46.7306 81.6878 -46.7745 80.8089 -47.237 80.069C-47.9994 78.8517 -49.6053 78.4791 -50.825 79.2455C-52.0423 80.0079 -52.4149 81.6139 -51.6485 82.8335C-51.4714 83.116 -51.2488 83.3509 -50.9971 83.5388L-67.2458 110.17C-68.0277 109.79 -68.9804 109.805 -69.7696 110.299C-70.3576 110.669 -70.7484 111.236 -70.9088 111.859L-114.163 104.959C-114.127 104.432 -114.249 103.889 -114.554 103.406C-115.316 102.189 -116.921 101.819 -118.142 102.582C-119.359 103.345 -119.729 104.95 -118.965 106.171C-118.483 106.939 -117.666 107.368 -116.822 107.389L-112.517 170.412C-112.848 170.466 -113.178 170.585 -113.48 170.776C-113.542 170.814 -113.599 170.855 -113.655 170.898L-150.603 166.368C-150.587 165.87 -150.713 165.365 -150.997 164.911C-151.76 163.693 -153.366 163.321 -154.585 164.087C-155.803 164.849 -156.175 166.455 -155.409 167.675C-154.647 168.892 -153.041 169.265 -151.821 168.499C-151.748 168.451 -151.676 168.404 -151.608 168.351L-95.0794 228.879L-95.1839 229.031L-94.8949 229.08L-94.2364 229.786L-94.4319 229.157L-46.2168 237.058C-46.2552 237.589 -46.1328 238.135 -45.8273 238.621C-45.2218 239.584 -44.0901 240.016 -43.0405 239.774L-30.9577 276.466C-31.0759 276.517 -31.1895 276.574 -31.3001 276.644C-32.5174 277.406 -32.8869 279.011 -32.1236 280.232C-31.4091 281.373 -29.9582 281.769 -28.7748 281.189L-28.4113 386.248C-28.8001 386.287 -29.1892 386.409 -29.5448 386.63C-30.762 387.392 -31.1315 388.998 -30.3683 390.218C-29.6058 391.435 -28.0007 391.805 -26.7802 391.041C-26.2854 390.731 -25.9331 390.283 -25.738 389.779L57.8185 413.662C57.7008 414.281 57.8043 414.945 58.1686 415.525C58.5019 416.058 58.9974 416.429 59.5491 416.612L51.172 452.416C50.5875 452.334 49.9728 452.449 49.4341 452.787C48.2169 453.549 47.8443 455.155 48.6106 456.375C49.1628 457.254 50.1516 457.689 51.1182 457.578L58.051 490.331C57.8426 490.397 57.6363 490.486 57.4413 490.609C56.2241 491.371 55.8546 492.977 56.6178 494.197C57.3803 495.414 58.9854 495.784 60.2059 495.021C60.3252 494.945 60.4352 494.859 60.5406 494.768L104.31 536.192C103.652 537.03 103.55 538.224 104.15 539.179C104.912 540.396 106.517 540.766 107.738 540.002C108.562 539.487 108.995 538.589 108.955 537.682L143.189 532.997C143.247 533.314 143.361 533.625 143.542 533.913C144.305 535.13 145.91 535.5 147.13 534.737C148.348 533.974 148.717 532.369 147.954 531.149C147.933 531.117 147.913 531.088 147.893 531.059L175.982 506.798C176.819 507.439 177.997 507.531 178.944 506.94C180.161 506.177 180.531 504.572 179.768 503.352C179.188 502.426 178.119 501.993 177.105 502.172L159.98 456.553C159.98 456.553 159.997 456.542 160.006 456.537C161.223 455.774 161.593 454.169 160.83 452.949C160.067 451.731 158.462 451.362 157.242 452.125C156.861 452.366 156.559 452.688 156.355 453.057L118.83 435.458C119.072 434.742 119.006 433.928 118.573 433.239C117.998 432.321 116.949 431.887 115.945 432.051L99.4862 373.947C99.6235 373.891 99.7553 373.827 99.8834 373.746C101.101 372.984 101.47 371.379 100.707 370.158C100.353 369.593 99.8186 369.215 99.2226 369.041L105.431 336.692C105.982 336.746 106.559 336.626 107.065 336.309C108.283 335.547 108.655 333.941 107.889 332.721C107.514 332.125 106.94 331.732 106.305 331.578L114.305 278.381C114.824 278.412 115.36 278.289 115.834 277.99C117.051 277.227 117.421 275.622 116.658 274.402C115.895 273.184 114.29 272.815 113.069 273.578C112.563 273.895 112.205 274.361 112.011 274.885L77.6028 265.68C77.7061 265.07 77.6008 264.426 77.2466 263.861C76.5599 262.767 75.1967 262.36 74.0398 262.841L34.1846 187.55L33.974 187.663C34.7656 187.165 35.1956 186.311 35.1934 185.439L68.5301 182.12C68.5893 182.427 68.7031 182.724 68.8763 183.004C69.6387 184.221 71.2439 184.591 72.4643 183.827C73.6848 183.064 74.0511 181.46 73.2879 180.239C72.8208 179.494 72.0379 179.067 71.2185 179.023L68.373 106.646C68.7044 106.591 69.031 106.474 69.3334 106.282C70.2658 105.7 70.6971 104.625 70.5098 103.607L100.189 96.0296C100.243 96.1574 100.306 96.2829 100.381 96.4054C101.144 97.6227 102.75 97.9953 103.969 97.2289C105.187 96.4665 105.559 94.8605 104.793 93.6409C104.368 92.959 103.679 92.5469 102.939 92.4443L101.855 5.35762C102.237 5.31755 102.616 5.19458 102.966 4.97812C104.183 4.21565 104.553 2.61047 103.789 1.39005L103.789 1.37347ZM100.04 95.5566L70.377 103.13C70.3174 102.977 70.2444 102.823 70.1539 102.681C69.8748 102.235 69.4821 101.904 69.0357 101.698L79.7471 69.3913L100.72 93.1994C100.112 93.8245 99.8618 94.7162 100.044 95.559L100.04 95.5566ZM68.5554 180.953L5.85111 170.707C5.8895 170.176 5.76712 169.63 5.46165 169.144C5.39204 169.034 5.3152 168.935 5.23201 168.837L25.4195 148.092L68.8422 180.257C68.7099 180.476 68.6114 180.71 68.5483 180.952L68.5554 180.953ZM72.8202 266.606C72.9115 266.752 73.0163 266.884 73.1284 267.005L69.8468 270.702L33.1662 266.735L72.448 265.541C72.4946 265.907 72.6139 266.27 72.8227 266.602L72.8202 266.606ZM103.141 334.699L62.8164 348.484C62.7672 348.375 62.7157 348.27 62.6515 348.168C62.5162 347.949 62.3514 347.761 62.1695 347.6L82.6917 319.557L103.365 332.888C103.077 333.441 102.993 334.086 103.141 334.699ZM176.627 502.285C176.471 502.346 176.314 502.42 176.166 502.515C175.398 502.997 174.969 503.814 174.945 504.659L150.776 505.096L158.801 456.912C159.047 456.894 159.293 456.842 159.528 456.75L169.77 484.027L176.623 502.283L176.627 502.285ZM-26.0233 387.355C-26.1976 387.099 -26.4094 386.882 -26.6471 386.711L0.895244 340.051L12.5972 363.292C11.4874 363.986 11.0843 365.379 11.5965 366.541L-26.0201 387.355L-26.0233 387.355ZM-13.2928 102.332L-33.9476 121.186L-15.7439 102.019C-15.0401 102.521 -14.1168 102.651 -13.2896 102.331L-13.2928 102.332ZM18.9125 76.8569C19.2156 76.6682 19.4658 76.4252 19.6587 76.1523L37.0484 86.2574L6.50197 130.561C6.34054 130.472 6.16945 130.399 5.9965 130.346L17.1471 77.224C17.7402 77.3145 18.3651 77.2002 18.9157 76.8561L18.9125 76.8569ZM50.3098 71.7257C51.4548 70.9402 51.7897 69.3866 51.0442 68.1988C50.5075 67.3427 49.5558 66.9091 48.6149 66.9877L41.5524 27.8158L66.9154 101.497L50.3098 71.7257ZM47.565 71.8529C48.2662 72.2455 49.1281 72.2992 49.8909 71.9618L66.5651 101.854C66.3002 102.021 66.0781 102.227 65.896 102.46L37.7402 86.1006L47.5642 71.8497L47.565 71.8529ZM65.635 102.87C65.3185 103.483 65.2531 104.21 65.4796 104.886L7.48068 131.533C7.46444 131.507 7.45062 131.477 7.43438 131.451C7.28436 131.212 7.10232 131.008 6.89776 130.835L37.4667 86.4996L65.635 102.87ZM30.2987 186.683L9.60934 203.255C9.09534 202.721 8.38155 202.445 7.66394 202.464L5.35585 183.435L29.9873 185.309C29.9639 185.776 30.0628 186.251 30.3027 186.685L30.2987 186.683ZM61.0193 491.418C60.6312 490.794 60.0191 490.397 59.3572 490.256L62.3569 464.871L110.19 504.563C110.058 504.754 109.957 504.962 109.88 505.177L61.3872 493.187C61.4777 492.594 61.3658 491.965 61.0225 491.417L61.0193 491.418ZM64.8527 455.585C64.9259 455.541 64.9912 455.492 65.0597 455.442L109.653 503.493L62.4266 464.303L63.4081 455.98C63.9028 455.993 64.4047 455.868 64.8558 455.584L64.8527 455.585ZM110.955 503.827C110.882 503.871 110.817 503.92 110.748 503.969L65.4064 455.113C65.7771 454.701 65.9968 454.188 66.0535 453.65L115.039 454.244L112.24 503.433C111.798 503.447 111.354 503.575 110.951 503.824L110.955 503.827ZM113.832 435.235L65.8311 452.285C65.785 452.189 65.735 452.09 65.6762 451.997C65.4295 451.604 65.0933 451.299 64.714 451.094L77.764 420.732L113.855 433.902C113.733 434.332 113.721 434.793 113.833 435.238L113.832 435.235ZM77.5035 420.125L62.8831 414.791C63.059 414.121 62.9715 413.383 62.574 412.748C62.4874 412.608 62.3872 412.481 62.2798 412.366L97.0806 373.713C97.1761 373.778 97.2756 373.831 97.3808 373.88L77.5042 420.128L77.5035 420.125ZM96.2852 372.908C96.4035 373.098 96.5466 373.265 96.7018 373.412L61.9225 412.043C61.5372 411.756 61.0817 411.583 60.6135 411.54L60.6673 369.151L95.9012 371.722C95.9306 372.13 96.0572 372.538 96.2884 372.908L96.2852 372.908ZM60.1839 368.634L16.5808 365.45C16.5762 365.261 16.5549 365.072 16.5083 364.889L58.0759 350.62C58.1242 350.726 58.1757 350.831 58.2399 350.933C58.6861 351.646 59.4241 352.067 60.2037 352.14L60.1832 368.631L60.1839 368.634ZM-70.7383 193.471C-70.2681 193.112 -69.9507 192.616 -69.8049 192.073L-35.6673 197.899L-43.3358 234.635C-43.8268 234.581 -44.3361 234.661 -44.8016 234.898L-70.7375 193.474L-70.7383 193.471ZM-49.076 84.0141L-43.6632 106.532L-65.9243 111.674C-65.9905 111.479 -66.0749 111.291 -66.1885 111.107C-66.3656 110.825 -66.5883 110.59 -66.84 110.402L-50.5944 83.7712C-50.1262 83.9982 -49.5978 84.084 -49.0799 84.0117L-49.076 84.0141ZM-65.8167 112.143L-43.5524 107.001L-39.5995 123.441C-39.785 123.505 -39.9692 123.589 -40.141 123.696C-40.5197 123.933 -40.8151 124.253 -41.0233 124.617L-65.934 113.344C-65.8036 112.962 -65.7604 112.551 -65.816 112.146L-65.8167 112.143ZM-16.6751 100.795C-16.6118 100.964 -16.5334 101.126 -16.436 101.283C-16.3393 101.438 -16.2298 101.576 -16.1099 101.701L-37.1513 123.855C-37.7138 123.413 -38.4311 123.222 -39.1324 123.324L-43.0838 106.89L-16.6759 100.792L-16.6751 100.795ZM3.01813 134.21C3.13719 134.402 3.28416 134.571 3.44006 134.722L-11.7846 154.201L-36.8123 127.623C-36.5352 127.311 -36.3426 126.937 -36.242 126.543L2.62607 132.664C2.59325 133.19 2.71416 133.73 3.01497 134.21L3.01813 134.21ZM0.718733 171.101L-29.6088 179.146C-29.6396 179.086 -29.6705 179.026 -29.7076 178.968C-29.8266 178.776 -29.9736 178.607 -30.1295 178.456L-11.7482 154.934L1.30397 168.796C0.750553 169.425 0.532712 170.286 0.717982 171.098L0.718733 171.101ZM59.0588 347.339C58.8901 347.446 58.7386 347.568 58.6035 347.704L33.5299 326.831L47.3831 299.06C47.616 299.056 47.8477 299.018 48.0751 298.947L59.6074 347.086C59.4219 347.15 59.2377 347.233 59.0627 347.341L59.0588 347.339ZM18.9631 312.12L25.0879 309.064L45.9283 298.662C46.2148 298.842 46.5344 298.964 46.862 299.02L33.1473 326.514L18.7124 314.496C19.1672 313.804 19.2749 312.916 18.9631 312.12ZM58.2957 348.071C57.8807 348.677 57.7391 349.436 57.9129 350.157L25.1402 361.408L16.3454 364.426C16.297 364.32 16.2455 364.215 16.1813 364.114C15.9617 363.764 15.6725 363.488 15.3468 363.284L33.3096 327.271L58.2957 348.071ZM45.1047 297.837C45.2223 298.023 45.3575 298.185 45.5088 298.33L18.7501 311.686C18.7501 311.686 18.7494 311.683 18.7486 311.68C18.4424 311.19 18.0026 310.843 17.504 310.643L22.8026 291.631L44.7432 296.859C44.7957 297.195 44.917 297.524 45.1064 297.83L45.1047 297.837ZM22.4611 291.063L-27.3507 279.194C-27.3211 278.98 -27.3191 278.762 -27.34 278.546L22.4435 268.4L27.2179 267.425C27.2826 267.614 27.3669 267.801 27.4759 267.98C27.7605 268.434 28.161 268.771 28.6169 268.974L22.4611 291.063ZM-41.5612 235.637C-41.9004 235.192 -42.3612 234.883 -42.8659 234.728L-35.1947 197.975L5.13697 204.857C5.10186 205.316 5.18727 205.791 5.40737 206.227L-41.5612 235.637ZM-109.666 173.86C-109.621 173.736 -109.584 173.61 -109.558 173.48L-65.4759 177.517L-71.3513 188.982C-72.0972 188.684 -72.9683 188.732 -73.6994 189.189C-74.0726 189.421 -74.3631 189.734 -74.5697 190.09L-85.4548 185.057L-109.666 173.86ZM-30.5319 182.553C-30.2582 182.381 -30.0289 182.163 -29.8426 181.919L5.40592 203.887C5.32653 204.046 5.26522 204.211 5.21807 204.38L-35.0963 197.5L-32.0584 182.941C-31.5402 182.969 -31.0076 182.846 -30.5358 182.551L-30.5319 182.553ZM-31.9987 177.748L-38.1975 128.439C-37.915 128.376 -37.6358 128.269 -37.3772 128.105C-37.3016 128.057 -37.2268 128.006 -37.1566 127.949L-12.0798 154.578L-30.5077 178.158C-30.953 177.872 -31.4713 177.73 -31.9987 177.748ZM-39.7285 128.313C-39.3964 128.445 -39.0366 128.51 -38.6781 128.499L-32.4792 177.808C-32.7618 177.871 -33.041 177.978 -33.2996 178.142C-33.9432 178.545 -34.3476 179.182 -34.4748 179.874L-64.7272 177.106L-39.7309 128.317L-39.7285 128.313ZM-34.5157 180.352C-34.5152 180.496 -34.5044 180.64 -34.4803 180.785L-55.9166 186.658L-69.8799 190.483C-69.941 190.324 -70.0179 190.168 -70.1099 190.019C-70.3241 189.679 -70.6023 189.407 -70.9209 189.205L-64.9596 177.565L-34.5126 180.351L-34.5157 180.352ZM-69.7565 190.949L-34.3531 181.267C-34.292 181.426 -34.2151 181.582 -34.1223 181.734C-33.7473 182.33 -33.1691 182.725 -32.5343 182.879L-35.5712 197.428L-69.7262 191.6C-69.71 191.386 -69.7182 191.167 -69.7565 190.949ZM6.76529 207.474C7.26701 207.673 7.82913 207.717 8.36517 207.581L16.0654 229.394L28.3996 264.334C28.3671 264.352 28.3313 264.371 28.2995 264.392C27.8333 264.682 27.4933 265.097 27.29 265.566L-14.3229 248.78L6.76454 207.471L6.76529 207.474ZM6.34811 202.852C6.07443 203.024 5.84754 203.238 5.66373 203.479L-29.5321 181.394C-29.4475 181.2 -29.3888 180.996 -29.3546 180.787L4.85762 183.392L7.17867 202.519C6.89219 202.58 6.61063 202.69 6.34886 202.855L6.34811 202.852ZM-40.8119 127.506C-40.6248 127.746 -40.4016 127.94 -40.1574 128.097L-65.2435 177.057L-109.509 173.007C-109.504 172.605 -109.587 172.197 -109.774 171.816L-40.8119 127.506ZM-41.3069 236.048L5.66173 206.638C5.85182 206.891 6.08434 207.097 6.33955 207.257L-14.7658 248.604L-41.1374 237.967C-40.9527 237.348 -40.9951 236.66 -41.3061 236.051L-41.3069 236.048ZM-14.5384 249.212L27.1444 266.025C27.0758 266.329 27.0638 266.646 27.1072 266.957L-27.4349 278.074C-27.4993 277.858 -27.5928 277.646 -27.7173 277.445C-27.9315 277.104 -28.2137 276.83 -28.5323 276.628L-14.536 249.208L-14.5384 249.212ZM-27.4609 279.661L22.3336 291.528L17.0424 310.515C16.415 310.392 15.7437 310.494 15.1613 310.859C14.9601 310.984 14.7853 311.135 14.6332 311.298L-27.6963 280.165C-27.6003 280.005 -27.52 279.836 -27.4585 279.657L-27.4609 279.661ZM17.9227 315.271C18.1057 315.155 18.2708 315.019 18.4125 314.868L32.927 326.953L14.9116 363.07C14.7278 362.999 14.5351 362.948 14.3406 362.917L16.6945 315.662C17.1162 315.636 17.5377 315.51 17.9188 315.269L17.9227 315.271ZM44.7101 296.366L22.9292 291.177L29.075 269.13C29.5746 269.249 30.11 269.223 30.6097 269.031L45.8255 294.324C45.1303 294.805 44.7362 295.571 44.7101 296.366ZM4.80553 182.903L-29.3113 180.306C-29.3145 180.066 -29.3509 179.827 -29.4228 179.593L0.873076 171.556C0.924435 171.674 0.98137 171.788 1.05172 171.902C1.6147 172.798 2.6303 173.234 3.61458 173.098L4.80235 182.904L4.80553 182.903ZM1.87841 168.313C1.80282 168.361 1.72797 168.412 1.65779 168.469L-11.4474 154.552L3.82059 135.016C4.13527 135.216 4.48474 135.351 4.85106 135.401L3.15325 167.921C2.71583 167.938 2.2746 168.065 1.87525 168.314L1.87841 168.313ZM16.6807 77.1036L5.52674 130.24C4.95938 130.173 4.3691 130.293 3.84723 130.617C3.2561 130.987 2.86602 131.558 2.70644 132.184L-36.1616 126.062C-36.1288 125.536 -36.2497 124.996 -36.5505 124.516C-36.5923 124.452 -36.6373 124.389 -36.6815 124.33L15.713 76.5032C15.992 76.7782 16.324 76.9806 16.6807 77.1036ZM-16.7961 100.325L-43.1914 106.421L-48.6057 83.8963C-48.4202 83.8324 -48.2361 83.7487 -48.0642 83.6412C-47.7324 83.4324 -47.463 83.1581 -47.2649 82.8505L-16.6327 98.9092C-16.8152 99.3535 -16.876 99.846 -16.7954 100.328L-16.7961 100.325ZM-67.012 114.695C-66.6333 114.459 -66.338 114.138 -66.1297 113.775L-41.5784 124.885L-71.2469 116.85L-69.7154 114.729C-68.9039 115.206 -67.8625 115.228 -67.012 114.695ZM-41.3206 125.453C-41.416 125.997 -41.3397 126.574 -41.0663 127.094L-109.918 171.335L-110.091 171.312C-110.184 171.201 -110.283 171.094 -110.392 170.999L-71.5505 117.263L-41.3213 125.45L-41.3206 125.453ZM-109.871 174.293L-74.7678 190.525C-75.0249 191.248 -74.9598 192.075 -74.523 192.777C-73.8471 193.855 -72.5163 194.266 -71.3742 193.822L-78.4238 204.237L-110.052 174.56C-109.985 174.474 -109.926 174.386 -109.871 174.293ZM-70.9445 194.041L-45.2088 235.142C-45.2598 235.18 -45.3069 235.222 -45.354 235.263L-78.069 204.565L-70.9421 194.037L-70.9445 194.041ZM-42.2491 239.417C-41.8386 239.159 -41.5247 238.804 -41.319 238.401L-14.9874 249.024L-28.9658 276.406C-29.4526 276.214 -29.9918 276.167 -30.5119 276.287L-42.5947 239.595C-42.4765 239.544 -42.3629 239.487 -42.2523 239.417L-42.2491 239.417ZM14.338 311.676C13.8231 312.496 13.7856 313.568 14.3331 314.442C14.5164 314.736 14.7508 314.978 15.0167 315.169L0.926441 339.038L-28.348 280.887C-28.2149 280.786 -28.0918 280.67 -27.9837 280.547L14.3372 311.672L14.338 311.676ZM15.4287 315.413C15.6773 315.531 15.943 315.609 16.2149 315.642L13.8627 362.89C13.5784 362.903 13.2975 362.96 13.0223 363.068L1.18107 339.549L15.4287 315.413ZM16.5377 365.918L60.1747 369.104L60.122 411.526C59.7293 411.562 59.3339 411.685 58.9758 411.91C58.8947 411.963 58.8174 412.018 58.7441 412.075L15.9348 367.201C16.256 366.834 16.4583 366.388 16.5377 365.918ZM61.7404 416.322C62.1772 416.048 62.5041 415.663 62.7094 415.23L77.3046 420.556L64.2651 450.893C64.0191 450.814 63.7585 450.772 63.4965 450.767L60.8022 416.681C61.1265 416.624 61.4436 416.509 61.7404 416.322ZM61.2553 454.75C61.6466 455.373 62.2554 455.771 62.9205 455.911L61.9729 463.925L52.948 456.436C53.2609 455.978 53.4187 455.429 53.3989 454.879L60.9202 453.927C60.9837 454.209 61.089 454.485 61.2538 454.744L61.2553 454.75ZM52.1832 457.175C52.3519 457.069 52.5066 456.945 52.6417 456.81L61.9072 464.496L58.8728 490.187C58.7513 490.182 58.6297 490.191 58.5064 490.207L51.5736 457.453C51.782 457.387 51.9883 457.298 52.1832 457.175ZM109.755 505.635C109.664 506.228 109.776 506.857 110.119 507.404C110.474 507.972 111.012 508.353 111.611 508.523L110.225 515.858L61.2794 493.65L109.755 505.635ZM112.083 508.612C112.634 508.665 113.204 508.544 113.707 508.228C113.9 508.109 114.07 507.965 114.216 507.807L143.705 530.869C143.669 530.914 143.636 530.956 143.603 531L110.674 516.059L112.079 508.609L112.083 508.612ZM144.347 530.303C144.239 530.368 144.143 530.444 144.048 530.524L114.515 507.429C114.749 507.062 114.888 506.645 114.92 506.216L150.204 505.576L146.144 529.941C145.542 529.843 144.903 529.954 144.347 530.303ZM114.913 505.733C114.87 505.355 114.749 504.983 114.534 504.639C114.448 504.502 114.352 504.378 114.244 504.263L157.392 456.606C157.678 456.759 157.992 456.856 158.315 456.893L150.287 505.095L114.917 505.735L114.913 505.733ZM156.402 455.687C156.563 455.943 156.761 456.16 156.984 456.338L113.887 503.939C113.539 503.681 113.137 503.512 112.714 503.448L115.515 454.235L156.038 454.726C156.093 455.058 156.21 455.384 156.402 455.687ZM115.063 453.75L66.0574 453.157C66.0467 453.013 66.0225 452.868 65.9856 452.726L113.984 435.677C114.031 435.78 114.081 435.878 114.142 435.978C114.571 436.662 115.264 437.076 116.006 437.175L115.063 453.753L115.063 453.75ZM114.968 432.386C114.542 432.65 114.225 433.019 114.02 433.439L77.9467 420.274L97.8232 374.026C98.2078 374.126 98.6124 374.14 99.0073 374.057L115.462 432.142C115.292 432.202 115.127 432.281 114.967 432.382L114.968 432.386ZM95.8973 371.225L60.6564 368.652L60.6781 352.125C61.0708 352.089 61.4631 351.966 61.8242 351.74C62.1242 351.552 62.3719 351.313 62.5656 351.044L96.0922 370.493C95.9937 370.727 95.9314 370.973 95.9005 371.224L95.8973 371.225ZM61.7756 347.305C61.2657 347.001 60.6612 346.877 60.0698 346.963L48.5204 298.752C48.5768 298.722 48.6332 298.691 48.6889 298.658C48.9506 298.493 49.1727 298.286 49.3524 298.057L82.28 319.287L61.7724 347.306L61.7756 347.305ZM49.6142 297.651C49.8901 297.121 49.9761 296.509 49.8527 295.916L112.034 276.748C112.089 276.882 112.152 277.011 112.232 277.136C112.367 277.355 112.532 277.543 112.714 277.704L82.5684 318.894L49.6173 297.65L49.6142 297.651ZM111.891 276.287L49.7103 295.455C49.6552 295.321 49.5913 295.192 49.5117 295.067C49.4204 294.921 49.3187 294.788 49.2035 294.668L70.033 271.193L111.832 275.713C111.831 275.904 111.849 276.096 111.887 276.285L111.891 276.287ZM48.8477 294.351C48.1034 293.805 47.109 293.686 46.2422 294.078L31.0418 268.808C31.0418 268.808 31.0569 268.802 31.0657 268.796C31.695 268.403 32.096 267.78 32.2341 267.106L69.4561 271.129L48.8533 294.347L48.8477 294.351ZM28.8387 264.127L8.8164 207.411C8.91564 207.364 9.01413 207.314 9.1104 207.254C10.3276 206.492 10.7003 204.886 9.93392 203.666C9.9231 203.649 9.90987 203.635 9.89906 203.618L30.5573 187.07C30.959 187.567 31.5176 187.879 32.1176 187.985L29.3485 264.007C29.1762 264.027 29.0052 264.068 28.8356 264.128L28.8387 264.127ZM30.0481 184.816L5.29049 182.932L4.08411 172.977C4.27277 172.912 4.46012 172.828 4.63829 172.719C5.00266 172.492 5.28832 172.187 5.494 171.841L30.2055 184.365C30.1396 184.511 30.0887 184.663 30.0513 184.816L30.0481 184.816ZM4.88846 168.487C4.52134 168.193 4.08576 168.005 3.62814 167.936L5.32595 135.416C5.76336 135.4 6.20458 135.272 6.60394 135.024C6.81638 134.89 7.00232 134.729 7.16088 134.551L25.0304 147.789L4.88846 168.487ZM7.44758 134.166C7.84428 133.51 7.93923 132.695 7.67728 131.955L65.6667 105.31C65.6899 105.351 65.7091 105.39 65.7354 105.43C65.805 105.541 65.8819 105.64 65.9611 105.735L25.3702 147.445L7.44832 134.169L7.44758 134.166ZM68.5731 101.523C68.2002 101.431 67.8065 101.42 67.4236 101.498L41.8255 27.1327C41.9311 27.0843 42.036 27.0328 42.1378 26.9686C42.1903 26.9362 42.2381 26.8981 42.2867 26.8632L79.37 68.9556L68.5723 101.52L68.5731 101.523ZM42.6467 26.5474C43.2612 25.894 43.5004 24.9682 43.2732 24.1059L99.2217 3.84716C99.2671 3.94008 99.3124 4.033 99.3697 4.11976C99.6589 4.57963 100.067 4.92108 100.533 5.122L79.5457 68.4259L42.646 26.5443L42.6467 26.5474ZM46.6288 70.9475C46.7789 71.1862 46.9609 71.3906 47.1654 71.5629L37.3181 85.8426L19.8939 75.7189C20.0839 75.3062 20.1592 74.8471 20.1185 74.392L46.314 70.2095C46.3802 70.4613 46.4827 70.7112 46.6281 70.9443L46.6288 70.9475ZM-11.9022 101.044C-11.519 100.275 -11.5275 99.334 -12.0011 98.5466L11.6594 79.5375L-11.9022 101.044ZM-70.6031 113.859C-70.4639 114.08 -70.2975 114.275 -70.1086 114.438L-71.7461 116.704L-112.341 105.708L-70.9903 112.306C-71.0263 112.833 -70.9046 113.376 -70.5999 113.859L-70.6031 113.859ZM-116.351 107.331C-116.019 107.276 -115.69 107.158 -115.387 106.966C-114.88 106.649 -114.525 106.187 -114.333 105.671L-72.0514 117.124L-110.787 170.715C-111.171 170.488 -111.605 170.363 -112.046 170.354L-116.351 107.331ZM-151.268 167.994C-150.967 167.655 -150.762 167.249 -150.67 166.819L-114.115 171.301C-114.809 172.14 -114.925 173.364 -114.314 174.337C-113.717 175.289 -112.609 175.719 -111.568 175.5L-95.3224 227.893L-151.265 167.993L-151.268 167.994ZM-94.7038 228.276L-111.111 175.355C-110.98 175.301 -110.851 175.237 -110.726 175.16C-110.6 175.084 -110.491 174.994 -110.382 174.902L-78.6949 204.632L-94.6999 228.278L-94.7038 228.276ZM-94.3748 228.649L-78.3424 204.964L-45.6835 235.608C-45.901 235.89 -46.0591 236.212 -46.1463 236.55L-94.3748 228.649ZM-28.3028 282.04L0.636862 339.524L-27.0629 386.451C-27.3413 386.32 -27.6371 386.242 -27.9413 386.214L-28.2989 282.042L-28.3028 282.04ZM-25.618 389.282C-25.5231 388.779 -25.5747 388.249 -25.791 387.759L11.8257 366.945C12.6095 368.097 14.167 368.434 15.358 367.688C15.4392 367.636 15.5164 367.581 15.5929 367.522L58.4022 412.397C58.2019 412.625 58.0502 412.888 57.9417 413.164L-25.6148 389.282L-25.618 389.282ZM60.0043 416.685C60.1114 416.7 60.217 416.709 60.3243 416.71L63.0187 450.796C62.6944 450.853 62.3772 450.968 62.0805 451.155C61.265 451.665 60.8329 452.553 60.864 453.449L53.3427 454.401C53.2793 454.118 53.1739 453.842 53.0092 453.584C52.6759 453.05 52.1803 452.679 51.6287 452.496L60.0058 416.692L60.0043 416.685ZM60.8517 494.386C60.9311 494.284 61.0035 494.18 61.068 494.071L110.138 516.337L106.581 535.177C106.03 535.124 105.46 535.245 104.956 535.561C104.837 535.636 104.727 535.723 104.622 535.814L60.8524 494.39L60.8517 494.386ZM108.872 537.177C108.808 536.904 108.701 536.636 108.544 536.385C108.189 535.817 107.651 535.436 107.053 535.266L110.586 516.538L143.365 531.411C143.211 531.748 143.131 532.115 143.128 532.486L108.871 537.174L108.872 537.177ZM147.567 530.658C147.292 530.385 146.967 530.182 146.615 530.054L150.694 505.557L174.976 505.116C175.031 505.448 175.149 505.777 175.341 506.08C175.421 506.208 175.512 506.324 175.612 506.434L147.57 530.654L147.567 530.658ZM156.143 453.461C156.059 453.712 156.014 453.973 156.005 454.236L115.543 453.747L116.486 437.182C116.912 437.162 117.34 437.034 117.73 436.788C118.111 436.547 118.409 436.226 118.617 435.859L156.143 453.458L156.143 453.461ZM98.7349 368.916C98.184 368.862 97.6072 368.982 97.1004 369.299C96.7773 369.502 96.5119 369.766 96.3155 370.066L62.8006 350.624C63.0434 350.095 63.1056 349.495 62.9701 348.922L103.295 335.138C103.344 335.246 103.395 335.351 103.46 335.453C103.814 336.018 104.348 336.397 104.944 336.57L98.7357 368.919L98.7349 368.916ZM105.815 331.473C105.296 331.442 104.76 331.565 104.286 331.864C104.024 332.03 103.802 332.236 103.623 332.466L82.9739 319.153L113.104 277.983C113.327 278.118 113.567 278.215 113.819 278.275L105.818 331.472L105.815 331.473ZM111.361 275.175L70.4294 270.749L73.4868 267.304C74.3202 267.916 75.4761 267.998 76.4077 267.413C76.9145 267.096 77.2725 266.63 77.4663 266.106L111.36 275.172L111.361 275.175ZM73.6034 263.031C72.891 263.497 72.4812 264.252 72.4315 265.046L32.2631 266.266C32.2165 265.9 32.0973 265.537 31.8885 265.205C31.4253 264.462 30.6463 264.037 29.8357 263.988L32.6017 188.024C32.9923 188.022 33.3857 187.933 33.7496 187.746L73.6002 263.032L73.6034 263.031ZM35.133 184.929C35.0738 184.622 34.96 184.324 34.7868 184.044C34.0244 182.827 32.4192 182.457 31.1988 183.221C30.8901 183.414 30.6344 183.662 30.4405 183.945L5.69849 171.405C5.72635 171.325 5.75106 171.246 5.77184 171.164L68.4761 181.41C68.4714 181.475 68.4705 181.542 68.4696 181.609L35.133 184.929ZM70.7309 179.012C70.3712 179.06 70.0185 179.18 69.6923 179.384C69.4799 179.518 69.2939 179.679 69.1354 179.857L25.7651 147.729L66.3104 106.067C66.7611 106.432 67.3204 106.634 67.8884 106.647L70.7341 179.011L70.7309 179.012ZM102.455 92.3915C102.025 92.4128 101.594 92.5382 101.201 92.7849C101.16 92.8112 101.12 92.8407 101.083 92.8663L79.9183 68.8427L100.993 5.27392C101.117 5.30155 101.245 5.32136 101.374 5.33091L102.458 92.3907L102.455 92.3915Z" fill="url(#paint0_linear_265_1046)"/>
<defs>
<linearGradient id="paint0_linear_265_1046" x1="-37.9751" y1="33.0678" x2="84.156" y2="549.764" gradientUnits="userSpaceOnUse">
<stop stop-color="#C812C1"/>
<stop offset="1" stop-color="#754FFE" stop-opacity="0.03"/>
</linearGradient>
</defs>
</svg>
