<svg width="184" height="247" viewBox="0 0 184 247" fill="none" xmlns="http://www.w3.org/2000/svg">
<g opacity="0.5">
<g opacity="0.82">
<path d="M-218.559 14.766H-141.959L-115.015 0.833008H-76.1348L-55.9194 25.9877H55.1802L78.5023 13.4103H145.004" stroke="url(#paint0_linear_322_91932)" stroke-width="1.2" stroke-miterlimit="10"/>
<path d="M-218.559 14.766H-141.959L-115.015 0.833008H-76.1348L-55.9194 25.9877H55.1802L78.5023 13.4103H145.004" stroke="url(#paint1_linear_322_91932)" stroke-width="1.2" stroke-miterlimit="10"/>
<path d="M144.86 16.2411C146.423 16.2411 147.69 14.9733 147.69 13.4106C147.69 11.8478 146.423 10.5801 144.86 10.5801C143.297 10.5801 142.029 11.8478 142.029 13.4106C142.029 14.9733 143.297 16.2411 144.86 16.2411Z" fill="url(#paint2_linear_322_91932)"/>
</g>
<g opacity="0.82">
<path d="M-218.559 22.1209H-141.507L-114.112 7.93066L-79.3231 8.18801L-58.3295 33.3489H55.1802L78.5023 20.7653H180.765" stroke="url(#paint3_linear_322_91932)" stroke-width="1.2" stroke-miterlimit="10"/>
<path d="M180.627 23.602C182.19 23.602 183.458 22.3342 183.458 20.7715C183.458 19.2087 182.19 17.9409 180.627 17.9409C179.065 17.9409 177.797 19.2087 177.797 20.7715C177.797 22.3342 179.065 23.602 180.627 23.602Z" fill="url(#paint4_linear_322_91932)"/>
</g>
<path d="M-218.561 26.408H-141.509L-114.114 12.2178L-79.325 12.4751L-58.3315 37.6297H52.4859" stroke="url(#paint5_linear_322_91932)" stroke-width="1.2" stroke-miterlimit="10"/>
<path d="M52.3403 40.4599C53.903 40.4599 55.1708 39.1921 55.1708 37.6294C55.1708 36.0666 53.903 34.7988 52.3403 34.7988C50.7775 34.7988 49.5098 36.0666 49.5098 37.6294C49.5098 39.1921 50.7775 40.4599 52.3403 40.4599Z" fill="url(#paint6_linear_322_91932)"/>
<g opacity="0.82">
<path d="M-218.559 74.772H-179.157L-155.835 62.1947H-50.8798L-35.5598 50.1069H17.0905L31.6135 61.5608H84.5524" stroke="url(#paint7_linear_322_91932)" stroke-width="1.2" stroke-miterlimit="10"/>
<path d="M84.3881 64.8183C86.1894 64.8183 87.6455 63.3623 87.6455 61.561C87.6455 59.7598 86.1894 58.3037 84.3881 58.3037C82.5869 58.3037 81.1309 59.7598 81.1309 61.561C81.1309 63.3623 82.5869 64.8183 84.3881 64.8183Z" fill="url(#paint8_linear_322_91932)"/>
</g>
<path d="M-11.5645 174.33H41.0858L53.4937 184.12" stroke="url(#paint9_linear_322_91932)" stroke-width="1.2" stroke-miterlimit="10"/>
<path d="M51.6314 186.254C52.8615 187.221 54.6376 187.013 55.6104 185.783C56.5769 184.553 56.3698 182.777 55.1397 181.804C53.9096 180.838 52.1335 181.045 51.1607 182.275C50.1941 183.505 50.4013 185.281 51.6314 186.254Z" fill="url(#paint10_linear_322_91932)"/>
<path d="M-33.6133 185.074H19.037L31.4449 194.865" stroke="url(#paint11_linear_322_91932)" stroke-width="1.2" stroke-miterlimit="10"/>
<path d="M29.5825 196.999C30.8127 197.966 32.5888 197.758 33.5616 196.528C34.5281 195.298 34.321 193.522 33.0909 192.549C31.8607 191.583 30.0846 191.79 29.1118 193.02C28.1453 194.25 28.3524 196.026 29.5825 196.999Z" fill="url(#paint12_linear_322_91932)"/>
<path d="M12.3555 136.334H-113.047L-136.369 123.757H-215.166" stroke="url(#paint13_linear_322_91932)" stroke-width="1.2" stroke-miterlimit="10"/>
<path d="M12.1928 133.083C13.9941 133.083 15.4502 134.539 15.4502 136.34C15.4502 138.142 13.9941 139.598 12.1928 139.598C10.3916 139.598 8.93555 138.142 8.93555 136.34C8.93555 134.539 10.3916 133.083 12.1928 133.083Z" fill="url(#paint14_linear_322_91932)"/>
<g opacity="0.82">
<path d="M153.65 147.086H-113.047L-136.369 134.502H-215.166" stroke="url(#paint15_linear_322_91932)" stroke-width="1.2" stroke-miterlimit="10"/>
<path d="M153.486 143.828C155.287 143.828 156.743 145.284 156.743 147.085C156.743 148.887 155.287 150.343 153.486 150.343C151.685 150.343 150.229 148.887 150.229 147.085C150.229 145.284 151.685 143.828 153.486 143.828Z" fill="url(#paint16_linear_322_91932)"/>
</g>
<path d="M-218.561 104.112H-118.62L-109.08 111.637H35.9734" stroke="url(#paint17_linear_322_91932)" stroke-width="1.2" stroke-miterlimit="10"/>
<path d="M35.8364 114.468C37.3991 114.468 38.6669 113.2 38.6669 111.637C38.6669 110.074 37.3991 108.807 35.8364 108.807C34.2736 108.807 33.0059 110.074 33.0059 111.637C33.0059 113.2 34.2736 114.468 35.8364 114.468Z" fill="url(#paint18_linear_322_91932)"/>
<g opacity="0.82">
<path d="M-80.8477 283.852L-30.4944 282.885L12.748 239.047L106.77 237.246" stroke="url(#paint19_linear_322_91932)" stroke-width="1.2" stroke-miterlimit="10"/>
<path d="M106.681 240.077C108.243 240.045 109.486 238.752 109.455 237.19C109.423 235.627 108.13 234.384 106.568 234.416C105.005 234.447 103.762 235.74 103.794 237.303C103.825 238.865 105.118 240.108 106.681 240.077Z" fill="url(#paint20_linear_322_91932)"/>
</g>
<path d="M-18.5006 270.729L-19.9629 234.001L9.78581 205.74" stroke="url(#paint21_linear_322_91932)" stroke-width="1.2" stroke-miterlimit="10"/>
<path d="M11.6313 207.886C12.7673 206.807 12.8113 205.018 11.7318 203.882C10.6523 202.746 8.86358 202.702 7.7276 203.781C6.59163 204.861 6.54767 206.65 7.62717 207.786C8.70666 208.922 10.4954 208.966 11.6313 207.886Z" fill="url(#paint22_linear_322_91932)"/>
<path d="M129.042 166.886H63.6575L36.6953 156.97" stroke="url(#paint23_linear_322_91932)" stroke-width="1.2" stroke-miterlimit="10"/>
<path d="M128.903 164.056C130.466 164.056 131.733 165.324 131.733 166.887C131.733 168.449 130.466 169.717 128.903 169.717C127.34 169.717 126.072 168.449 126.072 166.887C126.072 165.324 127.34 164.056 128.903 164.056Z" fill="url(#paint24_linear_322_91932)"/>
<g opacity="0.82">
<path d="M142.641 108.38H61.8866L31.642 127.604H-6.14648" stroke="url(#paint25_linear_322_91932)" stroke-width="1.2" stroke-miterlimit="10"/>
<path d="M142.504 105.549C144.067 105.549 145.335 106.817 145.335 108.38C145.335 109.943 144.067 111.21 142.504 111.21C140.942 111.21 139.674 109.943 139.674 108.38C139.674 106.817 140.942 105.549 142.504 105.549Z" fill="url(#paint26_linear_322_91932)"/>
</g>
<path d="M-30.998 112.724L-15.8852 99.9268H5.24649" stroke="url(#paint27_linear_322_91932)" stroke-width="1.2" stroke-miterlimit="10"/>
<path d="M5.10983 102.757C6.67258 102.757 7.94036 101.489 7.94036 99.9267C7.94036 98.364 6.67258 97.0962 5.10983 97.0962C3.54708 97.0962 2.2793 98.364 2.2793 99.9267C2.2793 101.489 3.54708 102.757 5.10983 102.757Z" fill="url(#paint28_linear_322_91932)"/>
<path d="M-8.77344 147.161L5.74949 158.621H104.052" stroke="url(#paint29_linear_322_91932)" stroke-width="1.2" stroke-miterlimit="10"/>
<path d="M103.888 161.878C105.689 161.878 107.145 160.422 107.145 158.621C107.145 156.82 105.689 155.364 103.888 155.364C102.087 155.364 100.631 156.82 100.631 158.621C100.631 160.422 102.087 161.878 103.888 161.878Z" fill="url(#paint30_linear_322_91932)"/>
</g>
<defs>
<linearGradient id="paint0_linear_322_91932" x1="-617.255" y1="-19.9196" x2="-511.545" y2="343.063" gradientUnits="userSpaceOnUse">
<stop stop-color="#754FFE"/>
<stop offset="0.543903" stop-color="#A62BDA" stop-opacity="0"/>
<stop offset="0.624554" stop-color="#AD26D5"/>
<stop offset="0.682701" stop-color="#C812C1"/>
</linearGradient>
<linearGradient id="paint1_linear_322_91932" x1="-617.255" y1="-19.9196" x2="-511.545" y2="343.063" gradientUnits="userSpaceOnUse">
<stop stop-color="#754FFE"/>
<stop offset="0.9944" stop-color="#C812C1"/>
</linearGradient>
<linearGradient id="paint2_linear_322_91932" x1="135.821" y1="5.90973" x2="155.75" y2="10.6445" gradientUnits="userSpaceOnUse">
<stop stop-color="#754FFE"/>
<stop offset="0.9944" stop-color="#C812C1"/>
</linearGradient>
<linearGradient id="paint3_linear_322_91932" x1="-656.472" y1="-13.0394" x2="-557.007" y2="358.206" gradientUnits="userSpaceOnUse">
<stop stop-color="#754FFE"/>
<stop offset="0.543903" stop-color="#A62BDA" stop-opacity="0"/>
<stop offset="0.624554" stop-color="#AD26D5"/>
<stop offset="0.682701" stop-color="#C812C1"/>
</linearGradient>
<linearGradient id="paint4_linear_322_91932" x1="171.589" y1="13.2705" x2="191.518" y2="18.0053" gradientUnits="userSpaceOnUse">
<stop stop-color="#754FFE"/>
<stop offset="0.9944" stop-color="#C812C1"/>
</linearGradient>
<linearGradient id="paint5_linear_322_91932" x1="-515.8" y1="-8.74711" x2="-379.972" y2="335.448" gradientUnits="userSpaceOnUse">
<stop stop-color="#754FFE"/>
<stop offset="0.543903" stop-color="#A62BDA" stop-opacity="0"/>
<stop offset="0.624554" stop-color="#AD26D5"/>
<stop offset="0.682701" stop-color="#C812C1"/>
</linearGradient>
<linearGradient id="paint6_linear_322_91932" x1="43.3016" y1="30.1284" x2="63.2306" y2="34.8632" gradientUnits="userSpaceOnUse">
<stop stop-color="#754FFE"/>
<stop offset="0.9944" stop-color="#C812C1"/>
</linearGradient>
<linearGradient id="paint7_linear_322_91932" x1="-550.962" y1="29.7582" x2="-432.602" y2="375.324" gradientUnits="userSpaceOnUse">
<stop stop-color="#754FFE"/>
<stop offset="0.543903" stop-color="#A62BDA" stop-opacity="0"/>
<stop offset="0.624554" stop-color="#AD26D5"/>
<stop offset="0.682701" stop-color="#C812C1"/>
</linearGradient>
<linearGradient id="paint8_linear_322_91932" x1="73.9867" y1="52.9292" x2="96.9204" y2="58.3777" gradientUnits="userSpaceOnUse">
<stop stop-color="#754FFE"/>
<stop offset="0.9944" stop-color="#C812C1"/>
</linearGradient>
<linearGradient id="paint9_linear_322_91932" x1="-82.9097" y1="166.252" x2="-13.6267" y2="275.629" gradientUnits="userSpaceOnUse">
<stop stop-color="#754FFE"/>
<stop offset="0.368104" stop-color="#A62BDA" stop-opacity="0"/>
<stop offset="0.466651" stop-color="#AD26D5"/>
<stop offset="0.682701" stop-color="#C812C1"/>
</linearGradient>
<linearGradient id="paint10_linear_322_91932" x1="44.3396" y1="176.522" x2="64.2845" y2="181.261" gradientUnits="userSpaceOnUse">
<stop stop-color="#754FFE"/>
<stop offset="0.9944" stop-color="#C812C1"/>
</linearGradient>
<linearGradient id="paint11_linear_322_91932" x1="-104.959" y1="176.997" x2="-35.6752" y2="286.374" gradientUnits="userSpaceOnUse">
<stop stop-color="#754FFE"/>
<stop offset="0.444807" stop-color="#A62BDA" stop-opacity="0"/>
<stop offset="0.52669" stop-color="#AD26D5"/>
<stop offset="0.682701" stop-color="#C812C1"/>
</linearGradient>
<linearGradient id="paint12_linear_322_91932" x1="22.2908" y1="187.267" x2="42.2357" y2="192.006" gradientUnits="userSpaceOnUse">
<stop stop-color="#754FFE"/>
<stop offset="0.9944" stop-color="#C812C1"/>
</linearGradient>
<linearGradient id="paint13_linear_322_91932" x1="-464.675" y1="113.381" x2="-421.217" y2="300.153" gradientUnits="userSpaceOnUse">
<stop stop-color="#754FFE"/>
<stop offset="0.543903" stop-color="#A62BDA" stop-opacity="0"/>
<stop offset="0.624554" stop-color="#AD26D5"/>
<stop offset="0.682701" stop-color="#C812C1"/>
</linearGradient>
<linearGradient id="paint14_linear_322_91932" x1="1.79138" y1="127.708" x2="24.7251" y2="133.157" gradientUnits="userSpaceOnUse">
<stop stop-color="#754FFE"/>
<stop offset="0.9944" stop-color="#C812C1"/>
</linearGradient>
<linearGradient id="paint15_linear_322_91932" x1="-619.623" y1="124.12" x2="-591.906" y2="317.123" gradientUnits="userSpaceOnUse">
<stop stop-color="#754FFE"/>
<stop offset="0.543903" stop-color="#A62BDA" stop-opacity="0"/>
<stop offset="0.624554" stop-color="#AD26D5"/>
<stop offset="0.682701" stop-color="#C812C1"/>
</linearGradient>
<linearGradient id="paint16_linear_322_91932" x1="143.084" y1="138.454" x2="166.018" y2="143.902" gradientUnits="userSpaceOnUse">
<stop stop-color="#754FFE"/>
<stop offset="0.9944" stop-color="#C812C1"/>
</linearGradient>
<linearGradient id="paint17_linear_322_91932" x1="-497.692" y1="97.9041" x2="-483.257" y2="213.904" gradientUnits="userSpaceOnUse">
<stop stop-color="#754FFE"/>
<stop offset="0.543903" stop-color="#A62BDA" stop-opacity="0"/>
<stop offset="0.624554" stop-color="#AD26D5"/>
<stop offset="0.682701" stop-color="#C812C1"/>
</linearGradient>
<linearGradient id="paint18_linear_322_91932" x1="26.7977" y1="104.136" x2="46.7266" y2="108.871" gradientUnits="userSpaceOnUse">
<stop stop-color="#754FFE"/>
<stop offset="0.9944" stop-color="#C812C1"/>
</linearGradient>
<linearGradient id="paint19_linear_322_91932" x1="-286.597" y1="198.795" x2="77.827" y2="547.33" gradientUnits="userSpaceOnUse">
<stop stop-color="#754FFE"/>
<stop offset="0.474169" stop-color="#A62BDA" stop-opacity="0"/>
<stop offset="0.516357" stop-color="#AD26D5"/>
<stop offset="0.605252" stop-color="#C812C1"/>
</linearGradient>
<linearGradient id="paint20_linear_322_91932" x1="97.5836" y1="229.744" x2="117.517" y2="234.479" gradientUnits="userSpaceOnUse">
<stop stop-color="#754FFE"/>
<stop offset="0.9944" stop-color="#C812C1"/>
</linearGradient>
<linearGradient id="paint21_linear_322_91932" x1="-28.043" y1="231.5" x2="-20.7003" y2="203.288" gradientUnits="userSpaceOnUse">
<stop stop-color="#754FFE"/>
<stop offset="0.488079" stop-color="#A62BDA" stop-opacity="0"/>
<stop offset="0.624554" stop-color="#AD26D5"/>
<stop offset="0.902902" stop-color="#C812C1"/>
</linearGradient>
<linearGradient id="paint22_linear_322_91932" x1="0.630476" y1="198.324" x2="20.5822" y2="203.064" gradientUnits="userSpaceOnUse">
<stop stop-color="#754FFE"/>
<stop offset="0.9944" stop-color="#C812C1"/>
</linearGradient>
<linearGradient id="paint23_linear_322_91932" x1="-64.5756" y1="148.789" x2="-6.31737" y2="277.686" gradientUnits="userSpaceOnUse">
<stop stop-color="#754FFE"/>
<stop offset="0.390952" stop-color="#A62BDA" stop-opacity="0"/>
<stop offset="0.516033" stop-color="#AD26D5"/>
<stop offset="0.682701" stop-color="#C812C1"/>
</linearGradient>
<linearGradient id="paint24_linear_322_91932" x1="119.864" y1="159.386" x2="139.793" y2="164.12" gradientUnits="userSpaceOnUse">
<stop stop-color="#754FFE"/>
<stop offset="0.9944" stop-color="#C812C1"/>
</linearGradient>
<linearGradient id="paint25_linear_322_91932" x1="-169.313" y1="92.5203" x2="-43.0138" y2="324.762" gradientUnits="userSpaceOnUse">
<stop stop-color="#754FFE"/>
<stop offset="0.307536" stop-color="#A62BDA" stop-opacity="0"/>
<stop offset="0.511773" stop-color="#AD26D5"/>
<stop offset="0.601377" stop-color="#C812C1"/>
</linearGradient>
<linearGradient id="paint26_linear_322_91932" x1="133.466" y1="100.879" x2="153.395" y2="105.614" gradientUnits="userSpaceOnUse">
<stop stop-color="#754FFE"/>
<stop offset="0.9944" stop-color="#C812C1"/>
</linearGradient>
<linearGradient id="paint27_linear_322_91932" x1="-70.7452" y1="89.3692" x2="22.0391" y2="151.803" gradientUnits="userSpaceOnUse">
<stop stop-color="#754FFE"/>
<stop offset="0.543903" stop-color="#A62BDA" stop-opacity="0"/>
<stop offset="0.624554" stop-color="#AD26D5"/>
<stop offset="0.682701" stop-color="#C812C1"/>
</linearGradient>
<linearGradient id="paint28_linear_322_91932" x1="-3.92884" y1="92.4258" x2="16.0001" y2="97.1605" gradientUnits="userSpaceOnUse">
<stop stop-color="#754FFE"/>
<stop offset="0.9944" stop-color="#C812C1"/>
</linearGradient>
<linearGradient id="paint29_linear_322_91932" x1="-132.502" y1="137.706" x2="-67.6566" y2="289.379" gradientUnits="userSpaceOnUse">
<stop stop-color="#754FFE"/>
<stop offset="0.373423" stop-color="#A62BDA" stop-opacity="0"/>
<stop offset="0.474295" stop-color="#AD26D5"/>
<stop offset="0.682701" stop-color="#C812C1"/>
</linearGradient>
<linearGradient id="paint30_linear_322_91932" x1="93.4867" y1="149.989" x2="116.42" y2="155.438" gradientUnits="userSpaceOnUse">
<stop stop-color="#754FFE"/>
<stop offset="0.9944" stop-color="#C812C1"/>
</linearGradient>
</defs>
</svg>
