<svg width="37" height="239" viewBox="0 0 37 239" fill="none" xmlns="http://www.w3.org/2000/svg">
<g opacity="0.5">
<g opacity="0.82">
<path d="M-2.14017 16.2411C-0.577419 16.2411 0.690361 14.9733 0.690361 13.4106C0.690361 11.8478 -0.577419 10.5801 -2.14017 10.5801C-3.70292 10.5801 -4.9707 11.8478 -4.9707 13.4106C-4.9707 14.9733 -3.70292 16.2411 -2.14017 16.2411Z" fill="url(#paint0_linear_517_36299)"/>
</g>
<g opacity="0.82">
<path d="M-365.559 22.1209H-288.507L-261.112 7.93066L-226.323 8.18801L-205.33 33.3489H-91.8198L-68.4977 20.7653H33.7653" stroke="url(#paint1_linear_517_36299)" stroke-width="1.2" stroke-miterlimit="10"/>
<path d="M33.6274 23.602C35.1902 23.602 36.4579 22.3342 36.4579 20.7715C36.4579 19.2087 35.1902 17.9409 33.6274 17.9409C32.0647 17.9409 30.7969 19.2087 30.7969 20.7715C30.7969 22.3342 32.0647 23.602 33.6274 23.602Z" fill="url(#paint2_linear_517_36299)"/>
</g>
<g opacity="0.82">
<path d="M6.64959 147.086H-260.047L-283.369 134.502H-362.166" stroke="url(#paint3_linear_517_36299)" stroke-width="1.2" stroke-miterlimit="10"/>
<path d="M6.48578 143.828C8.28702 143.828 9.74312 145.284 9.74312 147.085C9.74312 148.887 8.28702 150.343 6.48578 150.343C4.68454 150.343 3.22852 148.887 3.22852 147.085C3.22852 145.284 4.68454 143.828 6.48578 143.828Z" fill="url(#paint4_linear_517_36299)"/>
</g>
</g>
<defs>
<linearGradient id="paint0_linear_517_36299" x1="-11.1788" y1="5.90973" x2="8.75007" y2="10.6445" gradientUnits="userSpaceOnUse">
<stop stop-color="#754FFE"/>
<stop offset="0.9944" stop-color="#C812C1"/>
</linearGradient>
<linearGradient id="paint1_linear_517_36299" x1="-803.472" y1="-13.0394" x2="-704.007" y2="358.206" gradientUnits="userSpaceOnUse">
<stop stop-color="#754FFE"/>
<stop offset="0.543903" stop-color="#A62BDA" stop-opacity="0"/>
<stop offset="0.624554" stop-color="#AD26D5"/>
<stop offset="0.682701" stop-color="#C812C1"/>
</linearGradient>
<linearGradient id="paint2_linear_517_36299" x1="24.5887" y1="13.2705" x2="44.5177" y2="18.0053" gradientUnits="userSpaceOnUse">
<stop stop-color="#754FFE"/>
<stop offset="0.9944" stop-color="#C812C1"/>
</linearGradient>
<linearGradient id="paint3_linear_517_36299" x1="-766.623" y1="124.12" x2="-738.906" y2="317.123" gradientUnits="userSpaceOnUse">
<stop stop-color="#754FFE"/>
<stop offset="0.543903" stop-color="#A62BDA" stop-opacity="0"/>
<stop offset="0.624554" stop-color="#AD26D5"/>
<stop offset="0.682701" stop-color="#C812C1"/>
</linearGradient>
<linearGradient id="paint4_linear_517_36299" x1="-3.91565" y1="138.454" x2="19.018" y2="143.902" gradientUnits="userSpaceOnUse">
<stop stop-color="#754FFE"/>
<stop offset="0.9944" stop-color="#C812C1"/>
</linearGradient>
</defs>
</svg>
