<svg width="184" height="247" viewBox="0 0 184 247" fill="none" xmlns="http://www.w3.org/2000/svg">
<g opacity="0.5">
<g opacity="0.82">
<path d="M402.016 14.766H325.416L298.472 0.833008H259.592L239.376 25.9877H128.277L104.955 13.4103H38.4531" stroke="url(#paint0_linear_322_91812)" stroke-width="1.2" stroke-miterlimit="10"/>
<path d="M38.5972 16.2411C37.0345 16.2411 35.7667 14.9733 35.7667 13.4106C35.7667 11.8478 37.0345 10.5801 38.5972 10.5801C40.16 10.5801 41.4277 11.8478 41.4277 13.4106C41.4277 14.9733 40.16 16.2411 38.5972 16.2411Z" fill="url(#paint1_linear_322_91812)"/>
</g>
<g opacity="0.82">
<path d="M402.016 22.1209H324.964L297.569 7.93066L262.78 8.18801L241.787 33.3489H128.277L104.955 20.7653H2.69178" stroke="url(#paint2_linear_322_91812)" stroke-width="1.2" stroke-miterlimit="10"/>
<path d="M2.82962 23.602C1.26687 23.602 -0.000907898 22.3342 -0.000907898 20.7715C-0.000907898 19.2087 1.26687 17.9409 2.82962 17.9409C4.39238 17.9409 5.66016 19.2087 5.66016 20.7715C5.66016 22.3342 4.39238 23.602 2.82962 23.602Z" fill="url(#paint3_linear_322_91812)"/>
</g>
<path d="M402.018 26.408H324.966L297.571 12.2178L262.782 12.4751L241.788 37.6297H130.971" stroke="url(#paint4_linear_322_91812)" stroke-width="1.2" stroke-miterlimit="10"/>
<path d="M131.117 40.4599C129.554 40.4599 128.286 39.1921 128.286 37.6294C128.286 36.0666 129.554 34.7988 131.117 34.7988C132.679 34.7988 133.947 36.0666 133.947 37.6294C133.947 39.1921 132.679 40.4599 131.117 40.4599Z" fill="url(#paint5_linear_322_91812)"/>
<g opacity="0.82">
<path d="M402.016 74.772H362.614L339.292 62.1947H234.337L219.017 50.1069H166.366L151.844 61.5608H98.9046" stroke="url(#paint6_linear_322_91812)" stroke-width="1.2" stroke-miterlimit="10"/>
<path d="M99.0689 64.8183C97.2677 64.8183 95.8116 63.3623 95.8116 61.561C95.8116 59.7598 97.2677 58.3037 99.0689 58.3037C100.87 58.3037 102.326 59.7598 102.326 61.561C102.326 63.3623 100.87 64.8183 99.0689 64.8183Z" fill="url(#paint7_linear_322_91812)"/>
</g>
<path d="M195.021 174.33H142.371L129.963 184.12" stroke="url(#paint8_linear_322_91812)" stroke-width="1.2" stroke-miterlimit="10"/>
<path d="M131.826 186.254C130.596 187.221 128.819 187.013 127.847 185.783C126.88 184.553 127.087 182.777 128.317 181.804C129.547 180.838 131.324 181.045 132.296 182.275C133.263 183.505 133.056 185.281 131.826 186.254Z" fill="url(#paint9_linear_322_91812)"/>
<path d="M217.07 185.074H164.42L152.012 194.865" stroke="url(#paint10_linear_322_91812)" stroke-width="1.2" stroke-miterlimit="10"/>
<path d="M153.874 196.999C152.644 197.966 150.868 197.758 149.895 196.528C148.929 195.298 149.136 193.522 150.366 192.549C151.596 191.583 153.372 191.79 154.345 193.02C155.312 194.25 155.105 196.026 153.874 196.999Z" fill="url(#paint11_linear_322_91812)"/>
<path d="M171.101 136.334H296.504L319.826 123.757H398.623" stroke="url(#paint12_linear_322_91812)" stroke-width="1.2" stroke-miterlimit="10"/>
<path d="M171.264 133.083C169.463 133.083 168.007 134.539 168.007 136.34C168.007 138.142 169.463 139.598 171.264 139.598C173.065 139.598 174.521 138.142 174.521 136.34C174.521 134.539 173.065 133.083 171.264 133.083Z" fill="url(#paint13_linear_322_91812)"/>
<g opacity="0.82">
<path d="M29.8074 147.086H296.504L319.826 134.502H398.623" stroke="url(#paint14_linear_322_91812)" stroke-width="1.2" stroke-miterlimit="10"/>
<path d="M29.9713 143.828C28.17 143.828 26.7139 145.284 26.7139 147.085C26.7139 148.887 28.17 150.343 29.9713 150.343C31.7725 150.343 33.2285 148.887 33.2285 147.085C33.2285 145.284 31.7725 143.828 29.9713 143.828Z" fill="url(#paint15_linear_322_91812)"/>
</g>
<path d="M402.018 104.112H302.077L292.537 111.637H147.484" stroke="url(#paint16_linear_322_91812)" stroke-width="1.2" stroke-miterlimit="10"/>
<path d="M147.621 114.468C146.058 114.468 144.79 113.2 144.79 111.637C144.79 110.074 146.058 108.807 147.621 108.807C149.183 108.807 150.451 110.074 150.451 111.637C150.451 113.2 149.183 114.468 147.621 114.468Z" fill="url(#paint17_linear_322_91812)"/>
<g opacity="0.82">
<path d="M264.305 283.852L213.951 282.885L170.709 239.047L76.6867 237.246" stroke="url(#paint18_linear_322_91812)" stroke-width="1.2" stroke-miterlimit="10"/>
<path d="M76.7765 240.077C75.2137 240.045 73.971 238.752 74.0024 237.19C74.0338 235.627 75.3267 234.384 76.8894 234.416C78.4522 234.447 79.6949 235.74 79.6635 237.303C79.6321 238.865 78.3392 240.108 76.7765 240.077Z" fill="url(#paint19_linear_322_91812)"/>
</g>
<path d="M201.958 270.729L203.42 234.001L173.671 205.74" stroke="url(#paint20_linear_322_91812)" stroke-opacity="0.5" stroke-width="1.2" stroke-miterlimit="10"/>
<path d="M171.826 207.886C170.69 206.807 170.646 205.018 171.725 203.882C172.805 202.746 174.593 202.702 175.729 203.781C176.865 204.861 176.909 206.65 175.83 207.786C174.75 208.922 172.962 208.966 171.826 207.886Z" fill="url(#paint21_linear_322_91812)"/>
<path d="M54.415 166.886H119.8L146.762 156.97" stroke="url(#paint22_linear_322_91812)" stroke-width="1.2" stroke-miterlimit="10"/>
<path d="M54.5542 164.056C52.9915 164.056 51.7237 165.324 51.7237 166.887C51.7237 168.449 52.9915 169.717 54.5542 169.717C56.117 169.717 57.3848 168.449 57.3848 166.887C57.3848 165.324 56.117 164.056 54.5542 164.056Z" fill="url(#paint23_linear_322_91812)"/>
<g opacity="0.82">
<path d="M40.8157 108.38H121.57L151.815 127.604H189.604" stroke="url(#paint24_linear_322_91812)" stroke-width="1.2" stroke-miterlimit="10"/>
<path d="M40.9527 105.549C39.3899 105.549 38.1221 106.817 38.1221 108.38C38.1221 109.943 39.3899 111.21 40.9527 111.21C42.5154 111.21 43.7832 109.943 43.7832 108.38C43.7832 106.817 42.5154 105.549 40.9527 105.549Z" fill="url(#paint25_linear_322_91812)"/>
</g>
<path d="M214.455 112.724L199.342 99.9268H178.211" stroke="url(#paint26_linear_322_91812)" stroke-opacity="0.5" stroke-width="1.2" stroke-miterlimit="10"/>
<path d="M178.347 102.757C176.784 102.757 175.517 101.489 175.517 99.9267C175.517 98.364 176.784 97.0962 178.347 97.0962C179.91 97.0962 181.178 98.364 181.178 99.9267C181.178 101.489 179.91 102.757 178.347 102.757Z" fill="url(#paint27_linear_322_91812)"/>
<path d="M192.23 147.161L177.708 158.621H79.4049" stroke="url(#paint28_linear_322_91812)" stroke-width="1.2" stroke-miterlimit="10"/>
<path d="M79.5688 161.878C77.7676 161.878 76.3116 160.422 76.3116 158.621C76.3116 156.82 77.7676 155.364 79.5688 155.364C81.3701 155.364 82.8262 156.82 82.8262 158.621C82.8262 160.422 81.3701 161.878 79.5688 161.878Z" fill="url(#paint29_linear_322_91812)"/>
</g>
<defs>
<linearGradient id="paint0_linear_322_91812" x1="800.712" y1="-19.9196" x2="695.002" y2="343.063" gradientUnits="userSpaceOnUse">
<stop stop-color="#754FFE"/>
<stop offset="0.543903" stop-color="#A62BDA" stop-opacity="0"/>
<stop offset="0.624554" stop-color="#AD26D5"/>
<stop offset="0.682701" stop-color="#C812C1"/>
</linearGradient>
<linearGradient id="paint1_linear_322_91812" x1="47.6359" y1="5.90973" x2="27.707" y2="10.6445" gradientUnits="userSpaceOnUse">
<stop stop-color="#754FFE"/>
<stop offset="0.9944" stop-color="#C812C1"/>
</linearGradient>
<linearGradient id="paint2_linear_322_91812" x1="839.929" y1="-13.0394" x2="740.464" y2="358.206" gradientUnits="userSpaceOnUse">
<stop stop-color="#754FFE"/>
<stop offset="0.543903" stop-color="#A62BDA" stop-opacity="0"/>
<stop offset="0.624554" stop-color="#AD26D5"/>
<stop offset="0.682701" stop-color="#C812C1"/>
</linearGradient>
<linearGradient id="paint3_linear_322_91812" x1="11.8683" y1="13.2705" x2="-8.06063" y2="18.0053" gradientUnits="userSpaceOnUse">
<stop stop-color="#754FFE"/>
<stop offset="0.9944" stop-color="#C812C1"/>
</linearGradient>
<linearGradient id="paint4_linear_322_91812" x1="699.257" y1="-8.74711" x2="563.429" y2="335.448" gradientUnits="userSpaceOnUse">
<stop stop-color="#754FFE"/>
<stop offset="0.543903" stop-color="#A62BDA" stop-opacity="0"/>
<stop offset="0.624554" stop-color="#AD26D5"/>
<stop offset="0.682701" stop-color="#C812C1"/>
</linearGradient>
<linearGradient id="paint5_linear_322_91812" x1="140.155" y1="30.1284" x2="120.226" y2="34.8632" gradientUnits="userSpaceOnUse">
<stop stop-color="#754FFE"/>
<stop offset="0.9944" stop-color="#C812C1"/>
</linearGradient>
<linearGradient id="paint6_linear_322_91812" x1="734.419" y1="29.7582" x2="616.059" y2="375.324" gradientUnits="userSpaceOnUse">
<stop stop-color="#754FFE"/>
<stop offset="0.543903" stop-color="#A62BDA" stop-opacity="0"/>
<stop offset="0.624554" stop-color="#AD26D5"/>
<stop offset="0.682701" stop-color="#C812C1"/>
</linearGradient>
<linearGradient id="paint7_linear_322_91812" x1="109.47" y1="52.9292" x2="86.5366" y2="58.3777" gradientUnits="userSpaceOnUse">
<stop stop-color="#754FFE"/>
<stop offset="0.9944" stop-color="#C812C1"/>
</linearGradient>
<linearGradient id="paint8_linear_322_91812" x1="266.367" y1="166.252" x2="197.084" y2="275.629" gradientUnits="userSpaceOnUse">
<stop stop-color="#754FFE"/>
<stop offset="0.368104" stop-color="#A62BDA" stop-opacity="0"/>
<stop offset="0.466651" stop-color="#AD26D5"/>
<stop offset="0.682701" stop-color="#C812C1"/>
</linearGradient>
<linearGradient id="paint9_linear_322_91812" x1="139.117" y1="176.522" x2="119.173" y2="181.261" gradientUnits="userSpaceOnUse">
<stop stop-color="#754FFE"/>
<stop offset="0.9944" stop-color="#C812C1"/>
</linearGradient>
<linearGradient id="paint10_linear_322_91812" x1="288.416" y1="176.997" x2="219.132" y2="286.374" gradientUnits="userSpaceOnUse">
<stop stop-color="#754FFE"/>
<stop offset="0.444807" stop-color="#A62BDA" stop-opacity="0"/>
<stop offset="0.52669" stop-color="#AD26D5"/>
<stop offset="0.682701" stop-color="#C812C1"/>
</linearGradient>
<linearGradient id="paint11_linear_322_91812" x1="161.166" y1="187.267" x2="141.221" y2="192.006" gradientUnits="userSpaceOnUse">
<stop stop-color="#754FFE"/>
<stop offset="0.9944" stop-color="#C812C1"/>
</linearGradient>
<linearGradient id="paint12_linear_322_91812" x1="648.132" y1="113.381" x2="604.674" y2="300.153" gradientUnits="userSpaceOnUse">
<stop stop-color="#754FFE"/>
<stop offset="0.543903" stop-color="#A62BDA" stop-opacity="0"/>
<stop offset="0.624554" stop-color="#AD26D5"/>
<stop offset="0.682701" stop-color="#C812C1"/>
</linearGradient>
<linearGradient id="paint13_linear_322_91812" x1="181.666" y1="127.708" x2="158.732" y2="133.157" gradientUnits="userSpaceOnUse">
<stop stop-color="#754FFE"/>
<stop offset="0.9944" stop-color="#C812C1"/>
</linearGradient>
<linearGradient id="paint14_linear_322_91812" x1="803.08" y1="124.12" x2="775.363" y2="317.123" gradientUnits="userSpaceOnUse">
<stop stop-color="#754FFE"/>
<stop offset="0.543903" stop-color="#A62BDA" stop-opacity="0"/>
<stop offset="0.624554" stop-color="#AD26D5"/>
<stop offset="0.682701" stop-color="#C812C1"/>
</linearGradient>
<linearGradient id="paint15_linear_322_91812" x1="40.3727" y1="138.454" x2="17.439" y2="143.902" gradientUnits="userSpaceOnUse">
<stop stop-color="#754FFE"/>
<stop offset="0.9944" stop-color="#C812C1"/>
</linearGradient>
<linearGradient id="paint16_linear_322_91812" x1="681.149" y1="97.9041" x2="666.714" y2="213.904" gradientUnits="userSpaceOnUse">
<stop stop-color="#754FFE"/>
<stop offset="0.543903" stop-color="#A62BDA" stop-opacity="0"/>
<stop offset="0.624554" stop-color="#AD26D5"/>
<stop offset="0.682701" stop-color="#C812C1"/>
</linearGradient>
<linearGradient id="paint17_linear_322_91812" x1="156.659" y1="104.136" x2="136.73" y2="108.871" gradientUnits="userSpaceOnUse">
<stop stop-color="#754FFE"/>
<stop offset="0.9944" stop-color="#C812C1"/>
</linearGradient>
<linearGradient id="paint18_linear_322_91812" x1="470.054" y1="198.795" x2="105.63" y2="547.33" gradientUnits="userSpaceOnUse">
<stop stop-color="#754FFE"/>
<stop offset="0.474169" stop-color="#A62BDA" stop-opacity="0"/>
<stop offset="0.516357" stop-color="#AD26D5"/>
<stop offset="0.605252" stop-color="#C812C1"/>
</linearGradient>
<linearGradient id="paint19_linear_322_91812" x1="85.8735" y1="229.744" x2="65.9405" y2="234.479" gradientUnits="userSpaceOnUse">
<stop stop-color="#754FFE"/>
<stop offset="0.9944" stop-color="#C812C1"/>
</linearGradient>
<linearGradient id="paint20_linear_322_91812" x1="211.5" y1="231.5" x2="204.157" y2="203.288" gradientUnits="userSpaceOnUse">
<stop stop-color="#754FFE"/>
<stop offset="0.488079" stop-color="#A62BDA" stop-opacity="0"/>
<stop offset="0.624554" stop-color="#AD26D5"/>
<stop offset="0.902902" stop-color="#C812C1"/>
</linearGradient>
<linearGradient id="paint21_linear_322_91812" x1="182.827" y1="198.324" x2="162.875" y2="203.064" gradientUnits="userSpaceOnUse">
<stop stop-color="#754FFE"/>
<stop offset="0.9944" stop-color="#C812C1"/>
</linearGradient>
<linearGradient id="paint22_linear_322_91812" x1="248.033" y1="148.789" x2="189.774" y2="277.686" gradientUnits="userSpaceOnUse">
<stop stop-color="#754FFE"/>
<stop offset="0.390952" stop-color="#A62BDA" stop-opacity="0"/>
<stop offset="0.516033" stop-color="#AD26D5"/>
<stop offset="0.682701" stop-color="#C812C1"/>
</linearGradient>
<linearGradient id="paint23_linear_322_91812" x1="63.5929" y1="159.386" x2="43.664" y2="164.12" gradientUnits="userSpaceOnUse">
<stop stop-color="#754FFE"/>
<stop offset="0.9944" stop-color="#C812C1"/>
</linearGradient>
<linearGradient id="paint24_linear_322_91812" x1="352.77" y1="92.5203" x2="226.471" y2="324.762" gradientUnits="userSpaceOnUse">
<stop stop-color="#754FFE"/>
<stop offset="0.307536" stop-color="#A62BDA" stop-opacity="0"/>
<stop offset="0.511773" stop-color="#AD26D5"/>
<stop offset="0.601377" stop-color="#C812C1"/>
</linearGradient>
<linearGradient id="paint25_linear_322_91812" x1="49.9913" y1="100.879" x2="30.0624" y2="105.614" gradientUnits="userSpaceOnUse">
<stop stop-color="#754FFE"/>
<stop offset="0.9944" stop-color="#C812C1"/>
</linearGradient>
<linearGradient id="paint26_linear_322_91812" x1="254.202" y1="89.3692" x2="161.418" y2="151.803" gradientUnits="userSpaceOnUse">
<stop stop-color="#754FFE"/>
<stop offset="0.543903" stop-color="#A62BDA" stop-opacity="0"/>
<stop offset="0.624554" stop-color="#AD26D5"/>
<stop offset="0.682701" stop-color="#C812C1"/>
</linearGradient>
<linearGradient id="paint27_linear_322_91812" x1="187.386" y1="92.4258" x2="167.457" y2="97.1605" gradientUnits="userSpaceOnUse">
<stop stop-color="#754FFE"/>
<stop offset="0.9944" stop-color="#C812C1"/>
</linearGradient>
<linearGradient id="paint28_linear_322_91812" x1="315.959" y1="137.706" x2="251.114" y2="289.379" gradientUnits="userSpaceOnUse">
<stop stop-color="#754FFE"/>
<stop offset="0.373423" stop-color="#A62BDA" stop-opacity="0"/>
<stop offset="0.474295" stop-color="#AD26D5"/>
<stop offset="0.682701" stop-color="#C812C1"/>
</linearGradient>
<linearGradient id="paint29_linear_322_91812" x1="89.9703" y1="149.989" x2="67.0367" y2="155.438" gradientUnits="userSpaceOnUse">
<stop stop-color="#754FFE"/>
<stop offset="0.9944" stop-color="#C812C1"/>
</linearGradient>
</defs>
</svg>
